<?xml version="1.0" encoding="utf-8"?>
<!-- Generator: Adobe Illustrator 27.3.1, SVG Export Plug-In . SVG Version: 6.00 Build 0)  -->
<svg version="1.1" id="Layer_1" xmlns="http://www.w3.org/2000/svg" xmlns:xlink="http://www.w3.org/1999/xlink" x="0px" y="0px"
	 viewBox="0 0 1109.2 328" style="enable-background:new 0 0 1109.2 328;" xml:space="preserve">
<style type="text/css">
	.st0{fill:#FFFFFF;}
</style>
<path class="st0" d="M309.1,216.7c-0.1,0.8-0.2,1.5-0.4,2.2c2.3-2,4.8-3.7,7.4-5.2c0.6-0.3,1.2-0.6,1.8-0.9c0.6-1.9,1-3.8,1.2-5.7
	v-0.4l0,0c0.1-1,0.2-2,0.2-2.9l0,0v-0.9l0,0c0-1.2,0-2.4-0.2-3.5l0,0c0-0.4,0-0.6-0.1-0.9l0,0c-0.1-0.8-0.3-1.6-0.4-2.3l0,0
	c0-0.4-0.1-0.6-0.2-0.8c0,0,0-0.1,0-0.2c-0.2-0.7-0.4-1.4-0.6-2c0-0.1-0.1-0.3-0.2-0.4c-0.1-0.4-0.3-0.7-0.4-1l0,0
	c-0.1-0.5-0.3-0.8-0.5-1.1s-0.3-0.5-0.4-0.8l0,0c-0.1-0.3-0.3-0.5-0.4-0.8c-0.2-0.4-0.5-0.8-0.7-1.1c-0.5-0.8-1-1.5-1.6-2.2
	c-0.5-0.6-1-1.1-1.4-1.5s-0.8-0.8-1.1-1c-0.2,0.2-0.5,0.5-0.9,0.8h-0.1c-0.4,0.5-0.9,0.9-1.4,1.5c-1.3,1.4-2.4,2.8-3.5,4.3
	c-3,4.3-5,9.3-5.8,14.5c-0.4,2.3-0.5,4.7-0.4,7c0.7,2.9,1.8,5.6,3.1,8.2l0,0c0.8,0.8,1.7,1.4,2.8,1.9c0.3-1.5,0.7-3.4,1.1-5.4
	c-1.5-1.6-4-4.5-3.7-5.2c0-0.2,0.3-0.4,0.5-0.4c0.7,0,2.4,1.5,3.7,2.9c0.3-1.8,0.7-3.6,1-5.5l0,0c-0.9-1-2.1-2.2-3.1-3.4
	c-2.6-3-2.5-3.4-2.4-3.7c0-0.2,0.3-0.4,0.5-0.4s0.5,0,1.2,0.5c1.5,1.3,3,2.7,4.3,4.3c0.2-1.3,0.4-2.4,0.5-3.5s0.3-2.1,0.4-3
	c-0.6-0.6-1.5-1.5-2.2-2.4s-1.2-1.6-1.1-2c0-0.2,0.3-0.4,0.5-0.4c0.4-0.1,0.7-0.2,3.2,2.2c0.2-1.8,0.4-3.2,0.5-4.2
	c0-0.7,0.2-1.5,0.4-2.2c0.2-0.9,0.4-0.9,0.8-0.9s0.5,0,0.6,1c0,0.7,0.1,1.5,0.1,2.2c0,1,0,2.5-0.1,4.3c2.8-1.9,3.3-1.8,3.5-1.7
	c0.2,0,0.4,0.3,0.4,0.5c0,0.4-0.6,1.1-1.5,1.8c-0.8,0.7-1.7,1.3-2.6,1.9c0,0.9-0.1,1.9-0.3,3s-0.2,2.3-0.4,3.6
	c2.9-1.8,4.3-2.8,5.2-3.2s1-0.3,1.3-0.2c0.2,0,0.4,0.3,0.4,0.6s0,0.8-3.3,3.2c-1.3,0.9-2.8,1.8-3.9,2.5l0,0
	c-0.2,1.9-0.5,3.8-0.8,5.6c1.7-0.9,3.8-1.9,4.4-1.6c0.2,0.1,0.4,0.3,0.4,0.6c0,1-3.3,3-5.3,4V216.7z"/>
<path class="st0" d="M315.7,112.1c0.7,1.3,1.3,2.6,1.9,3.9c0.4-0.8,1-1.6,1.7-2.2c0-0.4,0.1-0.8,0.2-1.2c0.2-0.9,0.4-1.8,0.6-2.6
	c0.1-0.5,0.3-1,0.5-1.4c-0.3-0.5-0.5-1.1-0.8-1.6l0,0c0-0.1-0.5-1-0.5-1l-0.2-0.4c-0.1-0.2-0.2-0.3-0.3-0.5l-0.3-0.4l-0.2-0.4
	l-0.3-0.5c-1-1.4-2.1-2.6-3.4-3.8c-0.6-0.5-1.1-1-1.7-1.4l-0.8-0.6l0,0c-0.2-0.2-0.5-0.3-0.7-0.5l0,0l-0.7-0.4l0,0l-0.7-0.4
	l-0.9-0.4c-0.8-0.4-1.7-0.7-2.5-1c-0.7-0.2-1.4-0.4-2.2-0.5c-1-0.2-2-0.3-3-0.2c0.3,2.4,0.8,4.8,1.5,7.2c0.5,1.7,1.1,3.6,1.9,5.6
	c0.9,2.2,1.9,4.4,3,6.5c1.2,2.4,2.7,4.7,4.5,6.8c1.2,1.2,2.5,2.3,3.9,3.2c0.8,0.3,1.6,0.4,2.5,0.4c-0.4-1.4-1-3-1.6-4.7l-0.5-0.2
	c-1.5-0.5-2.4-0.7-2.9-1s-0.6-0.4-0.7-0.7c0,0-0.3-0.2,0.2-0.7s1.9-0.2,2.9,0c-0.5-1.3-1.1-2.6-1.8-3.9c-0.9-0.3-2.5-0.8-3.9-1.2
	s-2.6-0.9-2.8-1.4c-0.1-0.2,0-0.5,0-0.7c0.3-0.4,0.2-0.3,0.9-0.3c0.5,0,1,0.1,1.5,0.2c0.9,0.2,1.9,0.4,2.8,0.7
	c-1-1.8-1.9-3.2-2.7-4.5c-0.7-0.1-1.7-0.3-2.6-0.5s-1.7-0.5-1.9-0.8c0,0-0.3-0.3,0-0.7s1.7-0.4,2.9-0.3c-2-2.8-3.2-4.1-3.7-4.8
	s-0.4-0.8-0.2-1s0.3-0.3,1,0.3c1.5,1.4,2.9,3,4.1,4.6c0.2-1.2,0.5-2.6,1-2.7c0,0,0.3-0.2,0.7,0.2s0.4,1.2,0.4,2.2
	c0,0.9-0.2,1.8-0.3,2.7c0.9,1.3,1.9,2.8,2.9,4.5l0.6-2.9c0.2-0.7,0.3-1.2,0.4-1.5c0.2-0.7,0.4-0.7,0.6-0.7c0,0,0.2-0.1,0.7,0.3
	s0.4,1.9,0,3.4c-0.3,1.4-0.6,2.7-1.1,4.1L315.7,112.1z"/>
<path class="st0" d="M328,159.1L328,159.1c0-0.2,0.1-0.4,0.2-0.6l0,0c0-0.3,0.1-0.5,0.1-0.7l0,0c0.5-3.8,0.2-7.6-1-11.1
	c-0.1-0.4-0.3-0.8-0.4-1.2s-0.3-0.9-0.5-1.3l0,0c-0.2-0.4-0.3-0.8-0.5-1.2c-0.3-0.6-0.6-1.3-1-1.9l-0.3-0.6l-0.2-0.3
	c-0.1-0.2-0.2-0.3-0.3-0.5s-0.2-0.3-0.3-0.4l-0.2-0.4c-0.2-0.3-0.4-0.5-0.6-0.8s-0.4-0.5-0.6-0.8l-0.3-0.3c-0.1-0.1-0.2-0.2-0.3-0.3
	l-0.4-0.5h-0.1c0-0.1-0.5-0.6-0.5-0.6c-1-1-2.1-1.8-3.2-2.6c-0.5-0.3-0.9-0.5-1.3-0.8s-0.9-0.4-1.3-0.6s-0.8-0.3-1.2-0.4
	s-0.8-0.2-1.1-0.3c-1-0.3-2.1-0.4-3.2-0.4c0,1.2,0.4,4.1,0.8,7.6c0.2,1.8,0.5,3.7,1,5.9s0.9,4.4,1.7,7c0.7,2.6,1.6,5.1,2.6,7.5
	l0.2-0.3c0.4-0.5,0.9-1.1,1.4-1.5l0.2-0.2c0-0.1-0.1-0.3-0.1-0.4c0-0.3,0.1-0.5,0.4-0.6c0.4-0.3,2,0.2,3,0.8
	c-0.2-1.5-0.5-2.9-0.8-4.4l-3.7-2.1c-1.3-0.8-2.5-1.5-2.6-2c0-0.3,0-0.5,0.2-0.7s0.5-0.2,1-0.1c0.5,0.1,1,0.3,1.5,0.5
	c0.9,0.4,1.9,0.9,2.7,1.4c-0.5-1.8-1.1-3.5-1.8-5.2c-0.6-0.2-1.7-0.6-2.6-1s-1.7-0.7-1.8-1.1c0,0-0.2-0.3,0.1-0.7s1.8-0.2,3.1,0
	c-0.8-1.6-1.5-2.8-2-3.7c-0.2-0.4-0.5-0.8-0.7-1.1s-0.3-0.6-0.4-0.8c-0.5-0.8-0.3-0.9-0.1-1.1s0.4-0.3,1,0.4
	c0.2,0.2,0.4,0.4,0.6,0.7s0.5,0.6,0.8,1.1c0.8,1.2,1.6,2.4,2.3,3.7c0.5-1.2,1-2.7,1.5-2.7c0,0,0.4-0.2,0.7,0.3
	c0.3,0.8,0.3,1.6,0,2.4c-0.2,1-0.5,1.9-0.9,2.8c0.8,1.7,1.4,3.5,2,5.3c0.6-1.2,1-2.1,1.4-2.9s0.6-1.2,0.8-1.5
	c0.4-0.7,0.6-0.7,0.8-0.7c0,0,0.4,0,0.7,0.5s0,2.1-0.6,3.7c-0.6,1.4-1.2,2.7-2,4c0.3,1.1,0.5,2.3,0.8,3.5c0,0.4,0.1,0.7,0.2,1.1
	c0.4-0.4,0.9-0.9,1.4-1.3l0,0c0.5-0.4,0.9-0.6,1.2-0.6c0,0,0.5,0,0.6,0.6c0.1,0.4,0,0.8-0.2,1.1c-0.6,0.9-1.4,1.8-2.1,2.6l-0.4,0.4
	c0.1,1,0.2,2,0.3,2.9c0,0,0.1,0.2,0.2,0.3c0.4,0.5,0.8,1.2,1.2,1.8c0.4-0.2,0.8-0.5,1.1-0.9c0.7-0.7,1.2-1.5,1.5-2.3
	c0.2-0.4,0.3-0.7,0.4-1.1L328,159.1z"/>
<path class="st0" d="M334.1,134.8l-0.4,0.4c0,0,0,0-0.1,0.1l-0.5,0.6l-0.6,0.7c0,0-0.1,0.1-0.2,0.2l-0.5,0.6v0.2
	c-0.6,0.6-1,1.2-1.5,1.8l0,0c-0.2,0.3-0.4,0.6-0.6,1l0,0c-0.5,0.7-0.9,1.5-1.4,2.3c0.4,1,0.8,2.1,1.1,3.1c0.1,0.4,0.2,0.7,0.3,1.1
	c0.4,0.7,1.1,1.9,2.1,4.1c0.7-2.1,1.2-4,1.8-5.6c-0.7-1.3-2.1-4.2-1.6-5c0-0.3,0.3-0.5,0.6-0.5c0.7,0,1.4,1.3,2,2.4
	c0.7-2.2,1.5-4.3,2.4-6.4c0.4-0.9,0.6-0.8,0.9-0.7s0.4,0.2,0.2,1.1s-0.8,2.8-1.9,6.5c1.2-0.6,2.6-1.1,3-0.8c0,0,0.4,0,0.2,0.7
	s-2.9,2.4-4.2,3.1c-0.5,1.6-1,3.5-1.6,5.6c4.6-2.8,4.9-2.6,5.3-2.3c0,0,0.4,0.1,0.3,0.8s-1.2,1.5-2.6,2.4s-2.9,1.8-3.8,2.3
	c-0.4,1.5-0.8,3.1-1.2,4.6c1.1-0.4,2.6-0.9,3.1-0.5c0,0,0.4,0.1,0.3,0.7s-0.5,0.9-3.6,2.4l-0.5,0.2c-0.5,2-1,3.9-1.4,5.4
	c0.9,0,1.8-0.2,2.6-0.6c1.6-0.9,2.8-2.1,3.8-3.7c1.8-2.9,3.1-6.1,3.9-9.4c1.5-4.9,2-10,1.6-15.1c-0.2-1.7-0.4-3.4-0.9-5
	c-0.3-1-0.6-2.1-1-3.1c-0.9,0.5-1.8,1-2.6,1.7c-0.5,0.4-1.1,0.9-1.7,1.4l-0.5,0.5l0,0l-0.5,0.5l0,0L334.1,134.8z"/>
<path class="st0" d="M323.4,106.7v0.2c-0.2,0.3-0.4,0.7-0.5,1s-0.2,0.5-0.3,0.8c-0.3,0.8-0.6,1.7-0.9,2.7c-0.9,3.5-1.4,7.1-1.4,10.7
	v1.4c0,1.8,0.2,3.6,0.5,5.4c0.2,1.4,0.5,2.7,1,4.1c0.2,0.6,0.5,1.3,0.8,1.9l0.3,0.3l0.5,0.5l0.5,0.5c0.3,0.4,0.6,0.7,0.9,1.1
	s0.4,0.5,0.6,0.8c0.5,0.3,1.1,0.6,1.7,0.7c-0.1-1.7-0.2-3.7-0.3-5.8l-0.4-0.4c-2.6-2.2-2.9-2.7-2.8-3.4s0.4-0.7,0.4-0.7
	c0.5-0.2,1.8,0.6,2.7,1.3c0-0.8,0-1.6,0-2.4s0-1.7,0-2.5c-0.4-0.4-0.8-0.9-1.3-1.5s-1-1.3-1.5-1.9c-1-1.3-1.8-2.6-1.7-3.3
	c0-0.3,0.2-0.5,0.5-0.7c0.4-0.2,0.4-0.2,0.9,0.3c1.1,1.2,2.2,2.4,3.2,3.6c0-2.3,0-4.3,0-6.1c-0.9-1.1-2.9-3.6-2.7-4.6
	c0,0-0.2-0.4,0.5-0.6s1.5,0.9,2.4,1.9c0.1-2,0.2-3.5,0.3-4.6s0.2-1.9,0.4-2.4c0.2-1,0.4-1,0.6-1s0.4,0,0.5,1c0,0.5,0,1.2,0,2.4
	s-0.1,2.6-0.1,4.6c0.9-0.9,2.1-1.8,2.5-1.6c0,0,0.2-0.2,0.4,0.6s-2,3.2-3,4.2c0,1.7,0,3.7,0,6c1-1.3,2-2.5,3.2-3.5
	c0.5-0.5,0.7-0.4,0.9-0.3c0,0,0.3,0,0.4,0.6s-0.7,1.9-1.6,3.1c-0.5,0.6-1,1.3-1.5,1.9s-0.9,1.1-1.3,1.5c0,0.8,0,1.7,0.1,2.5v2.4
	c1-0.8,2.2-1.7,2.7-1.5c0,0,0.4,0,0.5,0.6s-0.2,1.1-2.5,3.5l-0.4,0.4c0.1,1.8,0.2,3.4,0.3,4.9c1.3-1.8,2.7-3.4,4.3-4.9l0,0V132
	c0.8-3.4,1.1-6.9,0.9-10.4c0-5.2-0.8-10.4-2.4-15.3c-0.3-0.9-0.6-1.8-0.9-2.6s-0.6-1.5-0.9-2.1c-0.6-1.3-1.1-2.2-1.5-2.9
	c-0.8,0.7-1.5,1.5-2.1,2.3l-0.2,0.2c0,0.1-0.2,0.2-0.3,0.4l0,0c0,0.1-0.2,0.4-0.2,0.4s-0.1,0.2-0.2,0.2l-0.2,0.2
	c-0.1,0.2-0.2,0.3-0.3,0.5c-0.5,0.8-0.9,1.6-1.4,2.6c0,0.4-0.2,0.7-0.4,1.1L323.4,106.7z"/>
<path class="st0" d="M307.4,83.7v0.5c0,0.2,0,0.2,0,0.3V85c0,0.1,0,0.3,0.1,0.4s0,0.3,0,0.5v0.5c0,0.1,0.1,0.3,0.2,0.4
	c0.4,2.1,1.1,4.2,1.9,6.1c0.4,0.9,0.7,1.6,1.1,2.4c1.1,0.6,2.1,1.3,3.1,2.1l1,0.8c0.3,0.3,0.6,0.6,1,0.9c0.7,0.6,1.3,1.3,1.9,2
	c0.9,1.1,1.8,2.3,2.6,3.5c0.3,0,0.5,0,0.8,0c-0.7-1.3-1.5-2.9-2.3-4.7h-0.5c-2.9-1.1-3.4-1.3-3.6-1.9c0-0.2,0-0.5,0.1-0.7
	c0.3-0.4,1.8-0.1,2.8,0.1c-0.6-1.3-1.2-2.7-1.8-4c-1.2-0.5-2.4-1.1-3.6-1.8c-1.3-0.8-2.4-1.6-2.5-2.2c0-0.3,0-0.5,0.1-0.7
	c0.2-0.2,0.5-0.2,0.9,0c1.4,0.6,2.7,1.2,4,1.9c-0.8-1.9-1.4-3.6-1.9-5.1c-1.1-0.6-3.7-2-3.8-2.9c0-0.2,0-0.5,0.2-0.7
	c0.4-0.3,1.6,0.3,2.7,0.8c-0.7-2-1.2-4-1.6-6.1c-0.1-0.9,0-0.9,0.3-1s0.4,0,0.7,0.7s0.8,2.5,2,5.9c0.5-1,1.9-2.5,2.2-1.7
	s-0.7,3.3-1.2,4.5c0.6,1.4,1.2,3.1,2,4.9c0.4-1.4,0.9-2.7,1.5-4c0.3-0.6,0.5-0.6,0.7-0.6c0,0,0.3,0,0.6,0.4s0,1.8-0.4,3.1
	s-0.9,2.9-1.2,3.8c0.6,1.4,1.2,2.7,1.8,4c0.5-1,1.2-2.1,1.7-2.2c0,0,0.3-0.1,0.6,0.4s0.2,1-1,3.8l-0.2,0.4c0.8,1.7,1.6,3.2,2.3,4.5
	c0.2-0.4,0.5-0.8,0.7-1.2s0.6-0.9,0.9-1.3c0.3-1.3,0.3-2.7,0-4.1c-0.6-3.1-1.5-6-2.8-8.9c-1.7-4.2-4.1-8.2-6.9-11.8
	c-1.1-1.4-2.1-2.5-3-3.4s-1.5-1.6-2-2c-0.1,0.2-0.3,0.6-0.5,1c-0.1,0.2-0.2,0.4-0.3,0.7s-0.2,0.5-0.3,0.9s-0.1,0.4-0.2,0.6v0.2
	c0,0.1-0.1,0.3-0.2,0.4v0.2c-0.1,0.2-0.1,0.3-0.2,0.5c0,0,0,0.1,0,0.2c0,0.2-0.1,0.5-0.2,0.7c-0.1,0.6-0.2,1.3-0.3,2
	s-0.1,1.7-0.1,2.6S307.3,82.6,307.4,83.7L307.4,83.7L307.4,83.7z"/>
<path class="st0" d="M288.2,272.7c1.6-0.6,3.3-0.9,5-1c0.3-1,0.3-2.1,0-3.2c-0.7-2.5-1.8-4.9-3-7.2l-0.6-1.2
	c-0.5-0.8-0.9-1.6-1.4-2.4c-1,1.4-2.1,2.6-3.5,3.7c-0.7,0.5-1.4,1-2.1,1.5l1,1.8c1.7,2.6,3.2,5.4,4.5,8.2L288.2,272.7z"/>
<path class="st0" d="M238.3,284.6c0.1,0,0.8,0,1.8,0c0.8,0,1.6,0,2.4-0.2c0.7,0,1.3-0.2,2-0.3h0.5c0-0.1,0.7-0.3,0.7-0.3
	c0.4-0.1,0.8-0.2,1.2-0.4c0.8-0.3,1.6-0.7,2.4-1.1c1.6-0.9,2.9-2.2,3.8-3.8c0.2-0.5,0.4-1,0.5-1.5v-0.4l0,0c0-0.1,0-0.3,0-0.4
	c0-0.2,0-0.5,0-0.7c-0.1-1.1-0.5-2.1-1-3.1c-0.9-1.6-2-3.1-3.4-4.3c-0.2-0.3-0.2-0.7,0-0.9l0.2-0.3c0.1-0.2,0.3-0.4,0.5-0.8
	c0.5-0.9,1-1.8,1.4-2.7c0.9-2.2,1.7-5.1,1.1-7.4v-0.2c-0.1-0.4-0.3-0.7-0.4-1.1l0,0l-0.2-0.4c-0.1-0.2-0.2-0.3-0.4-0.4l0,0
	c-0.6-0.6-1.3-1-2.1-1.2c-0.8-0.3-1.6-0.4-2.4-0.3c-0.8,0-1.6,0.3-2.3,0.7c-1.8,1.1-3.3,2.6-4.4,4.3c-0.5,0.6-0.9,1.3-1.4,2
	c-0.1,0.3-0.3,0.5-0.4,0.6v0.2c-0.3,0.3-0.6,0.4-0.9,0.3c-1.6-0.8-3.3-1.4-5-1.9c-0.9-0.2-1.9-0.4-2.9-0.4c-0.4,0-0.8,0-1.2,0.2
	c-0.4,0.1-0.7,0.3-1,0.5c-1,0.8-1.6,2-1.9,3.2c-0.2,0.7-0.3,1.4-0.4,2c0,0.4,0,0.7,0,1.1s0,0.7,0,1c0,1.8,0.1,3.7,0.4,5.5
	c0,0.2,0,0.4-0.2,0.6c-0.1,0.2-0.4,0.2-0.6,0.2h-0.3l-0.7-0.2c-0.7-0.1-1.5-0.2-2.2-0.2c-0.9,0-1.7,0-2.6,0.2
	c-0.4,0-0.8,0.2-1.1,0.4c-0.4,0.2-0.7,0.4-0.9,0.8c-1.1,1.3-1.4,3.4-1.4,5.3c0,1.4,0,2.8,0.3,4.2l0,0c0,0.4-0.2,0.7-0.5,0.8
	c-0.7,0.2-2,0.7-3.2,1.3c0.1,1.4,0.4,3,0.6,4.8c0-0.6,0.1-1.2,0.4-1.7c0.2-0.1,0.4-0.2,0.6-0.2c0.7,0,1.1,2.2,1.2,3.5
	c2-1.5,4.1-3.1,6.2-4.9c0-0.4,0-1.1-0.2-2s-0.1-1.9-0.2-2.9c-0.1-2-0.2-3.9,0.2-4.3c0.1-0.2,0.4-0.2,0.6-0.2c0.5,0,1,1.3,1.4,2.8
	c0.3,1.5,0.6,3,0.8,4.5c2.6-2.3,5.2-4.6,7.7-7c-0.2-0.8-0.3-2-0.5-3.4s-0.4-2.8-0.6-4.2s-0.4-2.7-0.5-3.7c-0.1-0.7-0.1-1.3,0-2
	c0.1-0.2,0.3-0.3,0.5-0.3c0.3,0,0.6,0,1.1,1.3c1.1,3.2,1.8,6.5,2.2,9.9c1-1,2-2.1,2.9-3.1c0.5-0.5,0.9-1,1.3-1.5s0.9-1,1.2-1.5
	c-0.1-0.5-0.4-1.5-0.6-2.4c-0.2-0.7-0.3-1.4-0.1-2.2c0.1-0.2,0.3-0.3,0.5-0.4c0.7-0.1,1.6,1.5,2.1,2.6l1.1-1.5c0.4-0.5,0.6-1,1-1.4
	l0.8-1.2c0.2-0.4,0.5-0.7,0.7-1c0.4-0.6,0.8-1.2,1-1.6l0.7-1.1c0.7-1.1,0.9-1.1,1.2-0.9s0.5,0.2,0,1.5c-0.1,0.3-0.3,0.7-0.5,1.2
	s-0.5,1-0.9,1.7l-0.6,1.1l-0.8,1.3c-0.3,0.5-0.6,0.9-0.9,1.4l-1.1,1.6c1.2,0,3.1,0.3,3.2,1.1c0,0.2,0,0.5-0.2,0.6
	c-0.7,0.4-1.4,0.7-2.2,0.6c-0.9,0-1.7,0-2.6,0c-0.4,0.5-0.8,1-1.2,1.6s-0.8,1.1-1.3,1.6c-0.9,1.1-1.8,2.2-2.8,3.3
	c3,0.2,5.2,0.2,6.9,0.2s2.9,0,3.6,0.1c1.5,0.1,1.6,0.4,1.6,0.7c0,0.3-0.1,0.5-0.3,0.7c-0.7,0.4-1.4,0.7-2.2,0.7
	c-1.3,0.2-2.7,0.3-4,0.4c-1.5,0-3.1,0-4.5,0s-2.6-0.2-3.5-0.4c-2.4,2.5-5,5-7.6,7.4c1.1,0.3,2.9,0.7,4.5,1.2s2.8,1,2.8,1.6
	c0,0.2-0.2,0.4-0.3,0.6c-0.5,0.4-2.4,0.2-4.5-0.1c-1-0.2-2-0.4-2.9-0.6s-1.6-0.4-2-0.5c-2.1,1.8-4.2,3.5-6.2,5.1
	c1.2,0.5,3.2,1.4,3.1,2c0,0.2-0.2,0.4-0.4,0.5c-0.7,0.2-1.5,0.1-2.3-0.1c-1-0.2-2.1-0.5-2.8-0.8l-0.6,0.5c0.3,1.6,0.7,3.2,1.2,4.8
	h1.8c0.5,0,0.8,0,1.2-0.1l0,0c0.3,0,0.7-0.1,1-0.2h0.4c0-0.1,0-0.1,0-0.1h0.4c0-0.1,0.3-0.2,0.3-0.2h0.3c0.6-0.5,1.1-1,1.5-1.5
	l0.5-0.5c0.3-0.4,0.5-0.7,0.8-1c0.4-0.5,0.6-1,0.8-1.3l0.2-0.4l0,0c0.1-0.5,0.5-0.6,0.8-0.6h0.1c0.7,0.3,1.4,0.5,2.1,0.6h0.7
	c0.7,0.2,1.3,0.3,2,0.4h0.5c1.7,0,3.4-0.4,4.9-1.3c0.7-0.5,1.3-1.3,1.6-2.1c0.3-0.7,0.5-1.4,0.7-2.1v-0.2c0.2-1.4,0.3-2.9,0-4.3
	c0-0.2,0-0.5,0.2-0.6c0.1-0.3,0.4-0.4,0.6-0.5L238.3,284.6z"/>
<path class="st0" d="M295.6,269.4l3-3.6c0,0,0-0.1,0.1-0.2s0.1-0.1,0.2-0.2v-0.2c0.1,0,0.2-0.2,0.2-0.2s0-0.1,0-0.2
	c0,0,0-0.2,0.1-0.2v-0.2l0.2-0.3V264c0-0.1,0-0.2,0-0.3v-0.1v-0.3v-0.1v-0.3l0,0v-0.5l0,0v-0.5l0,0v-0.5c0-0.1,0,0,0,0V261l0,0
	c0-0.1,0-0.3,0-0.4s0,0,0,0s0-0.3-0.1-0.5l0,0c0-0.2,0-0.3-0.1-0.5l0,0c-1-3.3-3.2-7.1-5.5-11l-0.5-0.9v-0.2c-0.1,0-0.6-0.8-0.6-0.8
	v-0.2c-0.1,0-0.6-0.9-0.6-0.9v-0.2c-0.1,0-0.5-0.7-0.5-0.7v-0.2c-0.1,0-0.6-0.9-0.6-0.9l0,0c-0.1-0.3-0.3-0.6-0.4-0.9v-0.2
	c-0.3-0.3-0.4-0.5-0.5-0.8l0,0c-0.1-0.4-0.3-0.7-0.4-1v-0.2c-0.1,0-0.4-0.7-0.4-0.7v-0.2c-0.2-0.3-0.4-0.6-0.5-0.9v-0.2
	c-0.2-0.2-0.2-0.5-0.3-0.7v-0.2c-0.2-0.6-0.4-1.2-0.6-1.7v-0.2c-0.1-0.2-0.2-0.5-0.2-0.7l0,0c0-0.4-0.1-0.7-0.1-1v-0.2
	c0-0.2,0-0.5,0-0.7c0,0,0,0,0-0.1l-1,1.6v1.8c-0.1,2-0.5,3.9-1.2,5.8c1.7,0.8,3.3,2.1,4.4,3.6c0.7,1,1.2,2.1,1.5,3.2
	c0.1,0.7,0.2,1.3,0.2,2c0,0.8-0.1,1.5-0.3,2.2c-0.2,1-0.6,1.9-1,2.8l0.8,1.5l1.1,2c1.9,3.2,3.4,6.3,3.9,9.1c0,0.4,0,0.8,0.2,1.2
	L295.6,269.4z"/>
<rect x="184.3" y="231.3" class="st0" width="3.5" height="3.5"/>
<path class="st0" d="M275.2,262.5c1.5-0.3,2.9-0.7,4.3-1.3l0.8-0.3h0.1c0.3-0.2,0.5-0.3,0.8-0.5c2.3-1.1,4.3-2.8,5.8-4.9l0,0
	c0.1-0.2,0.2-0.4,0.3-0.5l0,0c0.1-0.2,0.2-0.4,0.3-0.6l0,0c0.1-0.2,0.2-0.4,0.3-0.6l0,0c0-0.2,0.2-0.4,0.2-0.6c0-0.1,0-0.3,0.1-0.4
	c0.5-2.1-0.5-4.3-2-6c-0.7-0.7-1.4-1.4-2.1-2c-0.5-0.4-1-0.8-1.5-1.1l-0.3-0.2c0,0,0,0-0.1,0l-0.4-0.2c-0.3-0.2-0.4-0.7-0.2-1
	c0-0.1,0.1-0.2,0.1-0.3c0-0.2,0.2-0.5,0.3-0.9s0.3-0.8,0.4-1.4s0.3-1.1,0.4-1.7c0-0.3,0.1-0.5,0.1-0.8v-0.4c0-0.1,0-0.3,0-0.4
	s0-0.4,0-0.6s0-0.2,0-0.3v-1.7l0,0v-0.5c0-0.5-0.1-0.9-0.2-1.4c-0.1-0.7-0.4-1.3-0.7-1.9c-0.4-0.8-1-1.6-1.8-2.1
	c-0.8-0.4-1.6-0.6-2.5-0.6s-1.7,0.2-2.5,0.5c-0.7,0.3-1.4,0.7-2,1.2c-0.4,0.3-0.8,0.7-1.1,1.1c-0.3,0.4-0.6,0.9-0.9,1.3
	c-0.5,0.9-1,1.9-1.4,2.8c-0.2,0.5-0.4,0.9-0.5,1.3s-0.3,0.8-0.4,1.1l-0.2,0.8v0.3c-0.2,0.3-0.5,0.5-0.8,0.5
	c-1.8-0.4-3.7-0.6-5.5-0.6c-2.1,0-4.2,0.4-5.2,1.7c-1.7,2.3-1.4,5.6-0.7,8.5c0.5,1.9,1.1,3.8,1.9,5.5c0.2,0.4,0,0.8-0.4,1
	c0,0-0.1,0-0.2,0h-1c-0.8,0.2-1.5,0.3-2.3,0.5c0,0.2,0.1,0.4,0.1,0.5c0.3,1.1,0.3,2.2,0.3,3.4c0,1.1-0.3,2.3-0.6,3.4
	c-0.3,1-0.7,2-1.1,3c-0.4,0.9-0.8,1.6-1.2,2.2c0.6,0.5,1.2,1.1,1.8,1.7c0.7,0.8,1.2,1.6,1.6,2.6c0.2,0.4,0.3,0.8,0.4,1.3
	c0.7-1.1,1.5-2.1,2.2-3.3c-0.3-0.8-1.1-2.9-1.8-4.9s-1.3-3.9-1-4.4c0.1-0.2,0.3-0.3,0.5-0.4c0.5-0.1,1.4,1,2.2,2.5
	c0.8,1.4,1.4,2.8,2,4.3c2-3.1,3.9-6.2,5.7-9.4c-0.4-0.8-0.9-2-1.5-3.3s-1.1-2.8-1.7-4.1c-1.1-2.8-2-5.2-1.8-5.8
	c0-0.2,0.3-0.4,0.5-0.5c0.3-0.1,0.6-0.2,1.4,1.1c0.7,1,1.3,2,1.8,3.1c0.8,1.5,1.8,3.6,3,6.4c1.5-2.7,2.8-5.3,3.9-7.7
	c-0.3-0.5-0.8-1.4-1.2-2.3c-0.4-0.7-0.7-1.4-0.7-2.2c0-0.2,0.2-0.4,0.4-0.5c0.7-0.3,2,1.2,2.8,2.2c2.3-5.2,3-8,3.5-9.3
	s0.6-1.3,1-1.2s0.6,0.1,0.3,1.6c-0.7,3.3-1.7,6.6-3,9.7c1.2-0.2,3.2-0.4,3.5,0.3c0,0.2,0,0.5,0,0.7c-0.6,0.6-1.3,1-2.1,1.2
	c-0.8,0.3-1.7,0.5-2.6,0.7c-1.1,2.5-2.3,5.2-3.7,8c3-0.7,5.3-1.2,7-1.6s2.9-0.7,3.7-0.8c1.6-0.3,1.7,0,1.8,0.4c0,0.3,0,0.5-0.1,0.8
	c-0.4,0.7-3,1.8-6,2.7c-1.5,0.5-3,0.9-4.5,1.2s-2.7,0.5-3.6,0.6c-1.7,3.2-3.6,6.5-5.5,9.6c1.2,0,3.1-0.2,4.8-0.1s3.1,0.2,3.2,0.7
	c0,0.2,0,0.5-0.2,0.7c-0.4,0.5-2.4,1-4.5,1.2s-4.4,0.4-5.2,0.5c-1.5,2.4-3.1,4.7-4.6,6.9c0.3,0,0.7,0.1,1,0.2c0.3,0,0.6,0.1,0.9,0.2
	c0.3,0,0.6,0.1,0.9,0.2l0,0c0.7-1.2,1.5-2.4,2.3-3.6c0.5-0.6,1-1.2,1.6-1.7s1.2-0.9,1.9-1.1c2-0.7,4.2,0.2,6.1,2.5
	c0.9-1.9,2-3.6,3.3-5.2c0.6-0.6,1.2-1.2,1.9-1.8c-0.2-1.4-0.6-2.7-1.1-4c-0.1-0.2-0.1-0.5,0-0.7c0.1-0.3,0.4-0.5,0.6-0.5
	L275.2,262.5z"/>
<path class="st0" d="M156.1,150.1h-3.5V136h-3.5v14.1h-3.5v-3.5l-3.5-3.5v53H135V189h-3.5v-7.1H128v7.1h-3.4v7.1H89.2V189H82v-17.7
	h-7v-7.1H64.5v7.1h-7.1V189h-3.5v31.3c0.1,0.2,0.3,0.4,0.4,0.6l2.5,5.6c0.6,1.1,1,2.3,1.1,3.5c0.4,0,0.7,0.3,1,0.5
	c0.2-0.6,0.4-1.2,0.7-1.7l0,0c0.4-0.7,0.8-1.4,1.3-2v-16.7h3.5v14.7c0.6-0.1,1.2-0.2,1.8-0.2c0.6,0,1.2,0,1.8,0.2V210h3.5v16.3
	c0.3,0.2,0.6,0.4,0.8,0.6c0.5,0.4,1,0.9,1.4,1.4s0.8,1,1.1,1.6l0.2,0.4V210h3.5v25c1-0.1,2-0.2,3-0.2c3.5,0,5.9,0.9,7.2,2.8
	c0.1,0.1,0.2,0.3,0.3,0.5v-24.5h3.7v37.1c0.5-0.3,1-0.5,1.6-0.7s1.3-0.3,1.9-0.4v-36h3.5V250c0.4,0.1,0.8,0.3,1.2,0.5
	c0.8,0.5,1.6,1,2.3,1.7v-38.6h3.5v42.9c0,0,0.2,0.3,0.5,0.8c1-0.4,2-0.8,3-1.1v-42.6h3.5v42c0.3,0,0.6,0,0.8,0c0.6,0,1.3,0,1.9,0.3
	c0.3,0,0.5,0.2,0.8,0.3v-42.6h3.5v46.6c0.1,0.4,0.3,0.8,0.4,1.1c0.2,0.8,0.4,1.6,0.5,2.4c0,0.4,0,0.8,0,1.2s0,0.8,0,1.1
	c0,1.2,0,2.4-0.1,3.4c0.4,0,0.7,0,1,0c1.1,0,2.2,0,3.3,0.3c0.4,0.1,0.8,0.2,1.2,0.4h18.3l7.1-6.9v-35.4h14.2l-2.2-0.7
	c-2.2-0.7-3.4-6.3-3.4-6.3s4.2,1.5,5.2,1.9l-0.6-2.7l3.9,2.6c0,0,1.3-3.8,2.5-3.8s2.5,3.8,2.5,3.8l3.8-2.7l-0.7,2.7
	c1-0.5,5.2-1.9,5.2-1.9s-1.2,5.6-3.4,6.3l-2.2,0.7h14.2v35.5l7.1,6.9h18.3c0.4-0.2,0.8-0.3,1.3-0.4c1.1-0.2,2.2-0.3,3.3-0.3
	c0.3,0,0.7,0,1,0c0-1-0.1-2.1-0.1-3.4c0-0.4,0-0.8,0-1.1s0-0.8,0-1.2c0-0.8,0.2-1.6,0.5-2.4c0.1-0.4,0.2-0.8,0.4-1.1v-46.7h3.5V256
	c0.3-0.1,0.5-0.2,0.8-0.3c0.6-0.2,1.3-0.3,1.9-0.3c0.3,0,0.6,0,0.8,0v-42h3.5V256c1,0.3,2,0.7,3,1.1c0.3-0.5,0.5-0.8,0.5-0.8v-42.8
	h3.5v38.7c0.7-0.6,1.5-1.2,2.3-1.7c0.4-0.2,0.8-0.4,1.2-0.5v-36.4h3.5v36c0.7,0,1.3,0.2,2,0.4c0.5,0.2,1.1,0.4,1.6,0.7v-37.1h3.5
	v24.6c0-0.1,0.2-0.3,0.3-0.5c1.3-1.8,3.7-2.8,7.2-2.8c1,0,2,0,3,0.2v-25h3.5v20.3l0.2-0.4c0.3-0.5,0.7-1.1,1.1-1.6s0.9-1,1.4-1.4
	c0.3-0.2,0.5-0.4,0.8-0.6v-16.3h3.5v14.8c0.6-0.1,1.2-0.2,1.8-0.2c0.6,0,1.2,0,1.8,0.2v-14.7h3.5v16.7c0.5,0.6,1,1.2,1.3,1.9l0,0
	c0.3,0.6,0.5,1.2,0.6,1.8c0.3-0.2,0.6-0.4,1-0.5c0.1-1.2,0.5-2.4,1.1-3.5l2.6-5.6c0-0.2,0.2-0.4,0.4-0.6v-31.3h-3.5v-17.7h-7.1v-7.1
	h-3.5l3.5-7.1h-10.4l3.5,7.1h-3.5v7.1h-7v17.7h-7.1v7.1h-35.4v-7.1H216V182h-3.6v7.1h-3.5v7.1h-7.1v-53l-3.5,3.5v3.5h-3.5v-14.1
	h-3.5v14.1h-3.5v-49.4l-7.1,3.5V82.9c0-3.9-7.1-6.8-7.1-6.8l1.8-5.3l-1.8-5.3v-3.6l1.8-3.5h-1.8l-1.3-30.8h0.2c0,0,2.1,1.1,3.3,1.5
	s1.7-1.1,0.9-1.4c-0.9-0.4-1.7-0.9-2.5-1.5c9.8-3.7,3.6-13.3,2.9-12.3c-0.4,0.5,1.6,3.3,0.6,6.6c-1,3.5-5.9,4.3-5.9,4.3
	s-4.9-0.8-5.9-4.3c-1-3.3,1-6.1,0.6-6.6c-0.8-1-6.9,8.6,2.9,12.3c-0.8,0.5-1.6,1-2.5,1.5c-0.8,0.3-0.3,1.9,0.9,1.4s3.3-1.5,3.3-1.5
	h0.2L170,58.4h-1.8l1.8,3.5v3.5l-1.8,5.3L170,76c0,0-7.1,2.9-7.1,6.8v21.4l-7.1-3.5v49.5L156.1,150.1z M74.9,174.8h3.5V196h-3.5
	V174.8z M66.4,175.8c3.1,0,5.7,2.5,5.7,5.7s-2.5,5.7-5.7,5.7s-5.7-2.5-5.7-5.7S63.2,175.8,66.4,175.8L66.4,175.8z M127.8,263h-3.5
	v-49.4h3.5V263z M127.8,206.6H89l-7.1-3.5H60.7v-3.5h21.2l7.1,3.5h38.8V206.6z M138.4,263h-3.5v-60h3.5V263z M277.6,175.8
	c3.1,0,5.7,2.5,5.7,5.7s-2.5,5.7-5.7,5.7s-5.7-2.5-5.7-5.7S274.4,175.8,277.6,175.8L277.6,175.8z M265.6,174.8h3.5V196h-3.5V174.8z
	 M216.1,203h38.8l7.1-3.5h21.2v3.5H262l-7.1,3.5H216V203H216.1z M216.1,213.6h3.5V263h-3.5V213.6z M205.6,203h3.5v60h-3.5V203z
	 M149.1,259.6l-3.5,3.5V160.7h3.5V259.6z M144.6,157.1v-3.5h7.9l7.1,1.8v3.5l-7.1-1.8H144.6z M163.2,210.1h-3.5v-45.9h3.5V210.1z
	 M163.2,150.1h-3.5v-24.8h3.5V150.1z M170.2,210.1h-3.5v-45.9h3.5V210.1z M170.2,150.1h-3.5v-24.8h3.5V150.1z M177.3,210.1h-3.5
	v-45.9h3.5V210.1z M177.3,150.1h-3.5v-24.8h3.5V150.1z M184.4,210.1h-3.5v-45.9h3.5V210.1z M180.8,150.1v-24.8h3.5V150h-3.5V150.1z
	 M198.5,263.1l-3.5-3.5v-98.9h3.5v102.5V263.1z M191.4,153.7h7.9v3.5h-7.9l-7.1,1.8v-3.5L191.4,153.7z M170.2,83.1h3.5v17.6h-3.5
	V83.1z M167.9,116.6c0.6,0,1.1-0.5,1-1.1c0-0.2,0-0.5-0.2-0.7c-1-1.3-1.5-2.8-1.6-4.4c-0.3-3.6,2.8-4.3,3.9-4.5s-0.8,1.3-1.6,1.9
	s0.3,1.2,0.3,1.2c0.6-0.7,1.4-1.2,2.3-1.4c0.9,0.1,1.8,0.6,2.3,1.3c0,0,1-0.6,0.2-1.2s-2.7-2.1-1.6-1.9s4.2,0.9,4,4.5
	c0,1.6-0.6,3.1-1.5,4.4c-0.4,0.4-0.3,1.1,0.1,1.5c0.2,0.2,0.4,0.3,0.7,0.2h8.1v3.6h-24.7c0,0.1,0-3.4,0-3.4h8.2H167.9z"/>
<path class="st0" d="M225.5,5c0,0.3,0.2,0.6,0.2,0.9l0,0c0,0.3,0.2,0.6,0.3,0.9s0.2,0.5,0.3,0.8l0,0c0.1,0.4,0.2,0.6,0.4,0.9l0,0
	c0.1,0.4,0.3,0.7,0.5,1l0,0c0.4,0.7,0.9,1.5,1.4,2.1l0,0c0,0.1,0.4,0.7,0.4,0.7l0,0c0.3,0.6,0.7,1,1.1,1.5c0,0,0.1,0.1,0.2,0.2
	l0.5,0.5l0.2,0.2l0.6,0.7l0.6,0.6h0.1c0.2,0.3,0.4,0.5,0.5,0.6l0,0l0.5,0.5l0,0c1.3,0,2.7,0.2,4,0.4c0.5,0,1.1,0.2,1.8,0.4l-0.4-0.4
	c-1,0-2.5-0.1-2.9-0.6c-0.2-0.2-0.2-0.5-0.2-0.7c0.1-0.3,0.6-0.4,1.2-0.4l-1.6-1.6c-1.3,0-3.9-0.3-4.4-1c-0.2-0.2-0.2-0.5-0.1-0.7
	c0.1-0.3,0.2-0.5,2.7-0.2c-0.8-0.9-1.5-1.6-2.1-2.3c-0.8,0-2.1-0.3-2.5-0.8c-0.2-0.2-0.2-0.5-0.1-0.7c0-0.2,0.2-0.3,1-0.3
	c-2.5-3-2.3-3.1-2-3.4s0.5-0.4,3.1,2.4c0-0.8,0.2-0.9,0.4-0.9s0.5,0,0.7,0.2c0.5,0.4,0.6,1.7,0.6,2.5c0.6,0.6,1.4,1.4,2.2,2.2
	c-0.2-2.5,0-2.5,0.3-2.6c0.2,0,0.5,0,0.7,0.1c0.6,0.5,0.8,3,0.9,4.4l0.4,0.4l1.2,1.1c0-0.6,0.1-1.1,0.4-1.2c0.2,0,0.5,0,0.7,0.1
	c0.5,0.4,0.7,1.9,0.8,2.8c1.1,1,2.1,1.9,3,2.6c0.1-0.4,0.2-0.8,0.2-1.3c0-1.1-0.5-2.2-1.1-3.2c-1.2-1.9-2.6-3.6-4.2-5.1
	c-2.3-2.3-4.9-4.3-7.9-5.8c-1.6-0.8-3.3-1.5-5.1-1.9c0,1.2,0.2,2.4,0.5,3.6l0,0L225.5,5z"/>
<path class="st0" d="M203.3,4.2l0.7,0.7c1,0.9,2.1,1.8,3.2,2.5c0.6,0.4,1.2,0.7,1.8,1.1l0,0c0.4,0.2,0.8,0.4,1.2,0.6l1.1-0.3
	c2-0.4,4-0.6,6-0.5l0.4-0.2l-2.1-0.7c-1.2,0.5-3.6,1.5-4.4,1.1c-0.2-0.1-0.4-0.3-0.4-0.6c0-0.3,0-0.5,2.3-1.4
	c-1.1-0.4-2.1-0.8-2.9-1.1c-0.8,0.3-2,0.7-2.5,0.4c-0.2-0.1-0.4-0.3-0.4-0.6c0-0.2,0-0.4,0.7-0.7c-3.6-1.5-3.5-1.8-3.3-2.1
	s0.2-0.6,3.9,0.8c-0.3-0.7-0.2-0.9,0-1C208.8,2,209,2,209.3,2c0.6,0.1,1.2,1.2,1.6,2c0.8,0.3,1.8,0.6,2.9,1
	c-1.2-2.1-1.1-2.3-0.9-2.5c0.2-0.2,0.4-0.2,0.7-0.2c0.8,0.2,2.1,2.4,2.7,3.5l0.5,0.2l1.6,0.5c-0.2-0.6-0.4-1.1-0.2-1.3
	c0.2-0.2,0.4-0.2,0.7-0.2c0.6,0.1,1.4,1.4,1.9,2.2c1.4,0.4,2.7,0.8,3.8,1c0-0.1,0-0.2,0-0.3c-0.1-0.3-0.2-0.6-0.4-0.9
	c-0.6-1-1.4-1.8-2.4-2.3c-1.9-1.2-3.9-2.1-6.1-2.7c-3.1-1.1-6.3-1.7-9.6-1.7c-1.8,0-3.6,0.2-5.4,0.6c0.2,0.3,0.4,0.8,0.8,1.3
	c0.5,0.8,1.2,1.6,1.8,2.3L203.3,4.2z"/>
<path class="st0" d="M223.9,12.9c0.7,0,1.8,1.2,2.4,2c1,0.2,2,0.4,2.9,0.6c-1-1.1-1.8-2.2-2.6-3.4l-0.6-0.2c-1-0.4-2-0.7-3-0.9
	s-2.1-0.4-3.1-0.5c-2.2-0.3-4.4-0.3-6.6,0c-0.8,0.1-1.6,0.3-2.4,0.5l0,0c-0.2,0-0.5,0.1-0.7,0.2c-0.4,0.1-0.9,0.3-1.2,0.4
	c-1.9,0.7-3.5,1.8-4.9,3.3c0.9,0.4,2.6,1.2,5.1,2.1c3.1,1.1,6.4,1.9,9.7,2.3c1,0.1,1.9,0.2,2.7,0.3l0.5-0.2c2-0.9,4.1-1.5,6.2-1.8
	h0.4L226,17c-0.9,0.5-2.2,1.2-2.9,1.1c-0.2,0-0.4-0.3-0.5-0.5c0-0.3,0.3-0.7,0.8-1.1c-0.8-0.1-1.6-0.3-2.3-0.4
	c-1.2,0.7-3.3,2.1-4.1,2c-0.3,0-0.5-0.2-0.6-0.5c0-0.3-0.2-0.5,1.9-1.9c-1.2-0.1-2.3-0.3-3.2-0.3c-0.7,0.5-1.8,1.2-2.4,1.1
	c-0.3,0-0.5-0.2-0.6-0.4c0-0.2-0.1-0.4,0.5-0.9c-2-0.1-3-0.1-3.5-0.2s-0.5-0.2-0.5-0.4s0-0.4,0.5-0.5c1.2-0.2,2.4-0.3,3.6-0.2
	c-0.6-0.6-0.5-0.8-0.4-0.9c0.1-0.2,0.4-0.4,0.6-0.4c0.7,0,1.7,0.8,2.4,1.4c1,0,2,0.1,3.3,0.2c-1.8-1.8-1.8-2-1.6-2.3
	c0.2-0.2,0.4-0.3,0.7-0.3c0.9,0,2.9,1.9,3.8,2.9h0.6l1.8,0.3c-0.4-0.5-0.6-1-0.4-1.2c0.1-0.2,0.4-0.4,0.7-0.4L223.9,12.9z"/>
<path class="st0" d="M196.6,11.1c5.7,0.8,8.2,0,9.4-0.8c0.3-0.2,0.6-0.5,0.9-0.9c-1.3-0.3-2.6-0.5-3.7-0.7c-0.8,0.5-2,1.2-2.6,1
	c-0.2,0-0.4-0.2-0.5-0.4c0-0.3,0.2-0.6,0.7-1c-0.7-0.1-1.5-0.2-2.1-0.3c-1.1,0.7-3.1,2-3.9,1.8c-0.2,0-0.4-0.2-0.5-0.4
	c0-0.3-0.1-0.5,1.8-1.7l-3-0.4c-0.6,0.4-1.7,1.1-2.2,0.9c-0.2,0-0.4-0.2-0.5-0.4c0-0.2,0-0.3,0.5-0.8c-3.7-0.5-3.7-0.6-3.7-1
	s0-0.6,3.8-0.3c-0.5-0.6-0.4-0.7-0.3-0.9c0.1-0.2,0.4-0.3,0.6-0.3c0.6,0,1.5,0.8,2,1.4c0.9,0,1.9,0.2,3,0.3
	c-1.6-1.7-1.6-1.9-1.4-2.1c0.1-0.2,0.4-0.3,0.6-0.3c0.8,0,2.5,1.8,3.4,2.7h0.5l1.6,0.3c-0.3-0.5-0.5-0.9-0.4-1.1s0.4-0.3,0.6-0.3
	c0.3,0,0.6,0.2,0.8,0.4c-0.4-0.4-0.8-0.8-1.1-1.2s-0.6-0.8-0.9-1.1c-0.7-0.2-1.5-0.3-2.5-0.4c-3.2-0.4-6.6-0.2-9.7,0.6
	c-1.7,0.5-3.3,1.2-4.8,2.1c1.3,1.1,2.8,2,4.4,2.8c2.9,1.4,6,2.3,9.2,2.7L196.6,11.1z"/>
<path class="st0" d="M237.1,19.2h-0.9c-1.1-0.3-2.3-0.4-3.5-0.4h-0.2c-1,0-2,0-2.9,0.1l0,0c-0.3,0-0.6,0-0.8,0.1l0,0
	c-0.6,0-1.1,0.2-1.6,0.3h-0.7c0,0.1-0.2,0.2-0.2,0.2l-0.7,0.3l-0.5,0.2h-0.2l-0.3,0.2h-0.3c0,0.1-0.2,0.2-0.2,0.2h-0.3
	c0,0.1-0.1,0.2-0.1,0.2h-0.3c0,0.1,0,0.1,0,0.1l-0.4,0.2l0,0l-0.4,0.2l0,0l-0.3,0.2c-0.7,0.4-1.4,0.9-2,1.4c1.7,0.9,3.4,1.7,5.2,2.4
	c3.3,1.3,6.7,2.3,10.1,2.9c2.4,0.5,4.8,0.7,7.2,0.7c1.2,0,2.4-0.2,3.5-0.8c0.4-0.2,0.7-0.5,1-0.8c-1.5-0.4-2.9-0.8-4.2-1.1
	c-0.9,0.4-2.4,1.1-3,0.9c-0.3,0-0.5-0.3-0.5-0.5c0-0.3,0.3-0.7,0.9-1c-0.9-0.2-1.7-0.4-2.4-0.5c-1.2,0.7-3.6,1.9-4.4,1.7
	c-0.3,0-0.5-0.2-0.6-0.5c0-0.3-0.2-0.5,2.1-1.8c-1.3-0.2-2.4-0.4-3.4-0.5c-0.7,0.4-1.9,1.1-2.5,1c-0.3,0-0.5-0.2-0.6-0.4
	c0-0.2-0.1-0.4,0.5-0.9c-2.1-0.2-3.2-0.3-3.7-0.5s-0.5-0.3-0.5-0.5s0-0.4,0.5-0.5c1.3-0.1,2.5-0.1,3.8,0c-0.6-0.6-0.5-0.8-0.4-1
	c0.2-0.2,0.4-0.3,0.7-0.3c0.7,0,1.8,0.9,2.4,1.5c1,0.1,2.1,0.2,3.4,0.4c-1.8-1.9-1.8-2.1-1.6-2.4c0.2-0.2,0.5-0.3,0.7-0.3
	c1,0,2.9,2,3.8,3.1h0.6c0.6,0.2,1.2,0.3,1.9,0.5c-0.4-0.5-0.6-1-0.4-1.3c0.2-0.2,0.5-0.3,0.7-0.2c0.7,0,1.8,1.3,2.4,2.1
	c1.6,0.4,3,0.7,4.3,1.1c0-0.5-0.2-0.9-0.5-1.3c-0.4-0.7-1-1.2-1.7-1.7l-0.3-0.2l-0.3-0.2h-0.2l-0.5-0.4l-0.3-0.2h-0.3
	c0-0.1-0.3-0.3-0.3-0.3l0,0c-0.7-0.3-1.4-0.6-2.1-0.8c-1.4-0.5-2.9-0.8-4.4-1.1L237.1,19.2z"/>
<path class="st0" d="M166.8,16.9l2.9,2.1l-1.1,3.4c0,0.1,0,0.2,0.1,0.3c0.1,0,0.2,0,0.3,0l2.9-2.1l2.9,2.1c0,0,0.1,0,0.2,0
	c0,0,0.1,0,0.2,0c0.1,0,0.1-0.2,0.1-0.3l-1.1-3.4l2.9-2.1c0,0,0.1-0.2,0.1-0.3c0-0.1-0.1-0.2-0.3-0.2h-3.6l-1.1-3.4
	c0-0.1-0.2-0.2-0.4-0.2c0,0-0.1,0-0.2,0.2l-1.2,3.4h-3.6c-0.1,0-0.2,0-0.3,0.2c0,0.1,0,0.2,0.1,0.3H166.8z"/>
<path class="st0" d="M245.5,15.2c0.2,0.7,0.4,1.5,0.7,2.3s0.7,1.7,1.2,2.4c0.4,0.6,0.7,1.2,1.2,1.8l0,0c0.6,0.9,1.4,1.8,2.2,2.6
	c0.2,0.2,0.4,0.4,0.6,0.6c1.7,1.8,3.8,3.3,6.1,4.4c1.1,0.5,2.3,0.8,3.5,0.7c0.5,0,0.9-0.2,1.3-0.4l-3.1-2.7c-1,0-2.7,0-3.1-0.5
	c-0.2-0.2-0.3-0.5-0.2-0.8s0.6-0.4,1.3-0.5c-0.6-0.6-1.2-1.1-1.8-1.6c-0.9,0-1.8,0-2.7-0.2c-0.8,0-1.5-0.3-2.1-0.8
	c-0.2-0.2-0.2-0.5-0.1-0.8c0-0.2,0.1-0.3,0.5-0.3c0.8,0,1.6,0,2.4,0.1c-0.5-0.4-0.8-0.9-1.2-1.3s-0.7-0.8-1-1.2
	c-0.9-0.1-2.3-0.4-2.6-1c-0.1-0.2-0.2-0.5,0-0.8c0.1-0.2,0.2-0.3,1.1-0.2l-0.8-1.1c-0.2-0.3-0.4-0.6-0.6-0.9
	c-0.2-0.4-0.4-0.7-0.6-1.1c-0.2-0.5,0-0.6,0.1-0.7s0.4-0.2,0.7,0.1s0.6,0.6,0.8,0.9c0.2,0.2,0.4,0.5,0.6,0.8l0.9,1
	c0.1-0.8,0.3-0.9,0.5-1c0.3,0,0.5,0,0.7,0.2c0.4,0.4,0.5,1.8,0.5,2.6c0.3,0.4,0.7,0.7,1,1.1s0.8,0.8,1.2,1.2c0-0.8,0-1.5,0-2.3
	c0-0.4,0.2-0.4,0.4-0.5c0.2,0,0.5,0,0.7,0.1c0.4,0.6,0.6,1.3,0.6,1.9c0.1,0.9,0.2,1.9,0.3,2.6l0.4,0.4c0.4,0.4,0.9,0.8,1.3,1.2
	c0-0.6,0-1.2,0.4-1.3c0.2,0,0.5,0,0.7,0c0.5,0.4,0.8,1.9,0.9,3l3.3,2.7c0.2-0.4,0.2-0.9,0.2-1.4c-0.1-1.2-0.6-2.4-1.3-3.4
	c-1.3-1.9-2.8-3.7-4.6-5.2c-2.3-2.3-4.9-4.3-7.7-6.1c-0.6-0.3-1-0.7-1.5-1s-1-0.5-1.4-0.8c-0.8-0.5-1.5-0.8-2-1
	c-0.1,0.7-0.2,1.5-0.2,2.2c0,0.6,0,1.1,0.1,1.7c0,0.7,0.1,1.4,0.3,2L245.5,15.2z"/>
<path class="st0" d="M281.2,48.3L281.2,48.3l-0.7-0.4l-0.9-0.4h-0.3c0-0.1-0.6-0.4-0.6-0.4h-0.3c0-0.1-0.6-0.4-0.6-0.4h-0.3
	c0-0.1-0.6-0.3-0.6-0.3h-0.3c-0.2-0.2-0.5-0.2-0.7-0.3h-0.2c-0.8-0.3-1.7-0.5-2.6-0.6h-0.7c-0.3-0.1-0.6-0.2-1-0.2h-0.1
	c-0.6,0-1.2,0-1.8,0h-1c-0.7,0-1.5,0.2-2.2,0.3c-0.6,0.1-1.2,0.3-1.8,0.5l-0.5,0.2l0,0l-0.4,0.2l-0.4,0.2c-0.4,0.2-0.7,0.4-0.9,0.5
	l0.7,0.7l1,1c0.4,0.4,0.8,0.8,1.2,1.2s1,0.9,1.5,1.3c2.8,2.3,5.8,4.4,9,6c2.2,1.2,4.5,2.2,6.9,2.8c1.1,0.3,2.3,0.4,3.4,0.2
	c-0.4-0.9-0.7-1.7-1-2.6l-1-0.6c-1.1,0.2-2.8,0.6-3.4,0.1c-0.2-0.2-0.4-0.4-0.4-0.7c0-0.4,0.6-0.6,1.2-0.9c-0.8-0.4-1.5-0.9-2.2-1.3
	c-0.7,0.2-1.8,0.5-2.8,0.7c-0.7,0.2-1.5,0.2-2.2,0c-0.2-0.2-0.4-0.4-0.4-0.7c0-0.4,0-0.6,2.8-1.4c-1.2-0.6-2.2-1.1-3.2-1.5
	c-0.9,0.3-2.3,0.7-2.9,0.4c-0.2-0.1-0.4-0.4-0.4-0.6c0-0.2,0-0.4,0.8-0.8c-2-0.9-3-1.2-3.5-1.6s-0.4-0.5-0.4-0.7s0.1-0.4,0.7-0.4
	c1.3,0.2,2.6,0.5,3.8,1c-0.4-0.9-0.3-1,0-1.2c0.2-0.2,0.5-0.3,0.8-0.2c0.7,0.2,1.5,1.5,1.9,2.4c1,0.4,2.1,0.9,3.3,1.5
	c-1.2-2.7-1.1-2.8-0.8-3.1c0.2-0.2,0.6-0.2,0.9-0.1c0.7,0.4,1.2,1.1,1.5,1.9c0.5,0.9,0.8,1.8,1.2,2.7l0.6,0.3
	c0.6,0.3,1.2,0.6,1.7,0.9c-0.1-0.7-0.2-1.3,0-1.5s0.6-0.2,0.8,0l0,0c-0.1-1-0.2-1.9-0.3-2.7l-0.4-0.2l0,0l-0.6-0.4l0,0l-0.4-0.2
	l-0.7-0.3L281.2,48.3z"/>
<path class="st0" d="M285,48.2c0,0.9,0,1.8,0.2,2.8c0.2,1.7,0.6,3.4,1.1,5l0.3,0.9l0,0c0,0.3,0.2,0.6,0.3,0.8l0,0
	c0.1,0.4,0.2,0.6,0.3,0.9c0,0,0,0,0,0.1c0.1,0.3,0.2,0.5,0.4,0.8c0,0,0,0.1,0.1,0.2c0.1,0.3,0.2,0.5,0.4,0.8s0.3,0.6,0.4,0.8
	l0.3,0.6l0.3,0.5c0.4,0.6,0.7,1.2,1.1,1.8c1.4,0,2.8,0,4.2,0.4c0.9-0.2,1.8-0.2,2.7,0c-0.7-1.2-1.4-2.5-2-3.8
	c-1.3-0.4-2.6-0.8-3.9-1.3c-1.4-0.6-2.6-1.2-2.8-1.8c0-0.3,0-0.5,0.1-0.7c0.2-0.2,0.5-0.2,1-0.1c0.3,0,0.8,0.2,1.5,0.4
	s1.6,0.5,2.8,0.9c-0.9-1.8-1.7-3.4-2.3-4.7c-1.2-0.4-4-1.5-4.3-2.3c-0.1-0.2,0-0.5,0.1-0.7c0.3-0.4,1.7,0,2.9,0.4
	c-0.9-1.9-1.6-3.8-2.2-5.7c-0.2-0.9,0-0.9,0.2-1s0.4-0.2,0.9,0.6s1.1,2.3,2.6,5.4c0.4-1.1,1.1-2.3,1.6-2.4c0,0,0.3-0.2,0.6,0.3
	c0.5,0.7-0.5,3.4-0.9,4.6c0.7,1.3,1.5,2.9,2.4,4.6c0.3-1.2,0.6-2.1,0.8-2.8c0.2-0.5,0.3-1,0.6-1.4c0.3-0.6,0.5-0.6,0.7-0.6
	c0,0,0.3-0.1,0.6,0.3s0.1,1.7-0.2,3.2s-0.8,3-1.1,3.9c0.7,1.3,1.4,2.5,2.1,3.7c0.5-1,1.2-2.3,1.7-2.4c0,0,0.3-0.2,0.7,0.3
	s0.2,0.9-0.9,3.9l-0.2,0.4l0.7,1.2c1,0.5,2,1.2,2.9,1.9c0.1-0.3,0.3-0.5,0.4-0.8c0.4-1.5,0.5-3.2,0.1-4.8c-0.7-3-1.8-5.8-3.4-8.5
	c-2.1-4-4.9-7.7-8.3-10.7c-0.6-0.6-1.3-1.1-1.9-1.6s-1.2-0.9-1.7-1.2c-1-0.7-2-1.2-2.5-1.6c-0.4,0.9-0.7,1.8-0.9,2.7
	c-0.2,0.7-0.3,1.4-0.4,2.2s-0.2,1.7-0.2,2.6L285,48.2L285,48.2L285,48.2z"/>
<path class="st0" d="M303.7,71.6h-0.1c-0.2-0.3-0.5-0.5-0.7-0.7s-0.5-0.4-0.8-0.6h-0.2c0-0.1-0.6-0.6-0.6-0.6h-0.1l-0.7-0.5l0,0
	l-0.8-0.5c-2.4-1.3-5-2.1-7.7-2.3h-2.3c-0.6,0-1.2,0.1-1.7,0.3c-0.5,0.1-0.9,0.3-1.4,0.4c-0.3,0.1-0.7,0.3-1,0.4
	c0.6,0.9,1.8,2.7,3.4,4.9c2,2.7,4.4,5.2,7.1,7.3c1.8,1.5,3.8,2.8,5.9,3.8c1.1,0.6,2.4,0.8,3.7,0.7h0.3c0-0.5-0.1-0.9-0.1-1.4v-0.5
	c-0.5-0.6-1.1-1.1-1.6-1.6c-1.1,0-2.9,0.1-3.3-0.4c-0.2-0.2-0.2-0.5,0-0.8c0.1-0.3,0.7-0.6,1.4-0.7c-0.6-0.6-1.2-1.1-1.8-1.6
	c-0.8,0.1-1.9,0.2-2.9,0.3s-1.9,0-2.1-0.3c-0.2-0.2-0.3-0.5-0.2-0.8c0-0.2,0.1-0.4,0.5-0.5c0.8-0.3,1.7-0.5,2.5-0.6
	c-1-0.8-1.9-1.4-2.7-2c-0.9,0.2-2.4,0.5-2.9,0c-0.2-0.2-0.3-0.5-0.3-0.7s0.1-0.4,1-0.8l-2-1.3c-0.4-0.2-0.7-0.5-1-0.7
	c-0.4-0.4-0.3-0.5-0.2-0.8s0.2-0.5,0.8-0.4c0.4,0.1,0.8,0.3,1.2,0.4c0.6,0.2,1.3,0.6,2.2,1.1c-0.2-0.9,0-1.1,0.2-1.2
	c0.2-0.2,0.6-0.2,0.8,0c0.7,0.3,1.1,1.8,1.3,2.7c0.9,0.5,1.8,1.2,2.9,2c-0.2-0.9-0.3-1.7-0.3-2.6c0-0.4,0.1-0.5,0.3-0.6
	c0.3-0.1,0.6-0.1,0.9,0c0.6,0.6,0.9,1.3,1,2.1c0.2,1,0.4,2,0.5,3l0.5,0.4l1.5,1.2c0-0.7,0.2-1.4,0.5-1.5s0.6-0.1,0.8,0
	c0.5,0.3,0.7,1.6,0.8,2.7c0-1.1,0.2-2.3,0.5-3.4c0-0.3,0.1-0.6,0.2-1c-0.6-0.7-1.3-1.4-2-2l-0.7-0.6L303.7,71.6z"/>
<path class="st0" d="M263.2,36.8c0.7,0.2,1.4,1.8,1.7,2.8c1.4,0.8,2.8,1.5,3.9,2.2c0-0.5,0-1,0-1.4c-0.4-1.2-1.1-2.3-2.1-3.2
	c-1.9-1.8-4.1-3.2-6.5-4.3c-2-1-4.1-1.7-6.3-2.1c-1.1-0.2-2.2-0.4-3.3-0.4h-2.2c-1.9,0-3.9,0.6-5.6,1.5c1.4,1.4,2.8,2.7,4.3,3.9
	c2.7,2.2,5.7,4.1,8.9,5.7c2.1,1.1,4.4,2,6.8,2.6h0.4c0.7-0.2,1.3-0.4,2-0.5c0.7-0.2,1.3-0.3,2-0.3c-1.1-0.7-2.1-1.3-3.1-1.9
	c-1,0.2-2.6,0.5-3.2,0.1c-0.2-0.1-0.4-0.4-0.4-0.7s0.5-0.6,1.1-0.8c-0.8-0.4-1.5-0.8-2.2-1.1c-1.4,0.4-4.1,1.1-4.8,0.6
	c-0.2-0.1-0.4-0.4-0.4-0.6c0-0.4,0-0.6,2.6-1.3c-1.2-0.6-2.2-1-3.1-1.4c-0.9,0.3-2.2,0.6-2.8,0.3c-0.2-0.1-0.4-0.3-0.4-0.6
	c0-0.2,0-0.4,0.8-0.8c-2-0.8-3-1.2-3.4-1.5s-0.4-0.4-0.4-0.6s0.1-0.4,0.7-0.4c1.3,0.2,2.5,0.5,3.7,1c-0.4-0.8-0.3-0.9-0.1-1.1
	c0.2-0.2,0.5-0.2,0.8-0.2c0.7,0.2,1.5,1.4,1.9,2.2c0.9,0.4,2,0.8,3.2,1.4c-1.2-2.5-1.1-2.6-0.8-2.8c0.2-0.2,0.5-0.2,0.8-0.1
	c0.9,0.3,2.2,2.9,2.7,4.2l0.5,0.3l1.7,0.9c-0.2-0.6-0.2-1.2,0-1.4c0.2-0.1,0.5-0.1,0.7,0L263.2,36.8z"/>
<path class="st0" d="M269.1,36.8L269.1,36.8l0.5,0.9v0.2c0.3,0.3,0.5,0.7,0.7,1c0.1,0.2,0.2,0.3,0.3,0.5s0.2,0.2,0.2,0.4l0,0
	c0,0.2,0.2,0.4,0.3,0.5l0,0l0.3,0.4c0.7,1,1.5,1.9,2.3,2.8c1.8,0.3,3.5,0.8,5.1,1.5c-0.6-0.8-1.1-1.6-1.6-2.3
	c-1-0.2-2.6-0.7-2.9-1.3c-0.1-0.2-0.1-0.5,0-0.8c0.2-0.3,0.7-0.3,1.4-0.2c-0.5-0.7-0.9-1.4-1.3-2c-1.4-0.4-4-1.2-4.4-2
	c-0.1-0.2-0.1-0.5,0-0.8c0.2-0.3,0.3-0.4,2.8,0.4c-0.6-1.1-1.2-2-1.7-2.9c-0.8-0.3-2.1-0.8-2.4-1.4c-0.1-0.2,0-0.5,0-0.8
	c0.1-0.2,0.3-0.3,1.1,0c-0.6-1.1-1.1-2.2-1.5-3.3c-0.1-0.5,0-0.6,0.2-0.7s0.4-0.2,0.7,0.2c0.7,1,1.3,2,1.9,3
	c0.2-0.8,0.4-0.9,0.6-0.9c0.3,0,0.5,0.1,0.7,0.3c0.4,0.5,0.2,1.9,0,2.7c0.5,0.8,1.1,1.7,1.8,2.8c0.4-2.6,0.6-2.6,1-2.7
	c0.3,0,0.5,0,0.7,0.3c0.5,0.7,0.1,3.3-0.1,4.7l0.3,0.5l1,1.5c0.2-0.6,0.4-1.1,0.7-1.2c0.3,0,0.5,0,0.7,0.3c0.5,0.5,0.3,2.1,0.2,3.1
	c0.9,1.2,1.8,2.4,2.5,3.3c0.2-0.4,0.4-0.8,0.5-1.3c0.1-1.2,0-2.4-0.4-3.5c-0.8-2.2-1.9-4.3-3.2-6.2c-1.8-2.9-4.1-5.6-6.7-7.8
	c-1.5-1.3-3.1-2.3-4.8-3.2c-0.4,1.9-0.5,3.9-0.3,5.8c0.4,2.8,1.2,5.6,2.5,8.1L269.1,36.8z"/>
<path class="st0" d="M319.9,191.8c0.8-2.1,1.8-4.2,2.9-6.2c1-1.9,2.2-3.8,3.5-5.6v-0.8c0.2-1.5,0.2-2.9,0-4.4c0-0.7-0.1-1.3-0.2-1.9
	c0-0.2,0-0.4-0.1-0.6l0,0c0-0.5-0.2-0.9-0.3-1.4s-0.3-1-0.4-1.5c0-0.3-0.2-0.6-0.3-0.9l0,0c-0.1-0.4-0.2-0.7-0.3-1
	c-0.4-1-0.8-1.9-1.3-2.8c-0.1-0.3-0.3-0.5-0.5-0.8v-0.2c-0.1,0-0.5-0.6-0.5-0.6s0,0,0-0.1c-0.3-0.5-0.6-0.9-1-1.3
	c-0.9-1.2-2-2.3-3.2-3.2c-0.3,0.4-0.8,1-1.4,1.9l-0.4,0.5c-0.1,0.2-0.3,0.4-0.4,0.6l0,0c-0.1,0.3-0.3,0.6-0.5,0.8
	c-0.5,0.8-1,1.7-1.5,2.7c-2.1,4.1-3.3,8.5-3.7,13c0,1-0.1,2-0.1,2.9l0.2-0.2l0.7-0.5l0.7,0.5c0.7,0.5,1.3,1,2,1.6s1.3,1.3,1.9,2
	c0.2,0.2,0.3,0.4,0.5,0.6l0.4,0.3c0.2-1.4,0.4-2.8,0.5-4.2c-0.7-0.7-1.9-2-3-3.2s-1.9-2.3-1.8-2.8c0,0,0-0.5,0.5-0.5s0.4-0.1,1,0.3
	c1.3,1,2.4,2.1,3.5,3.3c0-1,0.2-1.9,0.2-2.8s0-1.7,0.1-2.4c-0.5-0.5-1.4-1.2-2.1-2s-1.2-1.5-1.2-1.9c0,0,0-0.4,0.5-0.5
	s1.8,0.7,2.8,1.5c0.1-6.9,0.1-7,0.8-7s0.9,0,1.1,7c1-0.8,2.3-1.7,2.8-1.5c0,0,0.6,0,0.5,0.6c-0.2,0.7-0.6,1.4-1.2,1.9
	c-0.4,0.4-0.7,0.7-1.1,1.1s-0.7,0.6-1,0.9c0,0.8,0,1.6,0,2.5s0,1.8-0.1,2.8c2.1-1.7,3.2-2.6,3.8-3s0.8-0.3,1.1-0.2
	c0,0,0.4,0,0.5,0.6s-0.9,1.7-2.1,2.8c-1.1,1-2.3,1.9-3.5,2.8c-0.1,1.5-0.3,2.9-0.4,4.3c1.1-0.5,2.6-1.1,3.2-0.9c0,0,0.4,0,0.4,0.6
	s-0.4,1-3.5,2.6l-0.5,0.3v0.2c0.4,0.8,0.8,1.6,1.2,2.4c0.1,0.4,0.2,0.7,0.4,1.1L319.9,191.8z"/>
<path class="st0" d="M18.6,210c0.5,0.1,0.9,0.3,1.4,0.4c0.7,0.2,1.4,0.5,2.2,0.8l-1-1.7C20.4,209.8,19.5,210,18.6,210z"/>
<path class="st0" d="M11.6,203.7c1.4,1.4,3.1,2.5,5.1,3c1,0.2,2,0.2,3,0c-0.9-1.6-1.9-3.4-3-5.5h-0.6c-3.7-1-4.3-1.1-4.6-1.9
	s0.1-0.9,0.1-0.9c0.4-0.5,2.1-0.3,3.4-0.1c-0.8-1.5-1.6-3.1-2.5-4.7c-2.2-0.7-7.6-3-8-3.9s0.4-1.2,1.2-1.1c1.7,0.5,3.4,1,5.1,1.7
	c-1.1-2.2-2.1-4.1-2.9-5.8c-1.5-0.5-4.8-1.9-5.1-2.8s0.2-0.9,0.2-0.9c0.4-0.4,2,0,3.4,0.4c-1.1-2.2-2.1-4.6-2.9-6.9
	c-0.3-1-0.1-1.1,0.2-1.2s0.5-0.2,1,0.7s1.5,2.8,3.4,6.7c0.5-1.4,1.2-2.9,1.8-2.9c0.3,0,0.6,0.1,0.8,0.4c0.6,0.8-0.4,4.2-0.9,5.7
	c0.9,1.6,1.8,3.5,3,5.7c0.4-1.7,0.9-3.5,1.6-5.1c0.3-0.7,0.1-0.7,0.8-0.8s0.8,0.4,0.8,0.4c0.8,1.1-0.8,6.5-1.4,8.7
	c0.9,1.6,1.7,3.1,2.6,4.6c0.5-1.2,1.4-2.8,2-2.8c0.3,0,0.6,0,0.8,0.4c0.4,0.6,0.3,1.1-1,4.7l-0.2,0.6c1.1,2,2.2,3.8,3.1,5.4l0.2-0.2
	c-0.2-3.3,0-6.6,0.9-9.7v-0.3l0,0c-0.1-0.3-0.2-0.7-0.3-1l0,0c-0.1-0.4-0.2-0.7-0.4-1.1l0,0c-0.3-0.8-0.6-1.6-1-2.4
	c-0.5-1.2-1.2-2.6-2-4l-0.5-0.9l0,0c-0.9-1.7-2-3.3-3.1-4.9c-2-2.8-4.3-5.4-6.9-7.6c-0.8-0.7-1.6-1.4-2.4-2s-1.4-1.1-2.1-1.5
	c-0.9-0.6-1.9-1.2-2.9-1.7c-0.4,1.1-0.7,2.3-0.9,3.5c-0.3,1.9-0.5,3.9-0.4,5.8c0.3,5.9,1.9,11.7,4.7,16.9c1.7,3.5,4,6.8,6.8,9.5
	L11.6,203.7z"/>
<path class="st0" d="M32,237.2c-1.5-1.4-3-2.8-4.4-4.2l0,0c-1.7,0.2-3.4,0.4-5.1,0.5c-1.4,0-2.8,0-4.1-0.2c-0.7-0.1-0.8-0.3-0.9-0.5
	s-0.1-0.5,0-0.8c0.1-0.2,0.2-0.4,1.3-0.6c0.5,0,1.2-0.2,2.3-0.3l4.3-0.3c-1.9-2-3.5-3.8-4.8-5.4c-1.2,0-2.4,0-3.6,0
	c-1.2-0.1-2.1-0.3-2.4-0.7c-0.2-0.2-0.2-0.5,0-0.7c0-0.1,0.2-0.3,0.8-0.4c1.1-0.2,2.3-0.3,3.4-0.2c-1.5-1.8-2.9-3.8-4-5.9
	c-0.4-0.9-0.2-1.1,0-1.3s0.5-0.3,1.2,0.4s2,2.3,4.6,5.2c0.2-1.1,0.5-2.3,1-3.3c0.2-0.5,0.1-0.3,0.6-0.6c0.2-0.2,0.5-0.2,0.7,0l0,0
	c0.3,0.2,0.3,1.2,0.1,2.4s-0.4,2.5-0.5,3.5c1.3,1.4,3,3.1,4.9,5c0.2-1.8,0.4-3.2,0.6-4.2c0.1-0.8,0.3-1.5,0.5-2.2
	c0.3-1,0.5-1.1,0.7-1.2c0.2-0.1,0.5-0.1,0.7,0c0.1,0,0.3,0.2,0.4,0.8c0,1.3,0,2.6-0.1,3.9c-0.1,1.7-0.3,3.6-0.5,5l0,0
	c1.3,1.2,2.7,2.4,4,3.5c0.2-0.5,0.5-1,0.8-1.4c0.2-1.5,0.6-2.9,1-3.1c0.2-0.1,0.5-0.1,0.7,0l0,0l1.2-2l0.8-1.4l-0.2-0.2l0,0
	l-0.4-0.5l0,0l-0.4-0.6h-0.1c0-0.1-0.4-0.6-0.4-0.6h-0.1c-0.1-0.3-0.3-0.4-0.4-0.6l-0.2-0.2l-0.4-0.5l-0.2-0.2
	c-0.2-0.2-0.4-0.4-0.6-0.6l-0.3-0.2c-2-1.9-4.2-3.6-6.5-5l-0.3-0.2l-0.9-0.5h-0.2l-0.8-0.5l0,0l-0.8-0.4l0,0l-0.9-0.4
	c-1.1-0.5-2.1-0.9-3.1-1.3c-1.8-0.7-3.7-1.3-5.6-1.8c-0.8-0.2-1.5-0.4-2.1-0.5s-1.1-0.2-1.4-0.3c-0.1,0.4-0.3,0.9-0.5,1.6
	c-0.2,0.7-0.4,1.5-0.5,2.3c-0.3,2.1-0.4,4.3,0,6.4c0.4,2.8,1.2,5.6,2.4,8.1c1.5,3.2,3.6,6.1,6.1,8.5c3.9,3.9,7.3,5.9,10.1,6.8
	c0.4,0.1,0.8,0.2,1.2,0.3c0-1.8,0.4-3.5,0.9-5.2c-1.9,0.3-3.8,0.3-4.1-0.2c-0.2-0.2-0.2-0.5,0-0.8c0.3-0.8,2.8-1.4,4.9-1.8L32,237.2
	z"/>
<path class="st0" d="M38.7,246.2c0.1-0.3,0.2-0.5,0.4-0.8c0,0,0-0.2,0.1-0.3s0.2-0.4,0.3-0.7v-0.2c0.3-0.3,0.4-0.6,0.6-0.9
	c0,0,0-0.1,0.1-0.2l0.4-0.7l0.2-0.3l0.4-0.7c0,0,0-0.1,0.1-0.2l0.5-0.9c0-0.1,0.1-0.2,0.2-0.3l0.4-0.7l0.2-0.3
	c0.2-0.3,0.3-0.6,0.5-0.9c4.3-7.8,8.8-15.9,6.1-22.3l-1.8-5.5c0,0.3-0.1,0.7-0.2,1c0,0,0,0.2,0,0.3l-0.2,0.8v0.2
	c0,0.3-0.2,0.7-0.3,1c0,0,0,0.2,0,0.3c0,0.2-0.2,0.5-0.2,0.8v0.4c-0.2,0.3-0.3,0.5-0.4,0.8v0.3c-0.2,0.3-0.3,0.6-0.5,0.9l-0.2,0.4
	l-0.2,0.6c0,0.1-0.1,0.3-0.2,0.5s-0.2,0.5-0.3,0.7l-0.3,0.7c0,0.1-0.1,0.3-0.2,0.4l-0.3,0.6c0,0,0,0.2-0.1,0.3
	c-1.3,2.5-2.7,5-4.1,7.4c-0.8,1.4-1.6,2.8-2.4,4.2c-0.5,0.9-0.9,1.7-1.4,2.5l0,0l-0.4,0.8l0,0c-0.5,1.1-1,2.2-1.4,3.2
	c-0.8,1.9-1.2,3.8-1.2,5.8v1c0,0.1,0,0.2,0,0.3c0,0,0,0,0,0.1c0.1,0.5,0.3,1.1,0.6,1.6l0,0l0.2,0.4l0.2,0.3l3.1,4.7l0,0
	c0-0.2,0-0.5,0-0.7v-0.2c0-0.2,0-0.4,0.1-0.6v-0.2c0-0.3,0.1-0.5,0.2-0.8c0,0,0-0.1,0-0.2c0-0.2,0.1-0.4,0.2-0.7V250
	c0,0,0.1-0.5,0.2-0.7l0,0c0-0.4,0.2-0.7,0.3-1v-0.2c0.2-0.2,0.3-0.4,0.3-0.6v-0.2c0.2-0.3,0.4-0.6,0.5-0.9H39L38.7,246.2z"/>
<path class="st0" d="M39.1,221.5c1-0.4,2-1.1,2.7-1.9l0,0c1.4-2.6,2.4-5.4,3.1-8.2c0.1-2.3,0-4.7-0.4-7c-0.8-5.2-2.7-10.2-5.8-14.5
	c-1.1-1.5-2.2-3-3.5-4.3c-0.5-0.6-1-1-1.4-1.4h-0.1c-0.4-0.4-0.6-0.7-0.9-0.9c-0.3,0.2-0.7,0.6-1.1,1s-0.9,0.9-1.4,1.5
	c-0.6,0.7-1.1,1.4-1.6,2.1c-0.2,0.4-0.5,0.7-0.7,1.1c-0.1,0.2-0.3,0.5-0.4,0.8l0,0c-0.1,0.3-0.3,0.5-0.4,0.8s-0.3,0.7-0.5,1
	c0,0,0,0,0,0.1c-0.1,0.3-0.3,0.7-0.4,1c0,0.1-0.1,0.3-0.2,0.4c-0.2,0.6-0.4,1.3-0.6,2c0,0,0,0.1,0,0.2c0,0.2-0.1,0.4-0.2,0.6l0,0
	c-0.2,0.9-0.3,1.6-0.4,2.4l0,0c0,0.3,0,0.6-0.1,0.8l0,0c-0.1,1.3-0.2,2.4-0.2,3.6l0,0v1l0,0c0,0.9,0.1,1.9,0.2,2.9l0,0v0.4
	c0.2,1.9,0.6,3.8,1.2,5.7c0.6,0.3,1.2,0.6,1.8,0.9c2.7,1.4,5.2,3.2,7.4,5.2c-0.1-0.7-0.2-1.5-0.4-2.2c-1.9-1-5.3-2.9-5.3-3.8
	c0-0.2,0.2-0.5,0.4-0.6c0.6-0.3,2.8,0.7,4.4,1.6c-0.3-1.8-0.5-3.7-0.8-5.6l0,0c-1.2-0.6-2.6-1.6-3.9-2.5c-3.4-2.4-3.3-2.9-3.3-3.2
	s0.2-0.5,0.4-0.6c0.2-0.1,0.4-0.2,1.3,0.2s2.3,1.3,5.2,3.2c-0.2-1.3-0.3-2.5-0.4-3.6s-0.2-2.1-0.3-3c-0.9-0.6-1.8-1.2-2.6-1.9
	c-0.9-0.7-1.5-1.4-1.4-1.8c0-0.2,0.2-0.4,0.4-0.5c0.2,0,0.6-0.2,3.5,1.7c0-1.9-0.1-3.3-0.1-4.3s0-1.8,0.1-2.2c0.1-0.9,0.3-1,0.6-1
	s0.5,0,0.8,0.9c0.2,0.7,0.3,1.5,0.4,2.2c0.1,1,0.3,2.4,0.5,4.2c2.5-2.4,2.8-2.4,3.2-2.2c0.2,0,0.4,0.2,0.5,0.4
	c0.1,0.4-0.4,1.1-1.1,2s-1.6,1.7-2.2,2.4c0.1,0.9,0.2,1.9,0.4,3s0.3,2.2,0.5,3.5c1.3-1.5,2.7-2.9,4.3-4.3c0.7-0.6,0.9-0.5,1.2-0.5
	c0.2,0,0.4,0.2,0.5,0.4c0.1,0.3,0.2,0.7-2.4,3.7c-1,1.2-2.2,2.5-3.1,3.4l0,0c0.3,1.9,0.6,3.7,1,5.5c1.3-1.4,3-3,3.7-2.9
	c0.2,0,0.4,0.2,0.5,0.4c0.3,0.8-2.3,3.6-3.7,5.2c0.4,1.9,0.8,3.7,1.1,5.3L39.1,221.5z"/>
<path class="st0" d="M20.4,102.2c0.2,0.4,0.4,0.8,0.7,1.2c0.7-1.3,1.5-2.9,2.3-4.5l-0.2-0.4c-1.1-2.8-1.3-3.3-1-3.8s0.6-0.4,0.6-0.4
	c0.5,0,1.2,1.2,1.7,2.2c0.6-1.3,1.2-2.6,1.8-4c-0.3-0.9-0.8-2.4-1.2-3.8s-0.6-2.7-0.4-3.1s0.6-0.4,0.6-0.4c0.2,0,0.4,0,0.7,0.6
	c0.6,1.3,1.1,2.6,1.5,4c0.8-1.9,1.5-3.5,2-4.9c-0.5-1.2-1.5-3.8-1.2-4.5s1.7,0.7,2.2,1.7c1.2-3.3,1.7-5,2-5.9s0.5-0.8,0.7-0.7
	s0.4,0,0.3,1c-0.4,2.1-0.9,4.1-1.6,6.1c1-0.5,2.3-1.1,2.7-0.8c0.2,0.2,0.3,0.4,0.2,0.7c-0.2,0.9-2.7,2.4-3.8,2.9
	c-0.5,1.5-1.2,3.1-1.9,5.1c1.3-0.7,2.6-1.4,4-1.9c0.4-0.1,0.7-0.1,0.9,0c0.2,0.2,0.2,0.5,0.1,0.7c-0.1,0.6-1.3,1.4-2.6,2.2
	c-1.2,0.7-2.4,1.3-3.6,1.8c-0.6,1.4-1.2,2.7-1.8,4c1-0.3,2.5-0.6,2.8-0.1c0.2,0.2,0.2,0.5,0.1,0.7c-0.2,0.6-0.6,0.8-3.6,1.8h-0.5
	c-0.8,1.9-1.6,3.5-2.3,4.8c0.3,0,0.5,0,0.8,0c0.8-1.2,1.7-2.4,2.6-3.5c0.6-0.7,1.3-1.4,1.9-2c0.3-0.3,0.6-0.6,1-0.9s0.6-0.5,1-0.8
	c1-0.8,2-1.5,3.1-2.1c0.4-0.7,0.7-1.5,1.1-2.4c0.8-2,1.5-4,1.9-6.1c0-0.1,0-0.3,0-0.4v-0.5c0-0.1,0-0.3,0.2-0.5v-0.4
	c0-0.2,0-0.3,0.1-0.5s0-0.2,0-0.3v-0.5c0,0,0-0.1,0-0.2c0-1,0.1-1.9,0.1-2.8s0-1.8-0.1-2.6s-0.2-1.4-0.3-2c0-0.2-0.1-0.5-0.2-0.7
	c0,0,0-0.1,0-0.2s0-0.3-0.1-0.5v-0.2c0-0.1-0.1-0.3-0.2-0.4v-0.2c-0.1-0.2-0.2-0.4-0.2-0.6s-0.2-0.6-0.3-0.9s-0.2-0.5-0.3-0.7
	c-0.2-0.3-0.3-0.7-0.6-1c-0.5,0.4-1.2,1.1-2,2s-1.9,2-3,3.4c-2.9,3.6-5.2,7.5-6.9,11.8c-1.3,2.8-2.2,5.8-2.8,8.9
	c-0.2,1.4-0.2,2.8,0,4.1c0.3,0.5,0.6,1,0.9,1.5L20.4,102.2z"/>
<path class="st0" d="M22.6,136h-0.1c0,0.1-0.4,0.6-0.4,0.6c-0.1,0.1-0.2,0.2-0.3,0.3l-0.3,0.3c-0.2,0.2-0.4,0.5-0.6,0.8
	s-0.4,0.5-0.6,0.8c0,0.1-0.2,0.2-0.2,0.4s-0.2,0.3-0.3,0.4l-0.3,0.5l-0.2,0.3c-0.1,0.2-0.2,0.4-0.3,0.6c-0.3,0.6-0.6,1.2-1,1.9
	c-0.2,0.4-0.4,0.8-0.5,1.2l0,0c-0.2,0.4-0.3,0.8-0.5,1.3s-0.3,0.8-0.4,1.2c-1.2,3.6-1.6,7.4-1,11.1l0,0c0,0.3,0,0.5,0.1,0.7l0,0
	c0,0.3,0.1,0.5,0.2,0.7l0,0c0.1,0.4,0.3,0.8,0.4,1.1c0.4,0.9,0.9,1.7,1.5,2.3c0.3,0.3,0.7,0.6,1.1,0.9c0.4-0.7,0.8-1.3,1.2-1.8
	c0,0,0.1-0.2,0.2-0.3c0-0.9,0.2-1.9,0.3-2.9l-0.4-0.4c-0.8-0.8-1.5-1.7-2.1-2.6c-0.3-0.3-0.4-0.7-0.2-1.1c0-0.6,0.6-0.6,0.6-0.6
	c0.3,0,0.7,0.2,1.2,0.6l0,0c0.5,0.4,0.9,0.8,1.4,1.3c0-0.4,0.1-0.7,0.2-1.1c0.2-1.1,0.5-2.3,0.8-3.5c-0.8-1.3-1.4-2.6-2-4
	c-0.6-1.5-1-3.1-0.6-3.7s0.7-0.5,0.7-0.5c0.2,0,0.4,0,0.8,0.7c0.2,0.3,0.4,0.8,0.8,1.5s0.8,1.7,1.4,2.9c0.6-1.8,1.2-3.6,2-5.3
	c-0.4-0.9-0.7-1.8-0.9-2.8c-0.3-0.8-0.3-1.6,0-2.4c0.4-0.5,0.7-0.3,0.7-0.3c0.5,0,1.1,1.5,1.5,2.7c0.7-1.3,1.5-2.5,2.3-3.7
	c0.3-0.4,0.6-0.8,0.8-1.1l0.6-0.7c0.7-0.7,0.8-0.5,1.1-0.4s0.4,0.3,0,1.1l-0.4,0.8c-0.2,0.3-0.4,0.7-0.7,1.1c-0.5,0.9-1.2,2.1-2,3.7
	c1.2-0.3,2.7-0.5,3.1,0s0.1,0.7,0.1,0.7c-0.1,0.4-0.9,0.8-1.8,1.1s-2,0.7-2.6,1c-0.7,1.7-1.3,3.4-1.8,5.2c1.2-0.6,2.1-1.1,2.7-1.4
	c0.5-0.2,1-0.4,1.5-0.5s0.8-0.1,1,0.1c0.2,0.2,0.3,0.4,0.2,0.7c-0.1,0.5-1.2,1.2-2.6,2l-3.7,2.1c-0.3,1.5-0.6,3-0.8,4.4
	c1.1-0.5,2.7-1,3.1-0.8c0.2,0.1,0.4,0.4,0.4,0.6c0,0.2,0,0.3-0.1,0.4l0.2,0.2c0.5,0.5,1,1,1.4,1.5l0.3,0.3c1.1-2.4,1.9-5,2.6-7.5
	c0.7-2.6,1.3-4.9,1.7-7s0.7-4.1,0.9-5.9c0.5-3.5,0.8-6.4,0.8-7.6c-1.1,0-2.1,0.2-3.2,0.4c-0.4,0-0.7,0.2-1.1,0.3s-0.8,0.3-1.2,0.4
	s-0.8,0.4-1.3,0.6s-0.9,0.5-1.3,0.8c-1.2,0.7-2.3,1.6-3.2,2.6l-0.4,0.5L22.6,136z"/>
<path class="st0" d="M10.5,132.6L10.5,132.6c1.6,1.5,3,3.1,4.3,4.9c0.1-1.5,0.2-3.1,0.4-4.9l-0.4-0.4c-2.3-2.5-2.6-2.9-2.5-3.5
	s0.5-0.6,0.5-0.6c0.5-0.2,1.7,0.7,2.6,1.5c0-0.8,0-1.6,0.1-2.4v-2.4c-0.2-0.4-0.6-0.9-1.1-1.5s-1-1.3-1.5-1.9
	c-1-1.3-1.8-2.6-1.6-3.1s0.4-0.6,0.4-0.6c0.2,0,0.4-0.2,0.9,0.3c1.1,1.1,2.2,2.3,3.1,3.5c0-2.3,0-4.3,0-6c-1-1.1-3.1-3.4-3-4.2
	s0.4-0.6,0.4-0.6c0.4-0.2,1.6,0.7,2.5,1.6c0-2-0.1-3.5-0.1-4.6s0-1.9,0-2.4c0-1,0.2-1,0.5-1c0.3,0,0.4,0,0.6,1
	c0.1,0.5,0.2,1.2,0.3,2.4s0.2,2.6,0.4,4.6c0.9-1,1.8-2.1,2.4-1.9s0.5,0.6,0.5,0.6c0.2,1-1.8,3.5-2.7,4.6c0,1.7,0.1,3.8,0,6.1
	c1-1.3,2.1-2.5,3.2-3.6c0.5-0.5,0.6-0.5,0.9-0.3c0.2,0.2,0.4,0.4,0.4,0.7c0.1,0.6-0.7,2-1.7,3.3c-0.5,0.7-1,1.3-1.6,1.9
	s-1,1.1-1.3,1.5v2.5c0,0.8,0,1.6,0,2.4c0.9-0.7,2.2-1.6,2.7-1.3c0,0,0.4,0,0.4,0.7s-0.3,1.1-2.8,3.3l-0.4,0.4
	c-0.1,2.1-0.2,4.1-0.3,5.8c0.6-0.1,1.2-0.4,1.7-0.7c0.2-0.3,0.4-0.5,0.6-0.8s0.6-0.8,0.9-1.1l0.4-0.5l0.5-0.5l0.3-0.3
	c0.3-0.6,0.5-1.2,0.8-1.9c0.5-1.3,0.8-2.7,1-4.1c0.3-1.8,0.5-3.6,0.5-5.4v-1.4c0-3.6-0.4-7.2-1.4-10.7c-0.3-1-0.6-1.8-0.9-2.7
	c0-0.3-0.2-0.5-0.3-0.8s-0.3-0.7-0.4-1v-0.2c-0.2-0.3-0.4-0.7-0.5-1c-0.5-1-1-1.8-1.4-2.6l-0.3-0.5l-0.2-0.2l-0.2-0.2l-0.2-0.3l0,0
	c0-0.2-0.2-0.4-0.3-0.5l-0.2-0.2c-0.6-0.8-1.3-1.6-2.1-2.3c-0.3,0.6-0.9,1.6-1.5,2.9c-0.3,0.6-0.6,1.4-0.9,2.1s-0.6,1.7-0.9,2.6
	c-1.5,4.9-2.3,10.1-2.3,15.2c-0.2,3.5,0.1,7,0.8,10.4L10.5,132.6L10.5,132.6z"/>
<path class="st0" d="M30.6,118.2c-0.5,0.2-1.4,0.5-2.9,1l-0.5,0.2c-0.7,1.7-1.2,3.4-1.6,4.7c0.8,0,1.7,0,2.5-0.4
	c1.4-0.8,2.7-1.8,3.8-2.9c1.8-2.2,3.3-4.5,4.6-7.1c1.1-2.1,2.1-4.2,3-6.5c0.8-2,1.4-3.9,1.9-5.6c0.7-2.4,1.2-4.8,1.5-7.2
	c-1,0-2,0-3,0.2c-0.7,0.1-1.5,0.3-2.2,0.5c-0.9,0.3-1.7,0.6-2.5,1l-0.9,0.4l-0.7,0.4l0,0l-0.7,0.4l0,0c-0.2,0.2-0.5,0.3-0.7,0.5l0,0
	c-0.3,0.2-0.5,0.4-0.8,0.6c-0.6,0.4-1.1,0.9-1.7,1.4c-1.2,1.1-2.4,2.4-3.4,3.8l-0.4,0.5l-0.2,0.4l-0.3,0.4l-0.3,0.5l-0.2,0.4
	c-0.2,0.3-0.4,0.6-0.6,0.9l0,0c-0.3,0.7-0.6,1.2-0.8,1.7c0.2,0.5,0.3,0.9,0.4,1.4c0.2,0.8,0.4,1.7,0.6,2.6c0,0.4,0.2,0.8,0.2,1.2
	c0.7,0.6,1.3,1.3,1.7,2.2c0.6-1.3,1.2-2.6,1.9-3.9c-0.4-1.3-0.8-2.7-1-4.1c-0.3-1.5-0.4-3,0-3.4s0.7-0.3,0.7-0.3
	c0.2,0,0.4,0,0.6,0.7c0.2,0.5,0.3,1,0.4,1.5l0.6,2.9c1-1.8,2-3.2,2.9-4.5c-0.2-0.9-0.3-1.8-0.3-2.7c0-1,0-1.8,0.4-2.2
	s0.7-0.2,0.7-0.2c0.5,0.1,0.8,1.5,1,2.7c1.2-1.7,2.6-3.2,4.1-4.6c0.7-0.6,0.8-0.4,1-0.3s0.3,0.3-0.2,1s-1.7,2-3.7,4.8
	c1.2-0.1,2.5-0.1,2.9,0.3s0,0.7,0,0.7c-0.2,0.3-1,0.6-1.9,0.8s-1.9,0.4-2.6,0.5c-0.8,1.3-1.7,2.7-2.7,4.5c0.9-0.3,1.8-0.5,2.8-0.7
	c0.5-0.1,1-0.2,1.5-0.2c0.7,0,0.6-0.1,0.9,0.3c0.2,0.2,0.2,0.5,0,0.7c-0.2,0.5-1.4,0.9-2.8,1.4s-3,0.9-3.9,1.2
	c-0.6,1.3-1.2,2.6-1.8,3.9c1.1-0.2,2.5-0.4,2.9,0s0.2,0.7,0.2,0.7c-0.2,0.3-0.3,0.4-0.8,0.7L30.6,118.2z"/>
<path class="st0" d="M43.3,257.4c0-0.3,0.2-0.5,0.3-0.8v-0.2c0.1-0.2,0.2-0.4,0.3-0.7s0-0.2,0.1-0.2l0.3-0.7c0,0,0,0,0-0.1
	c0.1-0.3,0.3-0.5,0.4-0.8v-0.2c0.1,0,0.4-0.6,0.4-0.6s0-0.2,0.1-0.2c0.1-0.3,0.3-0.5,0.4-0.8l0,0c0.1-0.4,0.3-0.6,0.4-0.9V251
	c0.1,0,0.5-0.7,0.5-0.7s0-0.1,0.1-0.2l0.5-0.9V249c0.3-0.2,0.4-0.5,0.6-0.7v-0.2c0.1,0,0.6-0.8,0.6-0.8c4.2-7,8.5-14.4,5.7-19.6
	l-2.6-5.7l0,0c0,0.4,0,0.7-0.1,0.9v0.2c0,0.3-0.1,0.6-0.2,0.9c0,0,0,0.1,0,0.2c0,0.2-0.1,0.5-0.2,0.8v0.2l-0.3,1l0,0
	c0,0.4-0.2,0.7-0.3,1v0.3c-0.2,0.3-0.3,0.5-0.4,0.8v0.1c-0.1,0.3-0.2,0.6-0.4,1v0.2c-0.2,0.3-0.3,0.5-0.4,0.8v0.2
	c-0.2,0.3-0.4,0.6-0.6,1c0,0,0,0.1,0,0.2l-0.4,0.8c0,0,0,0.2-0.1,0.3c-0.1,0.3-0.3,0.6-0.4,0.9l0,0l-0.5,1.1c0,0,0,0.2-0.1,0.3
	l-0.4,0.8v0.2c-0.1,0-0.6,1-0.6,1v0.2c-0.1,0-0.6,0.8-0.6,0.8l-0.2,0.3l-0.5,0.9c-0.2,0.4-0.4,0.8-0.7,1.2l0,0
	c0,0.1-0.3,0.6-0.3,0.6v0.2c-0.1,0-0.4,0.5-0.4,0.5v0.2l-0.4,0.6l0,0c0,0.1-0.3,0.7-0.3,0.7l0,0c-3,5.6-5,10.7-3.1,14.4l0,0l0.2,0.4
	c0,0,0,0.1,0.1,0.2l0,0c0,0.1,2.6,3.5,2.6,3.5l0,0c0-0.3,0-0.5,0-0.8c0,0,0-0.1,0-0.2c0-0.2,0-0.4,0.1-0.6c0,0,0-0.1,0-0.2
	c0-0.2,0.1-0.5,0.2-0.7l0,0c0-0.3,0.1-0.6,0.2-0.8v-0.2l0.3-0.6v-0.2L43.3,257.4z"/>
<path class="st0" d="M17.7,180c1.3,1.8,2.4,3.7,3.4,5.6c1.1,2,2,4.1,2.9,6.2c0.1-0.3,0.3-0.6,0.4-1c0.3-0.8,0.7-1.6,1.2-2.4v-0.2
	l-0.5-0.3c-3.1-1.7-3.5-2-3.5-2.6s0.4-0.6,0.4-0.6c0.5-0.3,2.1,0.4,3.2,0.9c-0.1-1.4-0.3-2.9-0.4-4.3c-1.2-0.8-2.4-1.8-3.5-2.8
	c-1.2-1.1-2.2-2.2-2.1-2.8s0.5-0.6,0.5-0.6c0.2,0,0.4-0.1,1.1,0.2c1.3,0.9,2.6,1.9,3.8,3c0-1-0.1-2-0.1-2.8s0-1.7,0-2.5
	c-0.3-0.2-0.6-0.5-1-0.9s-0.8-0.7-1.1-1.1c-0.6-0.5-1-1.2-1.2-1.9c-0.1-0.6,0.5-0.6,0.5-0.6c0.5-0.2,1.8,0.7,2.8,1.5
	c0.2-7,0.5-7,1.1-7s0.7,0,0.8,7c1-0.8,2.3-1.7,2.8-1.5s0.5,0.5,0.5,0.5c0,0.4-0.5,1.1-1.2,1.9s-1.5,1.5-2.1,2c0,0.8,0,1.5,0.1,2.4
	s0.1,1.8,0.2,2.8c1.1-1.2,2.2-2.3,3.5-3.3c0.6-0.4,0.5-0.4,1-0.3s0.5,0.5,0.5,0.5c0.1,0.5-0.7,1.6-1.8,2.8s-2.3,2.5-3,3.2
	c0.1,1.4,0.3,2.9,0.5,4.2l0.4-0.3c0.2-0.2,0.3-0.4,0.5-0.6c0.6-0.7,1.2-1.4,1.9-2c0.6-0.6,1.3-1.1,1.9-1.6l0.7-0.5l0.7,0.5l0.2,0.2
	c0-0.9,0-1.9-0.2-2.9c-0.4-4.5-1.6-8.9-3.7-13c-0.5-1-1-1.9-1.5-2.7l-0.5-0.7l0,0l-0.4-0.7l-0.4-0.5c-0.6-0.9-1.1-1.5-1.4-1.9
	c-1.2,0.9-2.3,2-3.2,3.2c-0.3,0.4-0.6,0.9-1,1.3c0,0,0,0,0,0.1c-0.1,0.2-0.3,0.4-0.4,0.6v0.2c-0.3,0.2-0.4,0.5-0.6,0.8
	c-0.5,0.9-0.9,1.9-1.3,2.8c-0.1,0.3-0.2,0.6-0.3,0.9l0,0c-0.1,0.4-0.2,0.7-0.3,1c-0.1,0.5-0.3,1-0.4,1.5s-0.2,0.9-0.3,1.4l0,0
	c0,0.2,0,0.4-0.1,0.6c0,0.6-0.2,1.3-0.2,1.9c-0.1,1.5-0.1,2.9,0,4.4v0.7L17.7,180z"/>
<path class="st0" d="M8.1,163.5c0.9,1.5,2.2,2.8,3.8,3.7c0.8,0.4,1.7,0.7,2.6,0.6c-0.4-1.6-0.8-3.4-1.4-5.4l-0.5-0.2
	c-3.1-1.5-3.5-1.8-3.6-2.4s0.3-0.7,0.3-0.7c0.5-0.3,2,0.1,3.1,0.5c-0.4-1.5-0.8-3-1.2-4.6c-0.9-0.5-2.5-1.4-3.8-2.3
	s-2.4-1.8-2.6-2.4s0.3-0.8,0.3-0.8c0.4-0.3,0.6-0.5,5.3,2.3c-0.6-2.1-1.1-4-1.6-5.6c-1.3-0.7-4-2.4-4.2-3.1s0.2-0.7,0.2-0.7
	c0.4-0.3,1.8,0.2,3,0.8c-1.1-3.7-1.7-5.5-1.9-6.5s0-1,0.2-1.1s0.4-0.1,0.9,0.7c0.9,2.1,1.7,4.2,2.4,6.4c0.6-1.1,1.3-2.4,2-2.4
	c0.3,0,0.6,0.2,0.6,0.5c0.4,0.9-1,3.8-1.6,5c0.5,1.6,1.1,3.4,1.8,5.6c0.6-1.4,1.4-2.8,2.1-4.1c0.1-0.4,0.2-0.8,0.3-1.1
	c0.3-1.1,0.7-2.1,1.1-3.1c-0.4-0.8-0.9-1.6-1.4-2.3l0,0c-0.2-0.3-0.4-0.7-0.6-1l0,0c-0.4-0.7-0.9-1.3-1.3-1.9v-0.2
	c-0.1,0-0.7-0.6-0.7-0.6l-0.2-0.2l-0.6-0.7l-0.5-0.6c0,0,0,0-0.1-0.1l-0.4-0.4l0,0l-0.5-0.5l0,0l-0.5-0.5c-0.6-0.5-1.2-1-1.7-1.4
	c-0.8-0.6-1.7-1.2-2.6-1.7c-0.4,1-0.7,2-1,3.1c-0.4,1.6-0.7,3.3-0.9,5c-0.4,5.1,0.1,10.2,1.6,15.1c0.8,3.3,2.1,6.5,3.9,9.4
	L8.1,163.5z"/>
<path class="st0" d="M309,236.3L309,236.3l-0.4-0.8l0,0c-0.4-0.8-0.9-1.7-1.4-2.5c-0.8-1.4-1.6-2.8-2.4-4.2
	c-1.4-2.5-2.9-4.9-4.1-7.4v-0.3c-0.2-0.2-0.3-0.4-0.5-0.6s-0.1-0.3-0.2-0.4s-0.2-0.5-0.3-0.7l-0.3-0.7l-0.2-0.5
	c0-0.2-0.2-0.4-0.2-0.6l-0.2-0.4c-0.1-0.3-0.2-0.6-0.4-0.9c0-0.1,0-0.2-0.1-0.3c-0.1-0.3-0.2-0.5-0.3-0.8v-0.4
	c-0.2-0.2-0.3-0.5-0.4-0.8c0,0,0-0.2,0-0.3c-0.1-0.3-0.2-0.7-0.3-1v-0.2c-0.1-0.3-0.2-0.5-0.2-0.8v-0.3c-0.1-0.3-0.2-0.7-0.2-1
	l-1.8,5.5c-2.7,6.4,1.8,14.5,6.1,22.3c0.2,0.3,0.3,0.6,0.5,0.9l0.2,0.3l0.4,0.7l0.2,0.3l0.5,0.9c0,0,0,0.1,0.1,0.2l0.4,0.7l0.2,0.3
	l0.4,0.7v0.2c0.2,0.3,0.4,0.6,0.5,0.9c0,0,0,0.2,0.1,0.2c0.1,0.2,0.2,0.4,0.3,0.7s0,0.2,0.1,0.3c0.1,0.3,0.3,0.5,0.4,0.8l0,0
	c0.1,0.4,0.2,0.6,0.4,0.9v0.2c0.1,0,0.4,0.6,0.4,0.6v0.2c0.2,0.3,0.3,0.6,0.4,0.8v0.1c0,0.2,0.1,0.5,0.2,0.7s0,0.2,0,0.2
	c0,0.2,0.1,0.4,0.2,0.7v0.2c0,0.3,0.1,0.5,0.2,0.8v0.2c0,0.2,0,0.4,0.1,0.6v0.2c0,0.2,0,0.5,0,0.7l0,0l3.1-4.6l0.2-0.3l0.2-0.4l0,0
	c0.2-0.5,0.4-1,0.5-1.6l0,0v-1.4c0-2-0.4-4-1.2-5.8c0-1.1-0.5-2.2-1.1-3.3L309,236.3z"/>
<path class="st0" d="M332.7,212.6c-0.2-0.6-0.4-1.2-0.5-1.6c-0.3,0-0.8,0.2-1.4,0.3s-1.3,0.3-2.1,0.5c-1.9,0.5-3.8,1.1-5.6,1.8
	c-1,0.4-2,0.8-3.1,1.3l-0.9,0.4l0,0l-0.8,0.4h-0.1l-0.8,0.4h-0.1c-0.3,0.2-0.6,0.4-0.9,0.6l-0.3,0.2c-2.3,1.4-4.5,3.1-6.5,5
	l-0.3,0.2l-0.6,0.6l-0.2,0.2l-0.5,0.5c0,0-0.1,0.1-0.2,0.2l-0.4,0.5h-0.1c-0.1,0.3-0.3,0.5-0.4,0.6h-0.1c0,0.1-0.4,0.6-0.4,0.6l0,0
	l-0.4,0.6l0,0l-0.2,0.2l0.8,1.4c0.4,0.7,0.8,1.4,1.2,2l0,0c0.2-0.1,0.5-0.1,0.7,0c0.5,0.3,0.8,1.6,1,3.1c0.3,0.5,0.5,1,0.8,1.4
	c1.3-1.1,2.7-2.3,4-3.5l0,0c-0.2-1.4-0.4-3.3-0.5-5c-0.1-1.3-0.2-2.5-0.1-3.8c0-0.6,0.2-0.7,0.4-0.8c0.2-0.1,0.5-0.1,0.7,0
	s0.5,0.2,0.7,1.2c0.2,0.7,0.4,1.5,0.5,2.2c0.2,1,0.4,2.4,0.6,4.2c2-1.9,3.6-3.6,4.9-5c-0.2-0.9-0.4-2.3-0.5-3.5s-0.2-2.2,0.1-2.4
	c0.2-0.2,0.5-0.3,0.7,0l0,0c0.4,0.3,0.3,0.1,0.5,0.6c0.5,1.1,0.8,2.2,1,3.3c2.6-3,3.9-4.5,4.6-5.2s0.9-0.6,1.2-0.4s0.5,0.3,0,1.3
	c-1.1,2.1-2.5,4.1-4,5.9c1.2,0,2.3,0,3.5,0.2c0.6,0.1,0.7,0.3,0.8,0.4c0.2,0.2,0.2,0.5,0,0.7c-0.3,0.5-1.2,0.6-2.5,0.7
	c-1.2,0-2.4,0.1-3.6,0c-1.3,1.5-2.9,3.3-4.8,5.4l4.3,0.3c1.1,0.1,1.8,0.2,2.3,0.3c1,0.2,1.1,0.4,1.3,0.6c0.1,0.2,0.1,0.5,0,0.8
	c-0.1,0.1-0.2,0.3-0.9,0.5c-1.4,0.2-2.8,0.3-4.1,0.2c-1.7,0-3.4-0.2-5.1-0.5l0,0c-1.5,1.5-3,2.9-4.4,4.2c2,0.4,4.6,1,4.9,1.7
	c0.1,0.2,0,0.5,0,0.8c-0.4,0.5-2.2,0.4-4.1,0.2c0.6,1.7,0.9,3.4,0.9,5.2c0.4-0.1,0.8-0.2,1.2-0.3c2.8-0.9,6.2-2.9,10.1-6.8
	c2.5-2.5,4.6-5.4,6.1-8.5c1.2-2.6,2-5.3,2.4-8.1c0.3-2.1,0.2-4.3,0-6.4c-0.1-0.7-0.3-1.5-0.5-2.2L332.7,212.6z"/>
<path class="st0" d="M343.5,171.5c-0.2-1.2-0.5-2.3-0.9-3.5c-1,0.5-2,1.1-2.9,1.7c-0.6,0.4-1.3,0.9-2.1,1.5s-1.6,1.2-2.4,2
	c-2.6,2.3-4.9,4.8-6.9,7.6c-1.1,1.6-2.2,3.2-3.1,4.9l0,0c-0.2,0.3-0.3,0.6-0.5,0.9c-0.8,1.4-1.4,2.8-2,4c-0.4,0.9-0.7,1.7-1,2.4l0,0
	c-0.1,0.4-0.3,0.7-0.4,1.1l0,0c-0.1,0.4-0.2,0.7-0.3,1l0,0v0.3c0.9,3.2,1.2,6.5,1,9.7l0.2,0.2c0.9-1.5,2-3.4,3.1-5.4l-0.2-0.6
	c-1.3-3.6-1.4-4.1-1-4.7c0.1-0.3,0.5-0.5,0.8-0.4c0.6,0,1.5,1.6,2,2.8c0.8-1.5,1.7-3,2.5-4.6c-0.6-2.2-2.2-7.6-1.4-8.7
	c0,0,0.1-0.5,0.8-0.4s0.5,0,0.8,0.8c0.6,1.7,1.2,3.4,1.5,5.1c1.2-2.2,2.2-4.1,3-5.7c-0.5-1.5-1.5-4.9-0.9-5.7
	c0.1-0.3,0.4-0.5,0.8-0.4c0.6,0,1.3,1.6,1.8,2.9c1.9-3.8,2.9-5.7,3.5-6.7s0.8-0.8,1-0.7s0.5,0.2,0.1,1.2c-0.8,2.4-1.7,4.7-2.8,7
	c1.4-0.4,3-0.9,3.4-0.4c0,0,0.4,0,0.1,0.9s-3.6,2.3-5.1,2.8c-0.8,1.7-1.8,3.6-2.9,5.8c1.7-0.7,3.3-1.2,5.1-1.7
	c0.8-0.2,1.6,0.2,1.2,1.1s-5.8,3.2-8,3.9c-0.8,1.6-1.7,3.2-2.5,4.7c1.3-0.2,3-0.3,3.4,0.1c0,0,0.4,0.2,0.1,0.9s-0.8,0.9-4.5,1.7
	h-0.6c-1.1,2.1-2.1,4-3,5.6c1,0.3,2,0.3,3,0c1.9-0.5,3.7-1.6,5.1-3c2.8-2.8,5-6,6.8-9.5c2.8-5.2,4.4-11,4.7-16.9
	c0-1.9,0-3.9-0.5-5.8L343.5,171.5z"/>
<path class="st0" d="M301.6,243.2l-0.3-0.6l0,0c0-0.1-0.3-0.7-0.3-0.7v-0.2c-0.2-0.2-0.3-0.3-0.4-0.5c0,0,0-0.1-0.1-0.2l-0.3-0.5
	l0,0c0-0.1-0.7-1.4-0.7-1.4l-0.5-0.9l-0.2-0.3l-0.4-0.8v-0.2c-0.3-0.3-0.5-0.6-0.6-1v-0.2c-0.3-0.3-0.4-0.5-0.5-0.8v-0.3
	c-0.1,0-0.7-1-0.7-1l0,0l-0.5-1c0,0,0-0.2-0.1-0.3c-0.1-0.3-0.3-0.6-0.4-0.8c0,0,0-0.1,0-0.2l-0.5-1v-0.2c-0.2-0.3-0.3-0.5-0.4-0.8
	v-0.2c-0.1,0-0.5-1-0.5-1s0,0,0-0.1c-0.1-0.3-0.2-0.5-0.3-0.8v-0.3c-0.2-0.3-0.3-0.6-0.4-0.9l0,0c-0.1-0.3-0.2-0.6-0.3-1v-0.2
	c-0.1-0.3-0.2-0.5-0.2-0.8c0,0,0-0.1,0-0.2c0-0.3-0.1-0.6-0.2-0.9v-0.2c0-0.2,0-0.5-0.1-0.8c0,0,0,0,0-0.1l-2.6,5.7
	c-2.9,5.3,1.5,12.6,5.7,19.6c0.2,0.3,0.3,0.6,0.5,0.8v0.2c0.3,0.2,0.4,0.5,0.6,0.7c0,0,0,0.1,0.1,0.2c0.2,0.3,0.3,0.6,0.5,0.9v0.2
	c0.2,0.2,0.4,0.5,0.5,0.7v0.2c0.1,0,0.6,0.8,0.6,0.8l0,0c0,0.1,0.5,0.9,0.5,0.9v0.2c0.1,0,0.4,0.6,0.4,0.6v0.2
	c0.1,0,0.5,0.8,0.5,0.8l0,0c0,0.1,0.3,0.8,0.3,0.8s0,0.2,0.1,0.2s0.2,0.4,0.3,0.7v0.2c0.2,0.3,0.3,0.5,0.4,0.8v0.2
	c0.1,0.2,0.2,0.4,0.3,0.6v0.2c0.1,0.3,0.2,0.5,0.3,0.8l0,0c0,0.3,0.1,0.5,0.2,0.8c0,0,0,0.1,0,0.2c0,0.2,0,0.4,0.1,0.6
	c0,0,0,0.1,0,0.2c0,0.2,0,0.5,0,0.7l0,0l2.6-3.4l0,0c0-0.1,0.1-0.3,0.1-0.3l0.2-0.4l0,0c1.9-3.7-0.1-8.8-3.1-14.4l0,0L301.6,243.2z"
	/>
<path class="st0" d="M325.4,210c-0.9,0-1.8-0.2-2.6-0.5l-1,1.7c0.8-0.3,1.5-0.5,2.2-0.8l1.5-0.4H325.4z"/>
<path class="st0" d="M296.8,274.4c-0.4-0.1-0.9-0.2-1.4-0.3h-0.6c-0.5,0-1,0-1.5,0c-0.8,0-1.6,0.2-2.5,0.5c-0.6,0.2-1.2,0.4-1.7,0.5
	H289l-0.4,0.2l-0.7,0.3h-0.2c0,0.1-0.1,0.1-0.1,0.1h-0.4c-0.1,0-0.2-0.1-0.3-0.3c-0.8-1.6-1.8-3.1-2.9-4.5c-1.3-1.6-2.8-2.9-4.3-2.8
	c-0.5,0-0.9,0.1-1.4,0.3c-0.8,0.3-1.5,0.9-2.1,1.5l0,0l-0.3,0.3l0,0l-0.3,0.3c-0.6,0.7-1.1,1.4-1.5,2.2c-0.9,1.5-1.6,3.1-2.2,4.8
	c0,0.2-0.2,0.3-0.4,0.4c-0.2,0-0.4,0-0.5-0.2l-0.2-0.2c-0.1-0.1-0.3-0.3-0.5-0.5c-0.5-0.5-1-1-1.5-1.5c-0.6-0.5-1.2-1-2-1.3
	c-0.6-0.3-1.3-0.4-2-0.2c-0.7,0.3-1.3,0.7-1.8,1.3c-0.6,0.7-1.1,1.4-1.5,2.1c-0.4,0.8-0.8,1.5-1.1,2.2s-0.5,1.1-0.6,1.4l0,0
	c-0.1,0.3-0.4,0.4-0.6,0.4c-0.5-0.2-1.3-0.5-2.2-0.8h-0.4c-0.4-0.3-0.7-0.4-1-0.4l0,0c-0.1,0-0.3,0-0.4,0l0,0c-0.1,0-0.2,0-0.4,0
	s-0.3,0-0.5,0.1c-1.7,2.4-4.1,4.4-6.8,5.5l0,0l-0.2,0.3l1.2,0.2c1.8-0.9,3.7-1.3,5.7-1.4l0,0c0.6-0.8,1.1-1.5,1.4-1.5
	c0.2,0,0.4,0,0.5,0.2c0.2,0.2,0.1,0.8-0.1,1.4c1.8,0.2,3.4,0.9,4.7,2.1h1.2c0.4-0.7,1.3-2.5,2.1-4.3s1.7-3.2,2.1-3.4
	c0.2,0,0.4,0,0.5,0.1c0.3,0.3,0.1,1.6-0.3,3.1c-0.4,1.4-1,2.8-1.6,4.1c3-0.3,6.1-0.8,9-1.5c0.3-0.8,0.7-1.9,1.1-3.1s1-2.5,1.5-3.8
	s1-2.4,1.4-3.3c0.2-0.6,0.5-1.1,1-1.6c0.2,0,0.4,0,0.5,0c0.2,0.1,0.5,0.3,0.2,1.7c-0.2,1.1-0.5,2.2-0.8,3.2
	c-0.4,1.5-1.1,3.5-2.1,6.1c2.5-0.6,4.9-1.2,7-1.9c0.3-1,1-3.8,1.6-4.1c0.2,0,0.4,0,0.6,0c0.6,0.3,0.5,2.2,0.3,3.3
	c4.6-1.5,6.8-2.4,8-2.7s1.2-0.2,1.4,0.1s0.2,0.5-0.9,1.1c-2.6,1.3-5.2,2.4-7.9,3.3c0.9,0.8,2.2,2.1,1.9,2.8c0,0.2-0.3,0.3-0.5,0.4
	c-0.8,0.2-3.1-1.6-3.9-2.3c-2.1,0.8-4.5,1.5-7.1,2.2c2.2,1.8,3.9,3.1,5.2,4.1s2.1,1.7,2.7,2.2c1.1,1,1,1.2,0.9,1.5
	c-0.1,0.2-0.3,0.3-0.5,0.4c-0.7,0-1.4-0.3-2-0.7c-1.1-0.6-2.2-1.3-3.2-2c-1.2-0.8-2.4-1.7-3.4-2.5c-0.9-0.7-1.7-1.4-2.5-2.2
	c-3.1,0.8-6.1,1.4-9.3,1.8c0.7,0.8,1.8,2.2,2.8,3.5c0.4,0.6,0.8,1.1,1.1,1.7l0,0c0.5,0.1,1,0.3,1.5,0.5s1,0.5,1.5,0.7
	c0.5,0.3,1,0.6,1.4,0.9c0.2,0.2,0.5,0.4,0.7,0.6c0,0,0,0,0-0.1c0.3-0.5,0.5-1,0.8-1.6c0-0.2,0.3-0.3,0.5-0.4c0.2,0,0.4,0,0.6,0.1
	c1.5,1.2,3.1,2.2,4.9,3c2.7,1.2,6.2,1.9,9,0.4c1.6-0.9,2.2-3,2.4-5.1c0-1.8,0-3.6-0.5-5.4c0-0.3,0.1-0.6,0.5-0.7h0.3
	c0.2-0.1,0.4-0.2,0.7-0.4c0.8-0.3,1.6-0.7,2.3-1.1c1.9-0.9,3.6-2.5,4.6-4.3c0.7-1.5,0.7-3.2,0-4.7c-0.7-1.4-2-2.5-3.5-3L296.8,274.4
	z"/>
<polygon class="st0" points="184.3,263 187.9,263 187.9,238.3 184.3,238.3 "/>
<path class="st0" d="M69.7,297.6c0.2-0.2,0.5-0.4,0.7-0.6c0.4-0.3,0.9-0.6,1.4-0.9s1-0.5,1.5-0.7s1-0.4,1.5-0.5l0,0
	c0.3-0.6,0.7-1.2,1.1-1.7c0.9-1.3,2.1-2.7,2.8-3.5c-3.1-0.4-6.2-1-9.2-1.8c-0.6,0.6-1.5,1.4-2.5,2.2s-2.2,1.7-3.4,2.5
	c-1,0.7-2.1,1.4-3.3,2c-0.6,0.4-1.3,0.6-2,0.7c-0.2,0-0.4-0.2-0.5-0.4c-0.1-0.3-0.3-0.5,0.8-1.5c0.6-0.5,1.4-1.2,2.7-2.2
	s3-2.3,5.2-4.1c-2.5-0.7-4.9-1.5-7.1-2.2c-0.8,0.6-3.2,2.5-3.9,2.3c-0.2,0-0.4-0.2-0.5-0.4c-0.3-0.7,1-2,1.9-2.8
	c-2.7-0.9-5.3-2.1-7.9-3.3c-1.1-0.6-1-0.8-0.9-1.1s0.2-0.5,1.4-0.1s3.4,1.2,8,2.7c-0.2-1.2-0.3-3,0.3-3.3c0.2,0,0.4,0,0.6,0
	c0.7,0.3,1.4,3.1,1.6,4.1c2.1,0.6,4.5,1.3,7,1.9c-1-2.6-1.7-4.6-2.1-6.1c-0.3-1.1-0.6-2.1-0.8-3.2c-0.2-1.4,0-1.6,0.2-1.7
	s0.4-0.1,0.5,0c0.3,0.1,0.6,0.7,1,1.6s0.9,2.1,1.4,3.3s1,2.6,1.5,3.8s0.9,2.3,1.1,3.1c3,0.6,6,1.1,9,1.5c-0.6-1.4-1.1-2.7-1.5-4.1
	c-0.4-1.5-0.7-2.8-0.3-3.1c0.1-0.1,0.3-0.2,0.5-0.1c0.4,0.1,1.2,1.6,2.1,3.4s1.8,3.5,2.1,4.2h1.2c1.3-1.1,2.9-1.9,4.7-2.1
	c-0.2-0.6-0.3-1.1-0.1-1.4c0.1-0.1,0.3-0.2,0.5-0.2c0.3,0,0.9,0.7,1.4,1.4l0,0c2,0.1,3.9,0.6,5.7,1.5l1.2-0.2c0,0-0.1-0.2-0.2-0.3
	l0,0c-2.8-1.2-5.1-3.2-6.8-5.7c-0.2,0-0.3,0-0.5-0.1c-0.1,0-0.2,0-0.4,0l0,0c-0.1,0-0.3,0-0.4,0l0,0c-0.3,0-0.6,0.2-1,0.3h-0.4
	c-0.9,0.4-1.7,0.8-2.2,1c-0.2,0-0.5,0-0.6-0.2l0,0c-0.1-0.4-0.3-0.9-0.6-1.5s-0.7-1.4-1.1-2.2c-0.4-0.8-0.9-1.5-1.5-2.1
	c-0.5-0.6-1.1-1.1-1.8-1.3c-0.7-0.2-1.4-0.1-2,0.2c-0.7,0.3-1.4,0.8-2,1.3c-0.5,0.5-1,0.9-1.5,1.5c-0.2,0.2-0.4,0.4-0.5,0.5
	l-0.2,0.2c-0.1,0.1-0.3,0.2-0.5,0.2s-0.3-0.2-0.4-0.4c-0.6-1.6-1.3-3.2-2.2-4.8c-0.4-0.8-0.9-1.5-1.5-2.2l-0.3-0.3l0,0l-0.3-0.3l0,0
	c-0.6-0.6-1.3-1.2-2.1-1.5c-0.4-0.2-0.9-0.3-1.4-0.3c-1.4-0.1-3,1.2-4.3,2.8c-1.1,1.4-2.1,2.9-2.9,4.5c0,0.1-0.1,0.2-0.3,0.3l0,0
	c0,0,0,0-0.1,0h-0.6c0-0.1-0.6-0.4-0.6-0.4h-0.4c0-0.1-0.1-0.2-0.1-0.2c-0.5-0.2-1.1-0.4-1.7-0.5c-0.8-0.2-1.6-0.4-2.4-0.5
	c-0.5,0-1,0-1.5,0h-0.6c-0.5,0-0.9,0.1-1.3,0.3c-1.5,0.5-2.8,1.6-3.4,3.1c-0.8,1.5-0.8,3.2,0,4.7c1.1,1.9,2.7,3.4,4.6,4.3
	c0.7,0.4,1.5,0.8,2.3,1.1c0.3,0.1,0.6,0.2,0.7,0.3h0.3c0.3,0.2,0.5,0.5,0.5,0.8c-0.4,1.8-0.6,3.6-0.5,5.4c0.1,2.1,0.8,4.2,2.4,5.1
	c2.7,1.5,6.2,0.8,9-0.4c1.8-0.8,3.4-1.8,4.9-3c0.2-0.1,0.4-0.2,0.6-0.1c0.2,0,0.4,0.2,0.5,0.4c0.2,0.5,0.5,1.1,0.8,1.6v0.2
	L69.7,297.6z"/>
<path class="st0" d="M212.2,302.2c-1.8-6.6-3-13.3-3.6-20.1c-24,6.8-49.4,6.8-73.4,0c-0.5,6.8-1.7,13.6-3.6,20.1
	c-2.1,6.7-5.2,13-9,18.9c16.1,4.5,32.6,6.8,49.3,7c16.7-0.2,33.2-2.5,49.3-7c-3.9-5.8-6.9-12.2-9.1-18.9H212.2z M152.5,316.2
	c0,0.5-0.3,0.9-0.8,0.9c0,0,0,0-0.1,0h-3.9c0-0.1-4.1,0-4.1,0l0,0c-0.5,0-0.9-0.3-0.9-0.8c0,0,0-0.1,0-0.2v-0.6
	c0-0.5,0.3-0.9,0.8-0.9c0,0,0.1,0,0.2,0h2.4v-12.2c-1,0.9-2,1.7-3.1,2.4c-0.1,0-0.3,0-0.4,0c-0.1,0-0.3-0.1-0.3-0.2l-0.7-1.2
	c-0.1-0.2,0-0.5,0.1-0.7c2.6-1.7,4.8-4,6.5-6.6c0-0.2,0.3-0.2,0.4-0.2h0.9c0.3,0,0.5,0.2,0.5,0.5v18.2h1.8c0.5,0,0.9,0.3,0.9,0.7
	c0,0,0,0.1,0,0.2v0.7L152.5,316.2z M168.2,298.2c-2.5,6.3-5.4,12.5-8.6,18.5c0,0.1-0.2,0.2-0.3,0.2l-0.7,0.2h-0.1h-0.2l-1.7-0.9
	c-0.2,0-0.3-0.3-0.3-0.4V315c0-0.1,0-0.2,0-0.3c3.2-4.8,6-9.8,8.4-15h-7.9v2c0,0.5-0.3,0.9-0.8,0.9c0,0-0.1,0-0.2,0h-0.6
	c-0.5,0-0.9-0.3-0.9-0.8c0,0,0-0.1,0-0.2v-5.1c0-0.3,0.2-0.5,0.5-0.5h12.1c0.2,0,0.4,0.1,0.5,0.3l0.7,1.3c0,0.2,0,0.3,0,0.5l0,0
	L168.2,298.2z M176.2,317.5c-3.7,0-6.3-2-6.3-4.8c-0.2-1.4,0.8-2.6,2.2-2.8c0,0,0.2,0,0.3,0c1.2,0,2.3,0.9,2.3,2.1
	c0,0.1,0,0.2,0,0.3c0,0.8-0.3,1.5-0.9,2c0.8,0.5,1.6,0.7,2.5,0.7c2,0,4.1-0.6,4.1-5.4s-1.8-4.2-3.3-4.2s-2.5,0.3-3,1.1v0.8
	c-0.1,0.3-0.4,0.4-0.6,0.4h-1.6c-0.1,0-0.3,0-0.4-0.2c0-0.1-0.1-0.2-0.1-0.4l0.7-9.7v-0.2c0-0.3,0.2-0.5,0.5-0.5l0,0h1.3
	c1.7,0,4.1,0,5.5,0c2-0.1,2.1-0.3,2.9-1.8c0.1-0.2,0.4-0.3,0.6-0.2l0.9,0.3c0.2,0,0.4,0.3,0.3,0.6c-0.5,3.1-2.3,4.7-5.3,4.8
	c-1.1,0-3.1,0-4.3,0l-0.2,3.1c1-0.4,2.1-0.7,3.1-0.6c4.2,0,6.8,2.5,6.8,6.8c0.2,4.2-3.1,7.7-7.3,7.9
	C176.7,317.6,176.5,317.6,176.2,317.5L176.2,317.5L176.2,317.5z M193.6,317.5c-3.7,0-6.3-2-6.3-4.8c-0.2-1.4,0.8-2.6,2.2-2.8
	c0,0,0.2,0,0.3,0c1.2,0,2.2,0.9,2.3,2.1c0,0.1,0,0.2,0,0.4c0,0.8-0.3,1.5-0.9,2c0.8,0.5,1.6,0.7,2.5,0.7c2,0,4.1-0.6,4.1-5.4
	s-1.8-4.2-3.3-4.2s-2.5,0.3-3,1.1v0.8c-0.1,0.3-0.4,0.4-0.6,0.4h-1.6c-0.1,0-0.3,0-0.4-0.2c0-0.1-0.1-0.2-0.1-0.4l0.7-9.7v-0.2
	c0-0.3,0.2-0.5,0.5-0.5l0,0h1.3c1.7,0,4.1,0,5.5,0c2-0.1,2.1-0.3,2.9-1.8c0.1-0.2,0.4-0.3,0.6-0.2l0.9,0.3c0.2,0,0.4,0.3,0.3,0.6
	c-0.5,3.1-2.3,4.7-5.3,4.8c-1.1,0-3.1,0-4.3,0l-0.2,3.1c1-0.5,2.1-0.7,3.1-0.6c4.2,0,6.8,2.5,6.8,6.8c0.2,4.2-3.1,7.7-7.3,7.9
	c-0.2,0-0.4,0-0.7,0l0,0V317.5z"/>
<path class="st0" d="M274,301.2L274,301.2c0-0.2-0.1-0.3-0.2-0.5s0-0.1-0.1-0.2l-0.2-0.3c-0.1-0.2-0.3-0.3-0.4-0.5
	c-0.4-0.4-0.9-0.8-1.4-1.1c-0.5-0.3-1.1-0.6-1.7-0.9c-1.1-0.5-2.3-0.8-3.6-1c-0.6,0-1.1-0.2-1.6-0.2h-1.3h-1.2
	c-0.3,0-0.7-0.2-0.8-0.5c-0.3-1.8-0.8-3.6-1.6-5.2c-0.1-0.3-0.3-0.5-0.5-0.8c-0.3-0.5-0.6-0.9-1-1.3l0,0c-0.2-0.3-0.5-0.5-0.8-0.7
	l0,0c-0.4-0.3-0.9-0.6-1.4-0.8c-0.3-0.1-0.6-0.2-0.9-0.2h-0.2c-1.3,0-2.6,0-3.8,0.5l0,0c-0.6,0.2-1.2,0.5-1.7,0.8l0,0
	c-0.5,0.3-1.1,0.6-1.6,1c-0.4,0.3-0.8,0.6-1.2,0.9l-0.5,0.4c-0.2,0.2-0.5,0.5-0.7,0.7l0,0c-0.2,0.2-0.4,0.5-0.6,0.7l0,0
	c-0.9,1-1.7,2.1-2.4,3.2c-0.1,0.2-0.3,0.3-0.5,0.3s-0.4,0-0.6-0.2l-0.2-0.2c-0.1-0.1-0.3-0.3-0.5-0.5c-0.6-0.5-1.2-1-1.8-1.5h-0.2
	c-0.6,0.9-1.4,1.8-2.4,2.5c-0.9,0.6-1.9,1.1-3,1.5c-1,0.3-2,0.5-3,0.6c-0.7,0-1.3,0-2,0c-0.3,0.7-0.6,1.3-0.8,2l0,0
	c-0.2,0.4-0.5,0.5-0.8,0.5c-0.6,0-1.7-0.2-2.9-0.2h-0.8c-0.5,0.5-1.1,1-1.8,1.4c-1.2,0.7-2.4,1.2-3.8,1.4c-0.2,0.2-0.4,0.4-0.5,0.7
	c-0.3,0.4-0.6,0.9-0.9,1.3c0.5,1.2,0.9,2.4,1.4,3.5l2.9-0.7c0.5-1.3,1.7-4.2,2.4-4.4c0.2,0,0.4,0,0.6,0c0.6,0.4,0,2.5-0.4,3.7
	c2.4-0.5,5-1.1,7.6-1.6c0.3-0.8,1.2-2.7,2.1-4.5s2-3.4,2.5-3.6c0.2,0,0.4,0,0.6,0.1c0.4,0.3,0.1,1.6-0.4,3.1s-1.2,3.2-1.7,4.2
	c3.4-0.6,6.8-1.1,10.1-1.6c0.4-0.8,1-1.8,1.7-3s1.6-2.5,2.4-3.6c1.7-2.4,3.5-4.4,4.2-4.5c0.2,0,0.5,0,0.7,0.2
	c0.3,0.2,0.5,0.4-0.3,1.7s-2.4,3.8-5.5,8.8c2.8-0.3,5.6-0.5,8.1-0.6c0.4-0.7,0.9-1.4,1.4-2.1c0.6-0.8,1.3-1.4,1.7-1.5
	c0.2,0,0.4,0,0.6,0.2c0.6,0.5-0.3,2.2-0.9,3.3c3.1-0.1,6.3,0,9.4,0.5c1.3,0.3,1.3,0.5,1.3,0.8s0,0.5-1.4,0.5s-3.9-0.2-9.2,0.1
	c0.6,1,1.5,2.7,1,3.2c-0.1,0.1-0.4,0.2-0.6,0.2c-0.4,0-1-0.6-1.7-1.3s-1.3-1.5-1.6-1.9c-2.5,0.2-5.1,0.5-7.9,0.9
	c2.5,2.3,4.7,4.8,6.7,7.6c0.8,1.2,0.6,1.4,0.5,1.7c-0.1,0.2-0.3,0.2-0.5,0.2c-0.6,0-2.4-1.7-4.4-3.6c-1-1-2.1-2-3-3
	s-1.8-1.8-2.4-2.4c-3.3,0.5-6.6,1.1-9.9,1.8c1.1,1.1,2.1,2.2,3,3.4c1,1.2,1.7,2.4,1.4,2.8c-0.1,0.2-0.3,0.3-0.5,0.3
	c-0.5,0-2-1.1-3.5-2.5s-3-2.8-3.6-3.4c-2.6,0.6-5.1,1.2-7.5,1.7c0.9,1,2.3,2.6,1.9,3.2c-0.1,0.2-0.3,0.3-0.5,0.3
	c-0.7,0.1-3-1.9-4.1-2.9l-2.3,0.6c1,2,2,3.7,2.8,5.2c1,0.4,2.1,0.6,3.1,0.6c1.2-0.3,2.3-0.7,3.4-1.4c0.5-0.3,0.9-0.6,1.2-0.8
	l0.4-0.2h0.1c0.2-0.3,0.6-0.3,0.8-0.1h0.1c2.1,2.5,5.3,5.1,7.9,5c1.5-0.2,2.8-1.1,3.6-2.3c0.8-1,1.5-2.2,2.1-3.4
	c0-0.2,0.3-0.3,0.5-0.4c0.2,0,0.4,0,0.6,0.2c1.3,1.3,2.7,2.5,4.2,3.6c2.3,1.6,5.1,3,7.6,2.3c1.5-0.4,2.5-2.2,3.1-4.1
	c0.6-1.7,1-3.5,1.2-5.2c0-0.3,0.3-0.5,0.6-0.5h3.4c1,0,2-0.2,3-0.4c0.5-0.1,1-0.3,1.5-0.4c0.5-0.2,0.9-0.4,1.4-0.7
	c1.4-0.8,2.4-2.2,2.8-3.8c0.3-0.9,0.3-1.8,0-2.7c-0.1-0.1-0.2-0.2-0.3-0.3L274,301.2z"/>
<path class="st0" d="M122.8,310.6c-1,0.9-3.4,3-4.1,2.9c-0.2,0-0.4-0.1-0.5-0.3c-0.4-0.6,1.1-2.2,1.9-3.2c-2.4-0.6-4.9-1.2-7.5-1.7
	c-0.6,0.6-2.1,2-3.6,3.4s-2.9,2.5-3.4,2.5c-0.2,0-0.4-0.1-0.5-0.3c-0.3-0.4,0.4-1.6,1.4-2.8c0.9-1.2,1.9-2.3,3-3.4
	c-3.3-0.7-6.7-1.3-9.9-1.8c-0.6,0.6-1.4,1.5-2.4,2.4s-2,2-3,3c-2,1.9-3.8,3.6-4.4,3.6c-0.2,0-0.4,0-0.5-0.2
	c-0.2-0.2-0.4-0.5,0.5-1.7c2-2.7,4.3-5.2,6.7-7.6c-2.8-0.4-5.5-0.7-7.9-0.9c-0.3,0.4-1,1.2-1.6,1.9s-1.3,1.3-1.7,1.3
	c-0.2,0-0.4,0-0.6-0.2c-0.5-0.5,0.4-2.2,1-3.2c-5.2-0.3-7.9,0-9.2-0.1s-1.3-0.2-1.4-0.5s0-0.5,1.3-0.8c3.1-0.4,6.2-0.6,9.4-0.5
	c-0.6-1.1-1.4-2.8-0.9-3.3c0.2-0.1,0.4-0.2,0.6-0.2c0.4,0,1.1,0.7,1.7,1.5c0.5,0.7,1,1.4,1.4,2.1c2.5,0.1,5.2,0.3,8.1,0.6
	c-3.1-5-4.8-7.5-5.5-8.8s-0.5-1.5-0.3-1.7c0.2-0.1,0.4-0.2,0.7-0.2c0.7,0.1,2.5,2.1,4.2,4.5c0.9,1.2,1.7,2.5,2.4,3.6s1.3,2.2,1.7,3
	c3.3,0.4,6.8,1,10.1,1.6c-0.4-1-1.2-2.7-1.7-4.2s-0.8-2.8-0.4-3.1c0.2-0.1,0.4-0.2,0.6-0.1c0.6,0.1,1.6,1.8,2.5,3.6s1.8,3.8,2.1,4.5
	c2.6,0.5,5.2,1.1,7.6,1.6c-0.4-1.2-0.9-3.4-0.4-3.7c0.2-0.1,0.4-0.1,0.6,0c0.7,0.2,1.9,3.1,2.4,4.4l2.9,0.7c0.5-1.1,1-2.3,1.4-3.5
	c-0.3-0.5-0.6-0.9-0.9-1.3c-0.2-0.2-0.4-0.5-0.6-0.7c-1.3-0.2-2.6-0.7-3.8-1.4c-0.6-0.4-1.2-0.9-1.8-1.4h-0.8
	c-1.2,0-2.3,0.2-2.9,0.2c-0.3,0-0.6,0-0.8-0.4c0,0,0,0,0-0.1c-0.1-0.3-0.4-1.1-0.8-2c-0.7,0-1.3,0-2,0c-1,0-2-0.3-3-0.6
	c-1.1-0.3-2.1-0.8-3-1.5c-1-0.7-1.8-1.6-2.4-2.6h-0.2c-0.7,0.6-1.3,1-1.9,1.5l-0.5,0.5l-0.2,0.2c-0.3,0.3-0.8,0.3-1.1,0l0,0
	c-0.7-1.1-1.5-2.2-2.4-3.2l0,0c-0.2-0.2-0.4-0.5-0.6-0.7l0,0c-0.2-0.2-0.4-0.5-0.7-0.7l-0.5-0.4c-0.4-0.3-0.8-0.6-1.2-0.9
	c-0.5-0.4-1-0.7-1.6-1l0,0c-0.6-0.3-1.1-0.6-1.7-0.8l0,0c-1.2-0.5-2.5-0.6-3.8-0.5h-0.2c-0.3,0-0.6,0.1-0.9,0.2
	c-0.5,0.2-1,0.4-1.4,0.8l0,0c-0.3,0.2-0.5,0.5-0.8,0.7l0,0c-0.4,0.4-0.7,0.9-1,1.3c-0.2,0.3-0.3,0.5-0.5,0.8
	c-0.8,1.6-1.4,3.4-1.6,5.2c0,0.3-0.4,0.6-0.8,0.5h-2.5c-0.5,0.1-1,0.2-1.6,0.3c-1.2,0.2-2.4,0.5-3.6,1c-0.6,0.2-1.1,0.5-1.7,0.9
	c-0.5,0.3-1,0.7-1.4,1.1c-0.1,0.2-0.3,0.3-0.4,0.5c0,0.1-0.1,0.2-0.2,0.3s0,0.1-0.1,0.2s-0.1,0.3-0.2,0.4l0,0c0,0.2-0.1,0.4-0.2,0.5
	c-0.3,0.9-0.3,1.8,0,2.7c0.4,1.6,1.4,2.9,2.8,3.8c0.4,0.3,0.9,0.5,1.4,0.7s1,0.3,1.5,0.4c1,0.2,2,0.3,3,0.4h3.4
	c0.3,0,0.6,0.2,0.6,0.5l0,0c0.2,1.8,0.6,3.5,1.2,5.2c0.7,1.9,1.7,3.7,3.1,4.1c2.5,0.8,5.2-0.7,7.6-2.3c1.5-1.1,2.9-2.3,4.2-3.6
	c0.1-0.1,0.4-0.2,0.6-0.2s0.4,0.2,0.5,0.4c0.5,1.2,1.2,2.3,2.1,3.4c0.8,1.2,2.1,2.1,3.6,2.3c2.6,0.1,5.8-2.5,7.9-4.9h0.1
	c0.2-0.3,0.6-0.3,0.8-0.1h0.1c0,0.1,0.4,0.4,0.4,0.4c0.3,0.2,0.7,0.5,1.2,0.8c1,0.7,2.2,1.1,3.4,1.4c1.1,0,2.2-0.2,3.1-0.6
	c0.9-1.5,1.9-3.3,2.8-5.2l-2.5-0.7L122.8,310.6z"/>
<path class="st0" d="M123.3,284.4c0,0.9-0.1,1.6-0.2,2c2.1,1.8,4.2,3.4,6.2,4.9c0.1-1.3,0.5-3.4,1.2-3.5c0.2,0,0.4,0,0.6,0.2
	c0.3,0.5,0.4,1.1,0.4,1.7c0.3-1.8,0.5-3.4,0.6-4.8c-1.2-0.5-2.6-1-3.2-1.3c-0.3,0-0.5-0.4-0.5-0.6c0,0,0,0,0-0.1
	c0.2-1.4,0.3-2.8,0.3-4.2c0-1.9-0.4-4-1.4-5.3c-0.3-0.3-0.6-0.6-0.9-0.8c-0.4-0.2-0.7-0.3-1.1-0.4c-0.8-0.2-1.7-0.2-2.6-0.2
	c-0.7,0-1.5,0.1-2.2,0.2h-0.7c0,0.1-0.3,0.2-0.3,0.2c-0.2,0-0.4,0-0.6-0.2c-0.2-0.1-0.2-0.4-0.2-0.6c0.3-1.8,0.4-3.7,0.4-5.5v-1
	c0-0.3,0-0.7,0-1.1c0-0.7-0.2-1.4-0.4-2c-0.3-1.3-1-2.4-1.9-3.2c-0.3-0.2-0.6-0.4-1-0.5s-0.8-0.2-1.2-0.2c-1,0-1.9,0.1-2.9,0.4
	c-1.7,0.4-3.4,1.1-5,1.9c-0.3,0.1-0.6,0-0.8-0.3v-0.2c-0.2-0.1-0.4-0.4-0.5-0.6c-0.4-0.7-0.9-1.4-1.4-2c-1.1-1.7-2.6-3.2-4.4-4.3
	c-0.7-0.4-1.5-0.6-2.3-0.7c-0.8,0-1.6,0-2.4,0.3c-0.8,0.2-1.5,0.7-2.1,1.2l0,0c-0.1,0.1-0.2,0.3-0.4,0.4c0,0.1-0.2,0.2-0.2,0.4l0,0
	c-0.2,0.4-0.3,0.8-0.4,1.2c0,0,0,0.1,0,0.2c-0.6,2.3,0.2,5.2,1.1,7.4c0.4,0.9,0.9,1.8,1.4,2.7c0.2,0.3,0.4,0.6,0.5,0.8l0.2,0.3
	c0.2,0.3,0.2,0.7,0,0.9c-1.4,1.2-2.5,2.7-3.4,4.3c-0.5,1-0.9,2-1,3.1c0,0.2,0,0.5,0,0.7v0.4l0,0c0,0.1,0,0.3,0,0.4
	c0,0.5,0.3,1,0.5,1.5c0.9,1.6,2.2,2.9,3.8,3.8c0.8,0.4,1.6,0.8,2.4,1.1c0.4,0.2,0.8,0.3,1.2,0.4l0.7,0.2h0.6c0.7,0.3,1.3,0.4,2,0.5
	c0.8,0,1.6,0.1,2.4,0.2c0.6,0,1.2,0,1.8,0c0.2,0,0.5,0.1,0.6,0.3c0.2,0.2,0.2,0.4,0.2,0.6c-0.2,1.4-0.2,2.8,0,4.3c0,0,0,0.1,0,0.2
	c0.1,0.7,0.4,1.5,0.7,2.1c0.3,0.8,0.9,1.5,1.6,2.1c1.4,0.9,3.1,1.4,4.9,1.3h0.5c0.7,0,1.3-0.1,2-0.2h0.7c0.7-0.3,1.4-0.5,2.1-0.7
	h0.1c0.3,0,0.7,0,0.8,0.4l0,0c0,0.1,0.2,0.6,0.2,0.6c0.2,0.3,0.5,0.8,0.8,1.3c0.2,0.3,0.5,0.7,0.8,1l0.4,0.5c0.5,0.5,1,1,1.5,1.3
	h0.3c0,0.1,0,0.1,0,0.1h0.3c0,0.1,0.4,0.2,0.4,0.2h0.5c0.3,0.2,0.7,0.3,1,0.3l0,0c0.4,0,0.8,0.1,1.2,0.1s0.9,0,1.4,0h0.4
	c0.4-1.6,0.9-3.2,1.2-4.8l-0.6-0.5c-0.7,0.2-1.8,0.5-2.8,0.8c-0.7,0.2-1.5,0.3-2.3,0.1c-0.2-0.1-0.3-0.3-0.4-0.5
	c-0.1-0.7,1.9-1.6,3.1-2c-2-1.6-4.1-3.3-6.2-5.1c-0.4,0.1-1.1,0.3-2,0.5s-1.9,0.4-2.9,0.6c-2,0.3-4,0.5-4.5,0.1
	c-0.2-0.1-0.3-0.3-0.3-0.6c0-0.5,1.2-1.1,2.8-1.6s3.4-0.9,4.5-1.2c-2.6-2.4-5.2-4.9-7.6-7.4c-0.8,0.1-2.1,0.3-3.5,0.4s-2.9,0-4.4,0
	c-1.4,0-2.7-0.2-4.1-0.4c-0.8,0-1.5-0.3-2.2-0.7c-0.2-0.2-0.3-0.4-0.3-0.7c0-0.3,0-0.6,1.6-0.7c0.8,0,1.9,0,3.6-0.1s4,0,6.9-0.2
	c-1-1.1-1.9-2.2-2.8-3.3c-0.4-0.5-0.9-1.1-1.3-1.6s-0.8-1-1.2-1.6c-0.9,0-1.7,0-2.6,0c-0.8,0-1.6-0.2-2.2-0.6
	c-0.1-0.2-0.2-0.4-0.2-0.6c0.1-0.8,2-1,3.2-1.1l-1.1-1.6c-0.3-0.5-0.6-1-0.9-1.4l-0.8-1.3l-0.4-1c-0.4-0.7-0.7-1.2-0.9-1.7
	s-0.4-0.9-0.5-1.2c-0.5-1.3-0.3-1.4,0-1.5s0.5-0.2,1.2,0.9l0.7,1.1c0.3,0.5,0.6,1,1,1.6l0.6,1l0.8,1.2c0.3,0.4,0.6,0.9,0.9,1.4
	l1.1,1.5c0.5-1.1,1.4-2.8,2.1-2.6c0.2,0,0.4,0.2,0.5,0.4c0.1,0.7,0,1.5-0.1,2.2c-0.2,0.9-0.5,1.9-0.6,2.4c0.4,0.5,0.8,1,1.2,1.5
	s0.9,1,1.3,1.5c0.9,1,1.9,2.1,2.9,3.1c0.4-3.4,1.1-6.7,2.2-9.9c0.5-1.4,0.8-1.3,1.1-1.3c0.2,0,0.4,0.1,0.5,0.3c0.2,0.7,0.2,1.3,0,2
	c0,1-0.3,2.3-0.5,3.7s-0.4,2.9-0.6,4.2s-0.4,2.5-0.5,3.4c2.4,2.4,5,4.8,7.7,7c0.2-1.5,0.4-3,0.8-4.5s0.9-2.8,1.4-2.8
	c0.2,0,0.4,0,0.6,0.2c0.4,0.4,0.3,2.3,0.2,4.3c-0.1,1-0.2,2.1-0.3,2.9L123.3,284.4z"/>
<polygon class="st0" points="156.1,263 159.6,263 159.6,238.3 156.1,238.3 "/>
<path class="st0" d="M38.4,78.5c0-1.1,0.3-2.4,0.8-2.7c0.3-0.2,0.6-0.2,0.8,0c0.3,0.2,0.4,0.8,0.5,1.5l1.4-1.2l0.5-0.4
	c0-1,0.2-2,0.4-3c0-0.8,0.4-1.6,1-2.1c0.3-0.1,0.6-0.1,0.9,0c0.2,0.1,0.3,0.2,0.3,0.6c0,0.9-0.1,1.8-0.3,2.6c1.1-0.8,2-1.4,2.9-2
	c0.2-0.9,0.6-2.4,1.3-2.7c0.3-0.1,0.6,0,0.8,0c0.2,0.1,0.3,0.3,0.2,1.2c0.9-0.5,1.7-0.9,2.2-1.1c0.4-0.2,0.8-0.3,1.2-0.4
	c0.6-0.1,0.6,0,0.8,0.4s0.2,0.4-0.2,0.8c-0.3,0.3-0.6,0.5-1,0.7l-2,1.3c0.9,0.3,0.9,0.5,1,0.8c0,0.3,0,0.6-0.3,0.7
	c-0.5,0.4-1.9,0.1-2.9,0c-0.8,0.6-1.7,1.2-2.7,2c0.9,0,1.7,0.3,2.5,0.6c0.4,0.2,0.4,0.3,0.5,0.5c0,0.3,0,0.6-0.2,0.8
	c-0.3,0.3-1.2,0.3-2.1,0.3s-2.1-0.2-2.9-0.3c-0.6,0.5-1.2,1-1.8,1.6c0.7,0.1,1.3,0.4,1.4,0.7c0,0.3,0,0.6-0.1,0.8
	c-0.4,0.5-2.2,0.4-3.3,0.4c-0.5,0.5-1.1,1-1.6,1.6V83c0,0.4,0,0.9-0.1,1.4h0.3c1.3,0,2.5-0.2,3.7-0.7c2.1-1,4.1-2.3,5.9-3.8
	c2.7-2.1,5-4.6,7.1-7.3c1.6-2.1,2.8-4,3.4-4.9c-0.3-0.2-0.7-0.3-1-0.4c-0.5-0.2-0.9-0.3-1.4-0.4c-0.6-0.1-1.2-0.2-1.7-0.3h-2.2
	c-2.7,0.2-5.3,1-7.7,2.3l-0.8,0.4l0,0l-0.7,0.4h-0.1l-0.7,0.5h-0.2c-0.3,0.3-0.5,0.5-0.8,0.7l-0.7,0.6h-0.1c0,0.1-0.7,0.7-0.7,0.7
	c-0.7,0.6-1.3,1.3-1.9,2c0,0.3,0.2,0.6,0.2,1c0.2,1.1,0.4,2.3,0.5,3.4L38.4,78.5z"/>
<path class="st0" d="M54.9,245.2c1.2-1.5,2.7-2.8,4.4-3.6c-0.6-1.9-1-3.8-1.2-5.8c0-0.6,0-1.2,0-1.8l-1-1.6l0,0c0,0.4,0,0.6,0,0.8
	v0.2c0,0.3,0,0.6-0.1,0.8v0.1c0,0.2-0.1,0.5-0.2,0.7v0.2c-0.2,0.6-0.4,1.2-0.6,1.7v0.2c-0.2,0.2-0.3,0.5-0.4,0.7v0.2
	c-0.2,0.3-0.3,0.6-0.4,0.9v0.2c-0.2,0.2-0.3,0.5-0.4,0.7c0,0,0,0.1-0.1,0.2l-0.4,0.9l0,0c-0.1,0.4-0.3,0.6-0.4,0.9v0.2
	c-0.3,0.3-0.4,0.5-0.6,0.8l0,0l-0.5,1v0.2c-0.1,0-0.5,0.7-0.5,0.7s0,0.1-0.1,0.2c-0.2,0.3-0.3,0.6-0.5,0.9v0.2
	c-0.1,0-0.6,0.8-0.6,0.8v0.2c-0.1,0-0.7,0.9-0.7,0.9c-2.3,3.9-4.6,7.7-5.5,11l0,0c0,0.2-0.1,0.3-0.1,0.5l0,0c0,0.2,0,0.3-0.1,0.5
	l0,0c0,0.2,0,0.4,0,0.5s0,0,0,0v0.4l0,0v0.4c0,0,0,0,0,0.1v0.4l0,0v0.5l0,0v0.4l0,0c0,0.1,0,0.5,0,0.5l0,0c0,0.2,0,0.3,0,0.4l0,0
	c0,0.2,0,0.3,0,0.4v0.2l0.2,0.2c0,0,0,0.1,0,0.2v0.2c0.1,0,0.2,0.2,0.2,0.2s0.1,0.1,0.1,0.2c0,0,0,0.1,0.1,0.2l3,3.6
	c0-0.4,0.2-0.8,0.3-1.2c0.5-2.8,2-5.9,3.9-9.1c0.4-0.7,0.7-1.4,1.1-2c0.3-0.5,0.6-1,0.8-1.5c-0.4-0.9-0.8-1.8-1-2.8
	c-0.2-0.7-0.3-1.5-0.3-2.2c0-1.9,0.5-3.7,1.7-5.2l0,0L54.9,245.2z"/>
<rect x="156.1" y="231.3" class="st0" width="3.5" height="3.5"/>
<path class="st0" d="M85.8,269.5c0.7,1.1,1.5,2.2,2.2,3.3c0.1-0.4,0.3-0.9,0.4-1.3c0.4-0.9,0.9-1.8,1.6-2.6c0.5-0.6,1.1-1.2,1.8-1.7
	c-0.4-0.6-0.8-1.4-1.2-2.2c-0.4-1-0.8-1.9-1.1-3c-0.3-1.1-0.5-2.2-0.6-3.4c0-1.1,0-2.3,0.3-3.4c0-0.2,0-0.4,0.1-0.5
	c-0.7-0.2-1.5-0.3-2.2-0.4h-0.7h-0.3c-0.2,0-0.4-0.1-0.5-0.3s-0.1-0.4,0-0.6c0.8-1.8,1.4-3.7,1.9-5.5c0.7-2.9,1-6.2-0.7-8.5
	c-1-1.3-3-1.7-5.2-1.7c-1.9,0-3.7,0.2-5.5,0.6c-0.3,0-0.7-0.1-0.7-0.5v-0.3l-0.3-0.8c-0.1-0.3-0.2-0.7-0.4-1.1s-0.3-0.9-0.5-1.3
	c-0.4-1-0.9-1.9-1.4-2.8c-0.3-0.5-0.6-0.9-0.9-1.3c-0.3-0.4-0.7-0.8-1.1-1.1c-1.3-1.1-2.8-1.7-4.5-1.7c-0.9,0-1.7,0.2-2.5,0.6
	c-0.8,0.5-1.4,1.2-1.8,2.1c-0.3,0.6-0.5,1.3-0.7,1.9c0,0.4-0.2,0.9-0.2,1.4v0.5l0,0c0,0,0,0.1,0,0.2v1.5c0,0,0,0.2,0,0.3
	c0,0.2,0,0.4,0,0.6s0,0.3,0,0.4v0.4c0,0.3,0.1,0.6,0.2,0.8c0.1,0.6,0.3,1.2,0.4,1.7s0.3,1,0.4,1.4s0.2,0.7,0.3,0.9v0.3
	c0.4,0.3,0.3,0.8,0,1l-0.4,0.2h-0.1l-0.3,0.3c-0.4,0.3-1,0.6-1.5,1.1c-0.8,0.6-1.5,1.3-2.1,2c-1.5,1.7-2.6,3.9-2,6
	c0,0.1,0,0.3,0.1,0.4c0,0.2,0.1,0.4,0.2,0.6l0,0c0,0.2,0.2,0.4,0.3,0.6l0,0c0.1,0.2,0.2,0.4,0.3,0.6l0,0c0.1,0.2,0.2,0.4,0.3,0.5
	l0,0c1.5,2.1,3.5,3.8,5.8,4.9c0.3,0.1,0.5,0.3,0.8,0.4h0.1l0.8,0.4c1.4,0.6,2.8,1,4.3,1.3c0.2,0,0.4,0.2,0.5,0.4
	c0.1,0.2,0.1,0.5,0,0.7c-0.6,1.3-0.9,2.6-1.1,4c0.7,0.5,1.3,1.1,1.9,1.8c1.3,1.6,2.4,3.3,3.3,5.2c1.9-2.2,4.1-3.1,6.1-2.5
	c0.7,0.2,1.4,0.6,1.9,1.1c0.6,0.5,1.1,1.1,1.6,1.7c0.8,1.1,1.6,2.3,2.3,3.6l0,0c0.3,0,0.6-0.2,0.9-0.2s0.6-0.2,0.9-0.2
	s0.6-0.1,1-0.2c-1.5-2.1-3.1-4.5-4.6-6.9c-0.9,0-3.1-0.2-5.2-0.5s-4.1-0.7-4.5-1.2c-0.1-0.2-0.2-0.4-0.2-0.7
	c0.1-0.5,1.5-0.7,3.2-0.7s3.6,0,4.8,0.1c-1.9-3.2-3.8-6.4-5.5-9.6c-0.9-0.1-2.1-0.3-3.6-0.6s-3-0.7-4.5-1.2c-3-0.9-5.6-2-6-2.7
	c-0.1-0.2-0.2-0.5-0.1-0.8c0.1-0.3,0.2-0.6,1.8-0.4c0.8,0.1,1.9,0.4,3.7,0.8s4,1,7,1.6c-1.4-2.8-2.6-5.5-3.7-8
	c-0.9-0.2-1.7-0.4-2.6-0.7c-0.8-0.2-1.5-0.6-2.1-1.2c-0.1-0.2-0.1-0.5,0-0.7c0.3-0.8,2.3-0.5,3.5-0.3c-1.3-3.1-2.3-6.4-3-9.7
	c-0.2-1.4,0-1.5,0.3-1.6s0.5-0.1,1,1.2s1.3,4.1,3.6,9.3c0.7-1,2.1-2.5,2.8-2.2c0.2,0.1,0.4,0.3,0.4,0.5c0,0.8-0.2,1.5-0.7,2.2
	c-0.4,0.9-1,1.8-1.2,2.3c1.1,2.4,2.4,5,3.9,7.7c1.2-2.8,2.2-4.9,3-6.4c0.5-1.1,1.2-2.1,1.8-3.1c0.9-1.3,1.1-1.2,1.4-1.1
	c0.2,0,0.4,0.2,0.4,0.5c0.2,0.6-0.7,3-1.8,5.8c-0.6,1.4-1.2,2.8-1.7,4.1s-1.1,2.5-1.5,3.3c1.8,3.1,3.7,6.3,5.7,9.4
	c0.6-1.5,1.3-2.9,2.1-4.3c0.8-1.5,1.6-2.6,2.2-2.5c0.2,0,0.4,0.2,0.5,0.4c0.3,0.5-0.3,2.4-1,4.4s-1.6,4.1-1.9,4.9L85.8,269.5z"/>
<polygon class="st0" points="177.3,263 180.8,263 180.8,238.3 177.3,238.3 "/>
<rect x="177.3" y="231.3" class="st0" width="3.5" height="3.5"/>
<polygon class="st0" points="163.1,263 166.7,263 166.7,238.3 163.1,238.3 "/>
<polygon class="st0" points="170.2,238.3 170.2,263 173.7,263 173.7,238.3 172,238.3 "/>
<rect x="163.1" y="231.3" class="st0" width="3.5" height="3.5"/>
<path class="st0" d="M55.8,272.7c1.4-2.8,2.9-5.5,4.5-8.2c0.4-0.6,0.7-1.2,1-1.8c-0.7-0.4-1.4-0.9-2.1-1.5c-1.3-1.1-2.5-2.3-3.5-3.7
	c-0.5,0.8-1,1.6-1.4,2.4c-0.2,0.4-0.4,0.8-0.6,1.2c-1.3,2.3-2.3,4.7-3,7.2c-0.2,1.1-0.2,2.2,0.1,3.2c1.7,0.1,3.4,0.5,5,1V272.7z"/>
<path class="st0" d="M98.5,22.1l-0.3,0.2c-0.7,0.4-1.2,1-1.7,1.7c-0.3,0.4-0.4,0.8-0.5,1.3c1.2-0.3,2.7-0.7,4.3-1.1
	c0.6-0.8,1.7-2.1,2.4-2.1c0.3,0,0.5,0,0.7,0.2s0,0.7-0.4,1.3c0.6-0.1,1.2-0.2,1.9-0.4h0.6c0.9-1.2,2.8-3.2,3.8-3.2
	c0.3,0,0.6,0,0.7,0.3c0.2,0.3,0.3,0.4-1.6,2.4c1.3-0.2,2.4-0.3,3.4-0.4c0.6-0.6,1.7-1.5,2.4-1.5c0.3,0,0.5,0.1,0.7,0.3
	c0.1,0.2,0.2,0.3-0.4,1c1.3-0.1,2.5-0.1,3.8,0c0.5,0.1,0.6,0.3,0.6,0.5s0,0.4-0.5,0.5s-1.6,0.2-3.7,0.5c0.7,0.5,0.6,0.7,0.6,0.9
	c-0.1,0.2-0.3,0.4-0.6,0.4c-0.6,0.1-1.8-0.5-2.6-1c-1,0.1-2.1,0.3-3.4,0.5c2.3,1.3,2.2,1.5,2.1,1.8c-0.1,0.2-0.3,0.4-0.6,0.5
	c-0.9,0.2-3.2-1.1-4.4-1.7c-0.8,0.1-1.6,0.3-2.4,0.5c0.5,0.4,0.9,0.7,0.9,1s-0.3,0.4-0.6,0.5c-0.7,0.2-2.1-0.4-3-0.9
	c-1.3,0.3-2.7,0.7-4.2,1.1c0.3,0.3,0.6,0.6,1,0.8c1.1,0.5,2.3,0.8,3.5,0.8c2.4,0,4.9-0.2,7.2-0.7c3.5-0.6,6.9-1.6,10.2-2.9
	c1.8-0.7,3.5-1.5,5.2-2.4c-0.6-0.5-1.3-1-2-1.4l-0.3-0.2l0,0c-0.1,0-0.2-0.1-0.4-0.2l0,0l-0.3-0.2h-0.4c0-0.1-0.1-0.2-0.1-0.2h-0.3
	c0-0.1-0.2-0.2-0.2-0.2h-0.3c0-0.1-0.3-0.2-0.3-0.2h-0.2l-0.5-0.2l-0.7-0.2h-0.2l-0.6-0.2h-0.2c-0.5-0.1-1-0.2-1.6-0.3l0,0
	c-0.3,0-0.6,0-0.8-0.1l0,0c-1,0-2-0.1-2.9-0.1h-0.2c-1.2,0-2.3,0.1-3.4,0.3h-0.9c-1.5,0.4-2.9,0.7-4.3,1.1c-0.7,0.2-1.4,0.5-2.1,0.8
	h-0.3c0,0.1-0.3,0.3-0.3,0.3l0,0l-0.3,0.2L99,22.1h-0.2l-0.4,0.3L98.5,22.1z"/>
<path class="st0" d="M103.9,16c0-1,0.2-2.4,0.8-2.8c0.2-0.2,0.5-0.2,0.7-0.1c0.3,0.1,0.4,0.6,0.4,1.2l1.2-1.1l0.4-0.4
	c0-1.3,0.2-3.9,0.9-4.4c0.2-0.2,0.5-0.2,0.7-0.1c0.3,0.1,0.5,0.2,0.3,2.6c0.8-0.8,1.6-1.6,2.2-2.2c0-0.8,0.1-2.1,0.6-2.5
	c0.2-0.2,0.4-0.2,0.7-0.2c0.2,0,0.3,0.1,0.4,0.9c2.7-2.8,2.8-2.7,3.1-2.4s0.5,0.4-2,3.4c0.8,0,0.9,0.1,1,0.3c0,0.2,0,0.5-0.1,0.7
	c-0.4,0.5-1.6,0.7-2.5,0.8c-0.6,0.7-1.3,1.4-2.1,2.3c2.5-0.2,2.6,0,2.7,0.2c0,0.2,0,0.5-0.1,0.7c-0.5,0.7-3.1,0.9-4.4,1l-1.6,1.6
	c0.6,0,1.1,0.2,1.2,0.4c0,0.2,0,0.5-0.2,0.7c-0.4,0.5-1.9,0.6-2.9,0.6l-0.4,0.4c0.6-0.1,1.2-0.3,1.8-0.4c1.3-0.2,2.7-0.4,4-0.4l0,0
	l0.5-0.5l0,0c0.2-0.2,0.4-0.4,0.6-0.6h0.1c0-0.1,0.6-0.7,0.6-0.7c0.2-0.2,0.4-0.4,0.6-0.7l0.2-0.2l0.4-0.5c0,0,0.1-0.1,0.2-0.2
	c0.4-0.5,0.8-0.9,1.1-1.4l0,0c0.1-0.3,0.3-0.5,0.4-0.7l0,0c0.5-0.8,0.9-1.5,1.3-2.2l0,0c0.2-0.3,0.3-0.6,0.4-0.9l0,0
	c0.1-0.4,0.3-0.6,0.4-0.9l0,0c0.1-0.3,0.2-0.6,0.3-0.9s0.2-0.6,0.3-0.9l0,0c0.1-0.3,0.2-0.6,0.2-0.9l0,0c0.3-1.2,0.5-2.4,0.5-3.6
	c-1.8,0.4-3.5,1-5.1,1.9c-2.9,1.5-5.6,3.5-7.9,5.8c-1.6,1.5-3,3.3-4.2,5.1c-0.6,0.9-1,2-1.1,3.2c0,0.4,0,0.9,0.2,1.3
	c0.9-0.8,1.9-1.7,3-2.7L103.9,16z"/>
<path class="st0" d="M83.6,25.4c0.1-1,0.4-2.6,0.9-3c0.2-0.2,0.5-0.2,0.7,0c0.3,0.1,0.4,0.7,0.4,1.3c0.4-0.4,0.9-0.8,1.3-1.2
	l0.4-0.4c0-0.7,0.1-1.7,0.3-2.6c0-0.7,0.2-1.4,0.6-1.9c0.2-0.2,0.5-0.2,0.7-0.1c0.2,0,0.3,0.1,0.4,0.5c0,0.8,0,1.5,0,2.3
	c0.4-0.4,0.8-0.8,1.2-1.2s0.7-0.7,1-1.1c0-0.9,0-2.2,0.5-2.6c0.2-0.2,0.4-0.3,0.7-0.2c0.2,0,0.4,0.1,0.5,1l0.9-1
	c0.2-0.3,0.4-0.6,0.6-0.8c0.2-0.3,0.5-0.6,0.8-0.9c0.4-0.4,0.5-0.3,0.7-0.1s0.3,0.2,0.1,0.7c-0.2,0.4-0.4,0.8-0.6,1.1
	c-0.1,0.2-0.3,0.6-0.6,0.9l-0.8,1.1c0.9,0,1,0,1.1,0.2s0,0.5,0,0.8c-0.3,0.6-1.8,0.9-2.6,1c-0.3,0.4-0.6,0.8-1,1.2s-0.8,0.9-1.2,1.3
	c0.8,0,1.6-0.1,2.4-0.1c0.4,0,0.4,0.2,0.5,0.3c0,0.3,0,0.6-0.1,0.8c-0.6,0.5-1.3,0.8-2.1,0.8c-0.9,0.1-1.8,0.2-2.7,0.2
	c-0.6,0.5-1.1,1.1-1.8,1.6c0.6,0,1.2,0.2,1.3,0.5c0,0.3,0,0.5-0.2,0.8c-0.4,0.5-2.1,0.6-3.1,0.5l-3.1,2.7c0.4,0.2,0.9,0.4,1.3,0.4
	c1.2,0,2.4-0.2,3.5-0.7c2.3-1.1,4.3-2.6,6.1-4.4c0.2-0.2,0.4-0.4,0.6-0.6c0.8-0.8,1.5-1.7,2.2-2.6l0,0c0.4-0.6,0.8-1.2,1.2-1.8
	c0.4-0.8,0.8-1.6,1.2-2.4c0.3-0.7,0.5-1.5,0.7-2.3c0.2-0.7,0.3-1.3,0.4-2c0-0.6,0.1-1.1,0-1.7c0-0.7,0-1.5-0.2-2.2
	c-0.7,0.3-1.4,0.6-2,1c-0.4,0.2-0.9,0.5-1.4,0.8s-1,0.6-1.5,1c-2.8,1.8-5.3,3.8-7.7,6.1c-1.7,1.5-3.3,3.3-4.6,5.2
	c-0.7,1-1.2,2.1-1.3,3.4c0,0.5,0,0.9,0.2,1.4l3.2-2.7V25.4z"/>
<path class="st0" d="M62.4,44.9c0.8-0.9,1.6-2.1,2.5-3.3c-0.1-1-0.3-2.6,0.2-3.1c0.2-0.2,0.4-0.3,0.7-0.3c0.3,0,0.5,0.6,0.7,1.2
	l1-1.5l0.3-0.5c-0.2-1.4-0.6-4.1-0.1-4.7c0.2-0.2,0.4-0.3,0.7-0.3c0.4,0,0.6,0,1,2.7c0.7-1.1,1.2-2,1.7-2.8c-0.2-0.9-0.4-2.2,0-2.7
	c0.2-0.2,0.4-0.3,0.7-0.3c0.2,0,0.4,0,0.6,0.9c0.6-1,1.2-2,1.9-3c0.4-0.4,0.5-0.3,0.7-0.2s0.4,0.2,0.2,0.7c-0.4,1.2-0.9,2.3-1.5,3.3
	c0.8-0.2,1,0,1.1,0c0.1,0.2,0.1,0.5,0,0.8c-0.2,0.6-1.5,1.1-2.4,1.4c-0.5,0.8-1,1.8-1.7,2.9c2.5-0.8,2.6-0.7,2.9-0.4
	c0.1,0.2,0.1,0.5,0,0.8c-0.4,0.8-3,1.7-4.4,2c-0.4,0.6-0.8,1.3-1.3,2c0.6,0,1.2,0,1.4,0.2c0.1,0.2,0.1,0.5,0,0.8
	c-0.3,0.6-1.9,1.1-2.9,1.3c-0.5,0.7-1,1.5-1.6,2.3c1.7-0.7,3.4-1.2,5.1-1.5c0.8-0.9,1.6-1.8,2.3-2.8l0.3-0.4l0,0l0.3-0.4
	c0,0,0,0,0-0.1l0.2-0.4c0.1-0.2,0.2-0.3,0.3-0.5c0.2-0.3,0.4-0.7,0.6-1v-0.2c0.3-0.3,0.5-0.6,0.6-0.9l0,0c1.3-2.6,2.2-5.3,2.5-8.2
	c0.2-1.9,0.1-3.9-0.3-5.8c-1.7,0.9-3.3,2-4.8,3.2c-2.6,2.3-4.8,4.9-6.6,7.9c-1.3,1.9-2.4,4-3.2,6.2c-0.4,1.1-0.6,2.3-0.4,3.5
	c0,0.5,0.2,0.9,0.5,1.3L62.4,44.9z"/>
<path class="st0" d="M125.2,4.9c0.2,0,0.5,0,0.7,0.2s0,0.7-0.2,1.3l1.6-0.5l0.5-0.2c0.7-1.2,1.9-3.4,2.7-3.5c0.2,0,0.5,0,0.7,0.2
	s0.4,0.4-0.9,2.5c1.1-0.4,2.1-0.7,2.9-1c0.4-0.7,1.1-1.8,1.6-2c0.2,0,0.5,0,0.7,0.2c0.1,0.1,0.2,0.3,0,1c3.6-1.3,3.7-1.2,3.9-0.8
	s0.2,0.6-3.3,2.1c0.7,0.3,0.7,0.5,0.7,0.7s-0.2,0.5-0.4,0.6c-0.5,0.3-1.8,0-2.6-0.4C133,5.6,132,6,130.9,6.4
	c2.3,0.9,2.3,1.1,2.3,1.4c0,0.2-0.2,0.5-0.4,0.6c-0.8,0.4-3.2-0.5-4.4-1.1L126.3,8c0.1,0,0.3,0.2,0.4,0.2c2,0,4,0.1,6,0.5l1.1,0.3
	c0.4-0.2,0.8-0.4,1.2-0.6l0,0c0.7-0.4,1.3-0.7,1.8-1.1c1.1-0.7,2.2-1.6,3.2-2.5l0.7-0.7c0.7-0.7,1.3-1.5,1.9-2.3
	c0.3-0.4,0.5-0.8,0.8-1.3c-1.8-0.4-3.6-0.6-5.4-0.6c-3.3,0-6.5,0.6-9.6,1.7c-2.1,0.6-4.2,1.6-6.1,2.7c-1,0.6-1.8,1.4-2.4,2.3l-0.3,1
	c0,0.1,0,0.2,0,0.3c1.1-0.3,2.4-0.6,3.8-1c0.5-0.9,1.3-2.2,1.9-2.2L125.2,4.9z"/>
<path class="st0" d="M83.2,41.5c-0.6,0.4-2.2,0.1-3.2-0.1c-1,0.6-2,1.2-3.1,1.9c0.7,0,1.3,0.2,2,0.3s1.3,0.3,2,0.6h0.4
	c2.4-0.7,4.6-1.6,6.8-2.7c3.2-1.5,6.2-3.4,8.9-5.7c1.5-1.2,2.9-2.5,4.3-3.9c-1.7-0.9-3.6-1.4-5.6-1.5h-2.2c-1.1,0-2.2,0.2-3.3,0.4
	C88,31.2,85.9,32,84,32.9c-2.4,1.1-4.6,2.5-6.5,4.3c-1,0.9-1.7,2-2.1,3.2c-0.1,0.5-0.2,0.9,0,1.4c1.1-0.7,2.4-1.4,3.9-2.2
	c0.4-1,1-2.5,1.7-2.8c0.3-0.1,0.6,0,0.8,0c0.2,0.2,0.2,0.8,0,1.4c0.6-0.3,1.1-0.6,1.7-0.9l0.6-0.3c0.5-1.4,1.8-3.9,2.7-4.2
	c0.3,0,0.6,0,0.8,0.1c0.3,0.2,0.4,0.4-0.8,2.8c1.2-0.5,2.3-1,3.2-1.4c0.4-0.8,1.2-2,1.9-2.2c0.3,0,0.6,0,0.8,0.2
	c0.2,0.1,0.3,0.3-0.1,1.1c1.2-0.5,2.4-0.8,3.7-1c0.6,0,0.6,0.1,0.7,0.4s0.1,0.4-0.4,0.6s-1.5,0.7-3.4,1.5c0.8,0.4,0.8,0.6,0.8,0.8
	c0,0.3-0.2,0.5-0.4,0.6c-0.6,0.3-1.9,0-2.8-0.3c-0.9,0.4-1.9,0.9-3.1,1.4c2.6,0.7,2.6,0.9,2.6,1.3c0,0.3-0.2,0.5-0.4,0.6
	c-0.7,0.5-3.4-0.2-4.8-0.6c-0.7,0.4-1.4,0.7-2.2,1.1c0.6,0.2,1.1,0.5,1.1,0.8s-0.2,0.5-0.4,0.6L83.2,41.5z"/>
<path class="st0" d="M61.3,60.1c2.4-0.7,4.7-1.6,6.9-2.8c3.2-1.6,6.2-3.7,9-6c0.5-0.5,1-0.9,1.5-1.3s0.9-0.8,1.2-1.2s0.7-0.7,1-1
	l0.7-0.7c-0.2-0.1-0.6-0.3-0.9-0.5l-0.4-0.2l-0.4-0.2l0,0L79.4,46c-0.6-0.2-1.2-0.4-1.8-0.5c-0.7-0.1-1.5-0.2-2.2-0.3h-1
	c-0.6,0-1.2,0-1.8,0l0,0c-0.3,0-0.6,0-1,0.1h-0.7c-0.9,0.2-1.7,0.4-2.6,0.7h-0.2c-0.2,0.1-0.4,0.2-0.7,0.3h-0.3l-0.6,0.3h-0.3
	c0,0.1-0.6,0.4-0.6,0.4h-0.3c0,0.1-0.6,0.4-0.6,0.4h-0.3c0,0.1-0.9,0.6-0.9,0.6l-0.7,0.4l0,0l-0.6,0.4L61.8,49l0,0l-0.6,0.4l0,0
	l-0.3,0.2c0,0.8-0.2,1.7-0.3,2.6l0,0l0,0c0.3-0.1,0.6,0,0.8,0c0.3,0.2,0.2,0.8,0,1.5l1.7-0.9l0.6-0.3c0.3-0.9,0.7-1.9,1.2-2.7
	c0.3-0.8,0.8-1.4,1.5-1.9c0.3-0.1,0.6,0,0.9,0.1c0.3,0.3,0.4,0.4-0.8,3.1c1.2-0.6,2.3-1.1,3.3-1.5c0.4-0.9,1.2-2.2,1.9-2.4
	c0.3,0,0.6,0,0.8,0.2c0.2,0.2,0.3,0.3,0,1.2c1.2-0.5,2.5-0.8,3.8-1c0.6,0,0.6,0.1,0.7,0.4s0.1,0.4-0.4,0.7s-1.5,0.7-3.5,1.6
	c0.8,0.4,0.9,0.6,0.8,0.8c0,0.3-0.2,0.5-0.4,0.6c-0.6,0.3-2-0.1-2.9-0.4c-0.9,0.4-2,0.9-3.2,1.5c2.7,0.8,2.7,1,2.8,1.4
	c0,0.3-0.2,0.5-0.4,0.7c-0.7,0.2-1.5,0.2-2.2,0c-1-0.2-2.1-0.5-2.8-0.7c-0.7,0.4-1.4,0.8-2.2,1.3c0.7,0.2,1.2,0.5,1.2,0.9
	c0,0.3-0.1,0.6-0.4,0.7c-0.6,0.4-2.3,0.1-3.4-0.1c-0.3,0.2-0.6,0.4-1,0.6c-0.3,0.8-0.6,1.7-1,2.6c1.1,0.1,2.2,0,3.3-0.3L61.3,60.1z"
	/>
<path class="st0" d="M40.2,68.8c0.9-0.7,1.9-1.3,2.9-1.9l0.7-1.2l-0.2-0.4c-1.1-3-1.2-3.4-0.9-3.9s0.7-0.3,0.7-0.3
	c0.5,0,1.2,1.4,1.7,2.4c0.7-1.2,1.4-2.5,2.1-3.7c-0.3-0.9-0.8-2.5-1.1-3.9s-0.5-2.8-0.2-3.2s0.6-0.3,0.6-0.3c0.2,0,0.4,0,0.7,0.6
	c0.2,0.5,0.4,0.9,0.6,1.4c0.2,0.7,0.5,1.6,0.8,2.8c1-1.8,1.7-3.3,2.4-4.6c-0.4-1.2-1.4-3.9-0.9-4.6c0.3-0.5,0.6-0.3,0.6-0.3
	c0.5,0,1.1,1.3,1.6,2.4c1.5-3.1,2.2-4.7,2.7-5.4s0.6-0.7,0.8-0.6s0.4,0.2,0.2,1c-0.6,2-1.4,3.9-2.2,5.7c1.1-0.4,2.6-0.7,2.9-0.4
	c0.2,0.2,0.3,0.5,0.1,0.7c-0.2,0.8-3,1.9-4.3,2.3c-0.7,1.4-1.4,2.9-2.3,4.7c1.2-0.4,2.1-0.7,2.8-0.9c0.5-0.2,1-0.3,1.5-0.4
	c0.5-0.1,0.8,0,0.9,0.1c0.2,0.2,0.2,0.5,0.1,0.7c-0.2,0.6-1.4,1.2-2.8,1.8c-1.3,0.5-2.6,1-3.9,1.3c-0.7,1.3-1.4,2.6-2,3.8
	c0.9-0.2,1.8-0.1,2.7,0c1.4-0.3,2.8-0.4,4.2-0.4c0.4-0.6,0.7-1.2,1.1-1.8l0.3-0.5l0.3-0.6c0.1-0.3,0.3-0.6,0.4-0.8s0.2-0.5,0.4-0.8
	c0,0,0-0.1,0.1-0.2c0.1-0.3,0.2-0.6,0.4-0.8c0,0,0,0,0-0.1c0.1-0.3,0.2-0.5,0.3-0.8l0,0c0.1-0.4,0.2-0.6,0.3-0.9l0,0
	c0-0.3,0.2-0.6,0.3-0.9c0.5-1.6,0.9-3.3,1.1-5c0.1-1,0.2-1.9,0.2-2.8l0,0V47c0-0.9,0-1.8-0.2-2.6c0-0.7-0.2-1.4-0.4-2.2
	c-0.2-0.9-0.5-1.8-0.9-2.7c-0.6,0.3-1.5,0.8-2.5,1.6c-0.5,0.4-1.1,0.8-1.7,1.2s-1.3,1-1.9,1.6c-3.4,3.1-6.1,6.7-8.2,10.8
	c-1.5,2.6-2.7,5.5-3.4,8.5c-0.4,1.6-0.3,3.2,0.1,4.8C39.8,68.3,40,68.5,40.2,68.8L40.2,68.8z"/>
<path class="st0" d="M141.9,5.6c0.2-0.2,0.5-0.3,0.8-0.4c0.2,0,0.5,0,0.6,0.3c0.1,0.2,0,0.7-0.4,1.1l1.6-0.2h0.5
	c0.8-1,2.5-2.8,3.4-2.8c0.2,0,0.5,0.1,0.6,0.3c0.2,0.3,0.2,0.4-1.4,2.1c1.1-0.1,2.1-0.2,3-0.3c0.5-0.6,1.5-1.4,2-1.4
	c0.2,0,0.5,0.1,0.6,0.3c0,0.2,0.1,0.3-0.3,0.9c3.7-0.3,3.8-0.1,3.8,0.3s0,0.6-3.7,1c0.6,0.5,0.6,0.6,0.5,0.8c0,0.2-0.3,0.4-0.5,0.4
	c-0.6,0.1-1.6-0.5-2.2-0.9l-3,0.4c2,1.3,1.9,1.4,1.8,1.7c0,0.2-0.3,0.4-0.5,0.4c-0.8,0.2-2.8-1.1-3.8-1.8c-0.7,0-1.4,0.2-2.1,0.3
	c0.5,0.4,0.8,0.7,0.7,1c0,0.2-0.3,0.4-0.5,0.4c-0.6,0.2-1.8-0.6-2.6-1c-1.2,0.2-2.4,0.4-3.7,0.7c0.2,0.3,0.5,0.6,0.9,0.9
	c1.2,0.8,3.7,1.6,9.5,0.8c3.2-0.4,6.3-1.3,9.1-2.7c1.6-0.7,3-1.7,4.4-2.8c-1.5-1-3.1-1.7-4.8-2.1c-3.2-0.8-6.5-1-9.7-0.6
	c-0.9,0.1-1.7,0.2-2.5,0.4c-0.3,0.4-0.5,0.7-0.9,1.1s-0.6,0.7-1,1.1L141.9,5.6z"/>
<path class="st0" d="M120.8,17.8c-0.6,0.2-2-0.5-2.9-1.1l-2.7,0.6h0.4c2.2,0.3,4.3,0.9,6.3,1.8l0.5,0.2c0.8,0,1.7-0.2,2.7-0.3
	c3.3-0.4,6.6-1.2,9.7-2.3c2.4-0.9,4.2-1.7,5.1-2.1c-1.4-1.5-3-2.6-4.9-3.3c-0.4-0.1-0.8-0.3-1.2-0.4c-0.2,0-0.5-0.1-0.7-0.2l0,0
	c-0.8-0.2-1.6-0.4-2.4-0.5c-2.2-0.3-4.4-0.3-6.6,0c-1.1,0.1-2.1,0.3-3.1,0.5s-2,0.5-3,0.9l-0.6,0.2c-0.8,1.2-1.7,2.4-2.6,3.4
	c0.9-0.2,1.9-0.4,2.9-0.6c0.6-0.8,1.7-2,2.4-2c0.3,0,0.5,0,0.7,0.3c0.2,0.2,0,0.7-0.4,1.2l1.8-0.3h0.6c0.9-1.1,2.8-3,3.8-3
	c0.3,0,0.5,0.1,0.7,0.3c0.2,0.3,0.2,0.4-1.6,2.3c1.2-0.1,2.3-0.2,3.3-0.2c0.6-0.6,1.7-1.4,2.4-1.4c0.3,0,0.5,0.1,0.6,0.4
	c0,0.2,0.1,0.3-0.4,0.9c1.2,0,2.4,0,3.6,0.2c0.5,0.1,0.5,0.3,0.5,0.5s0,0.4-0.5,0.4s-1.5,0.1-3.5,0.2c0.6,0.6,0.5,0.7,0.5,0.9
	c-0.1,0.2-0.3,0.4-0.6,0.4c-0.6,0.1-1.7-0.6-2.4-1.1c-0.9,0-2,0.2-3.2,0.3c2.1,1.4,2,1.6,1.9,1.9c-0.1,0.2-0.3,0.4-0.6,0.5
	c-0.8,0.2-3-1.2-4.1-2l-2.3,0.4c0.5,0.4,0.9,0.8,0.8,1.1c0,0.3-0.3,0.5-0.6,0.6L120.8,17.8z"/>
<g>
	<path class="st0" d="M391.7,129.7v-3.6c0-0.9,0.4-1.2,1.2-1.2l6.1,0.2V79.1l-6.1,0.2c-0.9,0-1.2-0.4-1.2-1.2v-3.6
		c0-0.9,0.4-1.2,1.2-1.2h63.8c0.9,0,1.2,0.4,1.2,1.2v3.6c0,0.9-0.4,1.2-1.2,1.2l-6.1-0.2v46.1l6.1-0.2c0.9,0,1.2,0.4,1.2,1.2v3.6
		c0,0.9-0.4,1.2-1.2,1.2l-12.6-0.3l-11.9,0.3c-0.9,0-1.2-0.4-1.2-1.2v-3.6c0-0.9,0.4-1.2,1.2-1.2l6.1,0.2V79.5h-26.9v45.5l6.1-0.2
		c0.9,0,1.2,0.4,1.2,1.2v3.6c0,0.9-0.4,1.2-1.2,1.2l-12.6-0.3l-11.9,0.3C392.1,130.9,391.7,130.6,391.7,129.7z"/>
	<path class="st0" d="M481.7,129.1v17.9l4.5-0.2c0.9,0,1.2,0.4,1.2,1.2v3.6c0,0.9-0.4,1.2-1.2,1.2l-10.5-0.3l-10.4,0.3
		c-0.9,0-1.2-0.4-1.2-1.2v-3.6c0-0.9,0.4-1.2,1.2-1.2l4.6,0.2V95.6l-6,0.3c-0.9,0-1.2-0.4-1.2-1.2v-3.6c0-0.9,0.4-1.2,1.2-1.2h11
		c3.4,0,5.1,2.5,5.9,5.3c3.1-4,7.4-6.2,13.2-6.2c11.6,0,18.2,5.3,18.2,20.8c0,14.3-6.8,22-19.9,22
		C487.9,131.8,484.4,130.8,481.7,129.1z M490.6,124.9c6.2,0,9.4-3,9.4-14.9c0-9.7-2.6-13.6-9-13.6c-4.2,0-7.3,2.3-9.4,5.3v19.9
		C484.1,124.1,487.5,124.9,490.6,124.9z"/>
	<path class="st0" d="M560.8,110.3c0,13.8-7.3,21.5-21.3,21.5s-21.3-7.6-21.3-21.5c0-13.6,7.3-21.3,21.5-21.3
		S560.8,96.8,560.8,110.3z M539.4,125.4c7.2,0,9.2-4,9.2-15.1c0-11.3-2-14.9-9.2-14.9c-7.2,0-9.2,3.7-9.2,14.9
		C530.3,121.4,532.2,125.4,539.4,125.4z"/>
	<path class="st0" d="M566.7,94.6V91c0-0.9,0.4-1.2,1.2-1.2h34c0.4,4.5,1.8,15.9,1.8,16.8c0,0.6-0.3,1.2-1.7,1.2h-3.2
		c-0.9,0-1.4-0.6-1.6-1.3c-1.1-4.2-1.9-7.8-2.7-10.8h-10.4v29.5l4.3-0.2c0.9,0,1.2,0.4,1.2,1.2v3.6c0,0.9-0.4,1.2-1.2,1.2l-10.4-0.3
		l-10.2,0.3c-0.9,0-1.2-0.4-1.2-1.2v-3.6c0-0.9,0.4-1.2,1.2-1.2l4.5,0.2V95.9h-4.5C567.1,95.9,566.7,95.5,566.7,94.6z"/>
	<path class="st0" d="M610.8,147.8c0-3.7,2.5-5.8,5.9-5.8c1.9,0,3.1,0.4,5,1.5l4.4-12.2l-15.5-35.6l-4.8,0.1c-0.9,0-1.2-0.4-1.2-1.2
		V91c0-0.9,0.4-1.2,1.2-1.2l11.2,0.3l10.5-0.3c0.9,0,1.2,0.4,1.2,1.2v3.6c0,0.9-0.4,1.2-1.2,1.2l-4-0.2l8,20.6l7.3-20.6l-4.4,0.2
		c-0.9,0-1.2-0.4-1.2-1.2V91c0-0.9,0.4-1.2,1.2-1.2l7.8,0.3l7.8-0.3c0.9,0,1.2,0.4,1.2,1.2v3.6c0,0.9-0.4,1.2-1.2,1.2l-4.9-0.2
		l-18.4,49.8c-2,5.5-4.7,8.4-9.2,8.4C613.4,153.9,610.8,151.6,610.8,147.8z"/>
	<path class="st0" d="M660.4,94.6V91c0-0.9,0.4-1.2,1.2-1.2h33.2c0.9,0,1.2,0.4,1.2,1.2v3.6c0,0.9-0.4,1.2-1.2,1.2h-4.3v29.3
		l4.3-0.2c0.9,0,1.2,0.4,1.2,1.2v3.6c0,0.9-0.4,1.2-1.2,1.2l-10.4-0.3l-10.2,0.3c-0.9,0-1.2-0.4-1.2-1.2V126c0-0.9,0.4-1.2,1.2-1.2
		l4.5,0.2V96.5h-4.8c-1.1,6.4-2.1,12.3-4.2,18.9c-3,9.8-6.7,16.3-13.6,16.3c-4.8,0-7.3-3.1-7.3-7.2c0-3.8,2.5-6,5.6-6
		c3,0,4.9,1.7,5.9,4.3c1.2-1.6,2.1-3.1,3.9-8.7c2.1-6.6,2.9-11.9,3.8-18.4h-6.3C660.8,95.9,660.4,95.5,660.4,94.6z"/>
	<path class="st0" d="M734,127.7c-1.3-2.8-2.1-5.9-3-8.4c-1.9-5.3-4-6.2-6.8-6.3l-3.6-0.1v12.2l4.2-0.2c0.9,0,1.2,0.4,1.2,1.2v3.6
		c0,0.9-0.4,1.2-1.2,1.2l-10.5-0.3l-10.2,0.3c-0.9,0-1.2-0.4-1.2-1.2V126c0-0.9,0.4-1.2,1.2-1.2l4.7,0.2V95.7l-4.5,0.1
		c-0.9,0-1.2-0.4-1.2-1.2V91c0-0.9,0.4-1.2,1.2-1.2l10.4,0.3l10.2-0.3c0.9,0,1.2,0.4,1.2,1.2v3.6c0,0.9-0.4,1.2-1.2,1.2l-4.2-0.1
		v10.9h4.3c4.5,0,8.3-4.5,10.1-11l-4.1,0.2c-0.9,0-1.2-0.4-1.2-1.2V91c0-0.9,0.4-1.2,1.2-1.2l7.8,0.3l9.4-0.3c0.9,0,1.2,0.4,1.2,1.2
		v3.6c0,0.9-0.4,1.2-1.2,1.2l-5.3-0.2c-2.1,7-5.7,10.9-11.2,13.3v1.1c5.1,0.2,8,0.8,10.2,3.8c2,2.7,2.1,6.7,2.5,9.2
		c0.4,1.7,1.2,2.7,2.5,2.7c1.6,0,2.4-0.1,3.4-0.3l0.1,5.3c-3.1,0.8-5.9,1.1-8.5,1.1C737.3,131.8,735.2,130.4,734,127.7z"/>
	<path class="st0" d="M755.1,129.7v-3.6c0-0.9,0.4-1.2,1.2-1.2l4.5,0.2V95.8l-4.5,0.1c-0.9,0-1.2-0.4-1.2-1.2v-3.6
		c0-0.9,0.4-1.2,1.2-1.2l10.4,0.3l10.2-0.3c0.9,0,1.2,0.4,1.2,1.2v3.6c0,0.9-0.4,1.2-1.2,1.2l-4.3-0.1V121h0.7l14.6-31.2l9.7,0.4
		l9.5-0.4c0.9,0,1.2,0.4,1.2,1.2v3.7c0,0.9-0.4,1.2-1.2,1.2l-4.7-0.2v29.4l4.6-0.2c0.9,0,1.2,0.4,1.2,1.2v3.6c0,0.9-0.4,1.2-1.2,1.2
		l-11.1-0.3l-9.4,0.3c-0.9,0-1.2-0.4-1.2-1.2V126c0-0.9,0.4-1.2,1.2-1.2l4.1,0.2v-24.8h-0.7l-14.6,30.7l-9.4-0.4l-9.5,0.4
		C755.4,130.9,755.1,130.6,755.1,129.7z"/>
	<path class="st0" d="M391.7,232.5v-3.6c0-0.9,0.4-1.2,1.2-1.2l4.5,0.2v-29.4l-4.5,0.1c-0.9,0-1.2-0.4-1.2-1.2v-3.6
		c0-0.9,0.4-1.2,1.2-1.2h48.8c0.9,0,1.2,0.4,1.2,1.2v3.6c0,0.9-0.4,1.2-1.2,1.2l-4.6-0.1v29.4l4.6-0.2c0.9,0,1.2,0.4,1.2,1.2v3.6
		c0,0.9-0.4,1.2-1.2,1.2l-11.1-0.3l-9.4,0.3c-0.9,0-1.2-0.4-1.2-1.2v-3.6c0-0.9,0.4-1.2,1.2-1.2l4.1,0.2v-29h-16.1v29l4.3-0.2
		c0.9,0,1.2,0.4,1.2,1.2v3.6c0,0.9-0.4,1.2-1.2,1.2l-10.4-0.3l-10.2,0.3C392.1,233.6,391.7,233.4,391.7,232.5z"/>
	<path class="st0" d="M491.5,213c0,13.8-7.3,21.5-21.3,21.5s-21.3-7.6-21.3-21.5c0-13.6,7.3-21.3,21.5-21.3S491.5,199.6,491.5,213z
		 M470.2,228.2c7.2,0,9.2-4,9.2-15.1c0-11.3-2-14.9-9.2-14.9s-9.2,3.7-9.2,14.9C461.1,224.2,463,228.2,470.2,228.2z"/>
	<path class="st0" d="M518.4,250.5c0-3.7,2.5-5.8,5.9-5.8c1.9,0,3.1,0.4,5,1.5l4.4-12.2l-15.5-35.6l-4.8,0.1c-0.9,0-1.2-0.4-1.2-1.2
		v-3.6c0-0.9,0.4-1.2,1.2-1.2l11.2,0.3l10.5-0.3c0.9,0,1.2,0.4,1.2,1.2v3.6c0,0.9-0.4,1.2-1.2,1.2l-4-0.2l8,20.6l7.3-20.6l-4.4,0.2
		c-0.9,0-1.2-0.4-1.2-1.2v-3.6c0-0.9,0.4-1.2,1.2-1.2l7.8,0.3l7.8-0.3c0.9,0,1.2,0.4,1.2,1.2v3.6c0,0.9-0.4,1.2-1.2,1.2l-4.9-0.2
		l-18.4,49.8c-2,5.5-4.7,8.4-9.2,8.4C520.9,256.6,518.4,254.3,518.4,250.5z"/>
	<path class="st0" d="M561.4,232.5v-3.6c0-0.9,0.4-1.2,1.2-1.2l4.5,0.2v-29.4l-4.5,0.1c-0.9,0-1.2-0.4-1.2-1.2v-3.6
		c0-0.9,0.4-1.2,1.2-1.2l10.4,0.3l10.2-0.3c0.9,0,1.2,0.4,1.2,1.2v3.6c0,0.9-0.4,1.2-1.2,1.2l-4.3-0.1v10.6h17v-10.6l-4.1,0.1
		c-0.9,0-1.2-0.4-1.2-1.2v-3.6c0-0.9,0.4-1.2,1.2-1.2l9.6,0.3l10.9-0.3c0.9,0,1.2,0.4,1.2,1.2v3.6c0,0.9-0.4,1.2-1.2,1.2l-4.6-0.1
		v29.4l4.6-0.2c0.9,0,1.2,0.4,1.2,1.2v3.6c0,0.9-0.4,1.2-1.2,1.2l-11.1-0.3l-9.4,0.3c-0.9,0-1.2-0.4-1.2-1.2v-3.6
		c0-0.9,0.4-1.2,1.2-1.2l4.1,0.2v-12.4h-17v12.4l4.3-0.2c0.9,0,1.2,0.4,1.2,1.2v3.6c0,0.9-0.4,1.2-1.2,1.2l-10.4-0.3l-10.2,0.3
		C561.7,233.6,561.4,233.4,561.4,232.5z"/>
	<path class="st0" d="M620.3,232.5v-3.6c0-0.9,0.4-1.2,1.2-1.2l4.5,0.2v-29.4l-4.5,0.1c-0.9,0-1.2-0.4-1.2-1.2v-3.6
		c0-0.9,0.4-1.2,1.2-1.2l10.4,0.3l10.2-0.3c0.9,0,1.2,0.4,1.2,1.2v3.6c0,0.9-0.4,1.2-1.2,1.2l-4.3-0.1v25.2h0.7l14.5-31.1l9.7,0.4
		l9.5-0.4c0.9,0,1.2,0.4,1.2,1.2v3.7c0,0.9-0.4,1.2-1.2,1.2l-4.7-0.2v29.4l4.6-0.2c0.9,0,1.2,0.4,1.2,1.2v3.6c0,0.9-0.4,1.2-1.2,1.2
		l-11.1-0.3l-9.4,0.3c-0.9,0-1.2-0.4-1.2-1.2v-3.6c0-0.9,0.4-1.2,1.2-1.2l4.1,0.2v-24.8h-0.6l-14.6,30.7l-9.4-0.4l-9.5,0.4
		C620.6,233.6,620.3,233.4,620.3,232.5z"/>
	<path class="st0" d="M680.2,232.5v-3.6c0-0.9,0.4-1.2,1.2-1.2l4.5,0.2v-29.4l-4.5,0.1c-0.9,0-1.2-0.4-1.2-1.2v-3.6
		c0-0.9,0.4-1.2,1.2-1.2h23.2c9.8,0,14.7,3,14.7,9.8c0,4.8-3.5,7.8-8.9,9.3v0.6c6.9,0.9,11.1,3.4,11.1,9.8c0,6.7-6.4,11.7-16.3,11.7
		h-23.9C680.5,233.6,680.2,233.4,680.2,232.5z M701.3,209.8c4.5,0,5.9-1.3,5.9-6.4c0-3.8-1.2-5.1-6.2-5.1h-3.3v11.4L701.3,209.8
		L701.3,209.8z M701.4,227.9c5.2,0,8-0.4,8-6c0-4.5-1.8-5.9-7.7-5.9l-4.1,0.1v11.7H701.4z"/>
	<path class="st0" d="M748.5,235c-14.2,0-20.9-9.1-20.9-22c0-12.2,6.7-21.3,19.9-21.3c8,0,17.3,3.9,17.3,17.1c0,3-0.7,4.6-3.3,4.6
		h-22c0.2,10.7,5.2,14.1,11,14.1c5.3,0,9.4-2.4,12-8.8l4.9,1.8C765,228.6,759,235,748.5,235z M753.5,207.6l0.1-2.6
		c0-4.6-1.6-6.8-6.3-6.8c-3.9,0-6.6,1.9-7.4,9.5H753.5z"/>
	<path class="st0" d="M788.7,231.8v17.9l4.5-0.2c0.9,0,1.2,0.4,1.2,1.2v3.6c0,0.9-0.4,1.2-1.2,1.2l-10.5-0.3l-10.4,0.3
		c-0.9,0-1.2-0.4-1.2-1.2v-3.5c0-0.9,0.4-1.2,1.2-1.2l4.6,0.2v-51.4l-6,0.3c-0.9,0-1.2-0.4-1.2-1.2v-3.6c0-0.9,0.4-1.2,1.2-1.2h11
		c3.4,0,5.1,2.5,5.9,5.3c3.1-4,7.4-6.2,13.2-6.2c11.6,0,18.2,5.3,18.2,20.8c0,14.3-6.8,22-19.9,22
		C794.9,234.5,791.4,233.5,788.7,231.8z M797.7,227.6c6.2,0,9.4-3,9.4-14.9c0-9.7-2.6-13.6-9-13.6c-4.2,0-7.3,2.3-9.4,5.3v20
		C791.2,226.8,794.6,227.6,797.7,227.6z"/>
	<path class="st0" d="M845.5,234.8c-11.4,0-20.4-7-20.4-21.9c0-13.5,8.7-21.2,20.7-21.2c9.9,0,15.5,4.9,15.5,11.6
		c0,3.8-2.4,6.6-5.9,6.6c-3.8,0-5.8-2.4-5.8-5.7c0-2.1,1.1-4.1,2.4-5.3c-1.5-1.2-2.9-1.7-5.1-1.7c-5.9,0-10.1,3.1-10.1,15.5
		c0,9.5,4.2,14.3,11.2,14.3c4.9,0,8.7-1.8,11.3-8.3l4.9,1.8C862.6,228.6,855.8,234.8,845.5,234.8z"/>
	<path class="st0" d="M868.5,232.5v-3.6c0-0.9,0.4-1.2,1.2-1.2l4.5,0.2v-29.4l-4.5,0.1c-0.9,0-1.2-0.4-1.2-1.2v-3.6
		c0-0.9,0.4-1.2,1.2-1.2l10.4,0.3l10.2-0.3c0.9,0,1.2,0.4,1.2,1.2v3.6c0,0.9-0.4,1.2-1.2,1.2l-4.3-0.1v25.2h0.7l14.5-31.1l9.7,0.4
		l9.5-0.4c0.9,0,1.2,0.4,1.2,1.2v3.7c0,0.9-0.4,1.2-1.2,1.2l-4.7-0.2v29.4l4.6-0.2c0.9,0,1.2,0.4,1.2,1.2v3.6c0,0.9-0.4,1.2-1.2,1.2
		l-11.1-0.3l-9.4,0.3c-0.9,0-1.2-0.4-1.2-1.2v-3.6c0-0.9,0.4-1.2,1.2-1.2l4.1,0.2v-24.8h-0.7l-14.6,30.7l-9.4-0.4l-9.5,0.4
		C868.9,233.6,868.5,233.4,868.5,232.5z"/>
	<path class="st0" d="M970.7,209.3c0,0.6-0.3,1.2-1.7,1.2h-3.2c-0.9,0-1.4-0.6-1.6-1.3c-1.1-4.2-1.9-7.3-2.7-10.4h-7.2v29l4.5-0.2
		c0.9,0,1.2,0.4,1.2,1.2v3.6c0,0.9-0.4,1.2-1.2,1.2l-10.9-0.3l-9.8,0.3c-0.9,0-1.2-0.4-1.2-1.2v-3.6c0-0.9,0.4-1.2,1.2-1.2l4.5,0.2
		v-29h-7.2c-0.9,3.1-1.7,6.2-2.7,10.4c-0.2,0.7-0.7,1.3-1.6,1.3h-3.2c-1.4,0-1.7-0.6-1.7-1.2c0-0.9,1.4-12.2,1.8-16.8h40.9
		C969.3,197.1,970.7,208.5,970.7,209.3z"/>
	<path class="st0" d="M995.4,235c-14.2,0-20.9-9.1-20.9-22c0-12.2,6.7-21.3,19.9-21.3c8,0,17.3,3.9,17.3,17.1c0,3-0.7,4.6-3.3,4.6
		h-22c0.2,10.7,5.2,14.1,11,14.1c5.3,0,9.4-2.4,12-8.8l4.9,1.8C1012,228.6,1005.9,235,995.4,235z M1000.4,207.6l0.1-2.6
		c0-4.6-1.6-6.8-6.3-6.8c-3.9,0-6.6,1.9-7.4,9.5H1000.4z"/>
	<path class="st0" d="M1061,209.3c0,0.6-0.3,1.2-1.7,1.2h-3.2c-0.9,0-1.4-0.6-1.6-1.3c-1.1-4.2-1.9-7.3-2.7-10.4h-7.2v29l4.5-0.2
		c0.9,0,1.2,0.4,1.2,1.2v3.6c0,0.9-0.4,1.2-1.2,1.2l-10.9-0.3l-9.8,0.3c-0.9,0-1.2-0.4-1.2-1.2v-3.6c0-0.9,0.4-1.2,1.2-1.2l4.5,0.2
		v-29h-7.2c-0.9,3.1-1.7,6.2-2.7,10.4c-0.2,0.7-0.7,1.3-1.6,1.3h-3.2c-1.4,0-1.7-0.6-1.7-1.2c0-0.9,1.4-12.2,1.8-16.8h40.9
		C1059.7,197.1,1061,208.5,1061,209.3z"/>
	<path class="st0" d="M1067.7,250.5c0-3.7,2.5-5.8,5.9-5.8c1.9,0,3.1,0.4,5,1.5l4.4-12.2l-15.5-35.6l-4.8,0.1
		c-0.9,0-1.2-0.4-1.2-1.2v-3.6c0-0.9,0.4-1.2,1.2-1.2l11.2,0.3l10.5-0.3c0.9,0,1.2,0.4,1.2,1.2v3.6c0,0.9-0.4,1.2-1.2,1.2l-4-0.2
		l8,20.6l7.3-20.6l-4.4,0.2c-0.9,0-1.2-0.4-1.2-1.2v-3.6c0-0.9,0.4-1.2,1.2-1.2l7.8,0.3l7.8-0.3c0.9,0,1.2,0.4,1.2,1.2v3.6
		c0,0.9-0.4,1.2-1.2,1.2l-4.9-0.2l-18.4,49.8c-2,5.5-4.7,8.4-9.2,8.4C1070.3,256.6,1067.7,254.3,1067.7,250.5z"/>
</g>
</svg>
